<svg xmlns="http://www.w3.org/2000/svg" viewBox="0 0 500 500"><g id="freepik--background-complete--inject-54"><g><rect x="42" y="160.7" width="51.47" height="12.9" style="fill:#f0f0f0;"></rect><rect x="30.4" y="173.6" width="51.47" height="12.9" style="fill:#e6e6e6;"></rect></g><g><rect x="382.05" y="209.26" width="51.47" height="12.9" style="fill:#f0f0f0;"></rect><rect x="370.45" y="222.16" width="51.47" height="12.9" style="fill:#e6e6e6;"></rect></g><g><rect x="302.18" y="27.91" width="51.47" height="12.9" style="fill:#f0f0f0;"></rect><rect x="290.58" y="40.81" width="51.47" height="12.9" style="fill:#e6e6e6;"></rect></g><g><rect x="56.14" y="341.79" width="51.47" height="12.9" style="fill:#f0f0f0;"></rect><rect x="44.54" y="354.69" width="51.47" height="12.9" style="fill:#e6e6e6;"></rect></g><rect x="412.45" y="108.85" width="51.47" height="12.9" style="fill:#e6e6e6;"></rect><g><g><g><path d="M443.92,330.2h-180.75c-3.23,0-5.86-2.63-5.86-5.86V61.06c0-3.23,2.63-5.86,5.86-5.86h180.75c3.23,0,5.86,2.63,5.86,5.86V324.34c0,3.23-2.63,5.86-5.86,5.86ZM263.17,55.45c-3.09,0-5.61,2.52-5.61,5.61V324.34c0,3.09,2.52,5.61,5.61,5.61h180.75c3.09,0,5.61-2.52,5.61-5.61V61.06c0-3.09-2.52-5.61-5.61-5.61h-180.75Z" style="fill:#e0e0e0;"></path><path d="M235.49,330.2H54.75c-3.23,0-5.86-2.63-5.86-5.86V61.06c0-3.23,2.63-5.86,5.86-5.86H235.49c3.23,0,5.86,2.63,5.86,5.86V324.34c0,3.23-2.63,5.86-5.86,5.86ZM54.75,55.45c-3.09,0-5.61,2.52-5.61,5.61V324.34c0,3.09,2.52,5.61,5.61,5.61H235.49c3.09,0,5.61-2.52,5.61-5.61V61.06c0-3.09-2.52-5.61-5.61-5.61H54.75Z" style="fill:#e0e0e0;"></path></g><rect x="0" y="391.27" width="500" height=".25" style="fill:#e0e0e0;"></rect></g><rect x="51.67" y="405.53" width="16.06" height=".25" style="fill:#e0e0e0;"></rect><rect x="170.35" y="402.82" width="53.53" height=".25" style="fill:#e0e0e0;"></rect><rect x="68.73" y="414.82" width="36.25" height=".25" style="fill:#e0e0e0;"></rect><rect x="378.35" y="402.69" width="43.19" height=".25" style="fill:#e0e0e0;"></rect><rect x="430.45" y="402.69" width="6.33" height=".25" style="fill:#e0e0e0;"></rect><rect x="316.21" y="408.92" width="53.89" height=".25" style="fill:#e0e0e0;"></rect></g><g><g><path d="M107.97,42.01c-.34-2.25-1.46-4.37-3.06-5.98-1.39-1.41-4.11-3.48-6.19-2.4-1.31,.68-1.54,2.2-.96,3.45,.5,1.08,1.47,1.92,2.34,2.7,1.93,1.75,4.08,3.26,6.39,4.47,.64,.33,1.29,.22,1.82-.23,1.96-1.66,3.94-3.39,5.24-5.64,.97-1.69,2.72-6.16-.15-7.07-1.37-.44-2.48,.64-3.36,1.52s-1.67,1.88-2.34,2.93c-1.28,1.99-2.16,4.28-2.53,6.62-.13,.8,.21,1.61,1.05,1.85,.71,.2,1.72-.24,1.85-1.05,.28-1.73,.81-3.4,1.65-4.93,.41-.74,.86-1.46,1.39-2.12,.28-.35,.58-.69,.89-1.01,.29-.3,.75-.59,.98-.93s-1.21-.21-1.05-.55c-.07,.16-.01,.48-.04,.65-.06,.41-.17,.82-.3,1.21-.28,.85-.75,1.65-1.28,2.37-1.13,1.55-2.67,2.8-4.12,4.04l1.82-.23c-1.64-.86-3.22-1.85-4.66-3.03-.74-.6-1.44-1.24-2.11-1.91-.23-.23-.45-.6-.7-.79-.73-.57,.03-.16-.1-.16,.39,0-.41,.59-.42,.57,0,.02,.55,.21,.65,.26,.34,.17,.67,.37,.99,.58,.64,.43,1.21,.99,1.7,1.58,.94,1.17,1.5,2.56,1.72,4.04,.12,.8,1.13,1.24,1.85,1.05,.86-.24,1.17-1.04,1.05-1.85h0Z" style="fill:#e0e0e0;"></path><polygon points="80.61 70.29 85.92 42.7 126.7 42.7 131.77 71.49 80.61 70.29" style="fill:#ebebeb;"></polygon><polygon points="80.61 70.29 99.89 42.7 110.4 42.7 91.77 70.29 80.61 70.29" style="fill:#f5f5f5;"></polygon><polygon points="104.66 70.29 123.94 42.7 126.7 42.7 128.3 51.8 115.82 70.29 104.66 70.29" style="fill:#f5f5f5;"></polygon></g><g><path d="M165.76,42.01c-.34-2.25-1.46-4.37-3.06-5.98-1.39-1.41-4.11-3.48-6.19-2.4-1.31,.68-1.54,2.2-.96,3.45,.5,1.08,1.47,1.92,2.34,2.7,1.93,1.75,4.08,3.26,6.39,4.47,.64,.33,1.29,.22,1.82-.23,1.96-1.66,3.94-3.39,5.24-5.64,.97-1.69,2.72-6.16-.15-7.07-1.37-.44-2.48,.64-3.36,1.52s-1.67,1.88-2.34,2.93c-1.28,1.99-2.16,4.28-2.53,6.62-.13,.8,.21,1.61,1.05,1.85,.71,.2,1.72-.24,1.85-1.05,.28-1.73,.81-3.4,1.65-4.93,.41-.74,.86-1.46,1.39-2.12,.28-.35,.58-.69,.89-1.01,.29-.3,.75-.59,.98-.93s-1.21-.21-1.05-.55c-.07,.16-.01,.48-.04,.65-.06,.41-.17,.82-.3,1.21-.28,.85-.75,1.65-1.28,2.37-1.13,1.55-2.67,2.8-4.12,4.04l1.82-.23c-1.64-.86-3.22-1.85-4.66-3.03-.74-.6-1.44-1.24-2.11-1.91-.23-.23-.45-.6-.7-.79-.73-.57,.03-.16-.1-.16,.39,0-.41,.59-.42,.57,0,.02,.55,.21,.65,.26,.34,.17,.67,.37,.99,.58,.64,.43,1.21,.99,1.7,1.58,.94,1.17,1.5,2.56,1.72,4.04,.12,.8,1.13,1.24,1.85,1.05,.86-.24,1.17-1.04,1.05-1.85h0Z" style="fill:#e0e0e0;"></path><polygon points="138.4 70.29 143.71 42.7 184.49 42.7 189.56 71.49 138.4 70.29" style="fill:#ebebeb;"></polygon><polygon points="138.4 70.29 157.69 42.7 168.19 42.7 149.56 70.29 138.4 70.29" style="fill:#f5f5f5;"></polygon><polygon points="162.45 70.29 181.73 42.7 184.49 42.7 186.09 51.8 173.61 70.29 162.45 70.29" style="fill:#f5f5f5;"></polygon></g><g><path d="M219.18,42.01c-.34-2.25-1.46-4.37-3.06-5.98-1.39-1.41-4.11-3.48-6.19-2.4-1.31,.68-1.54,2.2-.96,3.45,.5,1.08,1.47,1.92,2.34,2.7,1.93,1.75,4.08,3.26,6.39,4.47,.64,.33,1.29,.22,1.82-.23,1.96-1.66,3.94-3.39,5.24-5.64,.97-1.69,2.72-6.16-.15-7.07-1.37-.44-2.48,.64-3.36,1.52s-1.67,1.88-2.34,2.93c-1.28,1.99-2.16,4.28-2.53,6.62-.13,.8,.21,1.61,1.05,1.85,.71,.2,1.72-.24,1.85-1.05,.28-1.73,.81-3.4,1.65-4.93,.41-.74,.86-1.46,1.39-2.12,.28-.35,.58-.69,.89-1.01,.29-.3,.75-.59,.98-.93s-1.21-.21-1.05-.55c-.07,.16-.01,.48-.04,.65-.06,.41-.17,.82-.3,1.21-.28,.85-.75,1.65-1.28,2.37-1.13,1.55-2.67,2.8-4.12,4.04l1.82-.23c-1.64-.86-3.22-1.85-4.66-3.03-.74-.6-1.44-1.24-2.11-1.91-.23-.23-.45-.6-.7-.79-.73-.57,.03-.16-.1-.16,.39,0-.41,.59-.42,.57,0,.02,.55,.21,.65,.26,.34,.17,.67,.37,.99,.58,.64,.43,1.21,.99,1.7,1.58,.94,1.17,1.5,2.56,1.72,4.04,.12,.8,1.13,1.24,1.85,1.05,.86-.24,1.17-1.04,1.05-1.85h0Z" style="fill:#e0e0e0;"></path><polygon points="191.81 70.29 197.12 42.7 237.9 42.7 242.97 71.49 191.81 70.29" style="fill:#ebebeb;"></polygon><polygon points="191.81 70.29 211.1 42.7 221.6 42.7 202.98 70.29 191.81 70.29" style="fill:#f5f5f5;"></polygon><polygon points="215.86 70.29 235.14 42.7 237.9 42.7 239.5 51.8 227.02 70.29 215.86 70.29" style="fill:#f5f5f5;"></polygon></g><rect x="73.9" y="70.29" width="176.51" height="8.81" style="fill:#e0e0e0;"></rect><g><path d="M107.97,94.88c-.34-2.25-1.46-4.37-3.06-5.98-1.39-1.41-4.11-3.48-6.19-2.4-1.31,.68-1.54,2.2-.96,3.45,.5,1.08,1.47,1.92,2.34,2.7,1.93,1.75,4.08,3.26,6.39,4.47,.64,.33,1.29,.22,1.82-.23,1.96-1.66,3.94-3.39,5.24-5.64,.97-1.69,2.72-6.16-.15-7.07-1.37-.44-2.48,.64-3.36,1.52s-1.67,1.88-2.34,2.93c-1.28,1.99-2.16,4.28-2.53,6.62-.13,.8,.21,1.61,1.05,1.85,.71,.2,1.72-.24,1.85-1.05,.28-1.73,.81-3.4,1.65-4.93,.41-.74,.86-1.46,1.39-2.12,.28-.35,.58-.69,.89-1.01,.29-.3,.75-.59,.98-.93s-1.21-.21-1.05-.55c-.07,.16-.01,.48-.04,.65-.06,.41-.17,.82-.3,1.21-.28,.85-.75,1.65-1.28,2.37-1.13,1.55-2.67,2.8-4.12,4.04l1.82-.23c-1.64-.86-3.22-1.85-4.66-3.03-.74-.6-1.44-1.24-2.11-1.91-.23-.23-.45-.6-.7-.79-.73-.57,.03-.16-.1-.16,.39,0-.41,.59-.42,.57,0,.02,.55,.21,.65,.26,.34,.17,.67,.37,.99,.58,.64,.43,1.21,.99,1.7,1.58,.94,1.17,1.5,2.56,1.72,4.04,.12,.8,1.13,1.24,1.85,1.05,.86-.24,1.17-1.04,1.05-1.85h0Z" style="fill:#e0e0e0;"></path><polygon points="80.61 123.16 85.92 95.57 126.7 95.57 131.77 124.37 80.61 123.16" style="fill:#ebebeb;"></polygon><polygon points="80.61 123.16 99.89 95.57 110.4 95.57 91.77 123.16 80.61 123.16" style="fill:#f5f5f5;"></polygon><polygon points="104.66 123.16 123.94 95.57 126.7 95.57 128.3 104.68 115.82 123.16 104.66 123.16" style="fill:#f5f5f5;"></polygon></g><g><path d="M165.76,94.88c-.34-2.25-1.46-4.37-3.06-5.98-1.39-1.41-4.11-3.48-6.19-2.4-1.31,.68-1.54,2.2-.96,3.45,.5,1.08,1.47,1.92,2.34,2.7,1.93,1.75,4.08,3.26,6.39,4.47,.64,.33,1.29,.22,1.82-.23,1.96-1.66,3.94-3.39,5.24-5.64,.97-1.69,2.72-6.16-.15-7.07-1.37-.44-2.48,.64-3.36,1.52s-1.67,1.88-2.34,2.93c-1.28,1.99-2.16,4.28-2.53,6.62-.13,.8,.21,1.61,1.05,1.85,.71,.2,1.72-.24,1.85-1.05,.28-1.73,.81-3.4,1.65-4.93,.41-.74,.86-1.46,1.39-2.12,.28-.35,.58-.69,.89-1.01,.29-.3,.75-.59,.98-.93s-1.21-.21-1.05-.55c-.07,.16-.01,.48-.04,.65-.06,.41-.17,.82-.3,1.21-.28,.85-.75,1.65-1.28,2.37-1.13,1.55-2.67,2.8-4.12,4.04l1.82-.23c-1.64-.86-3.22-1.85-4.66-3.03-.74-.6-1.44-1.24-2.11-1.91-.23-.23-.45-.6-.7-.79-.73-.57,.03-.16-.1-.16,.39,0-.41,.59-.42,.57,0,.02,.55,.21,.65,.26,.34,.17,.67,.37,.99,.58,.64,.43,1.21,.99,1.7,1.58,.94,1.17,1.5,2.56,1.72,4.04,.12,.8,1.13,1.24,1.85,1.05,.86-.24,1.17-1.04,1.05-1.85h0Z" style="fill:#e0e0e0;"></path><polygon points="138.4 123.16 143.71 95.57 184.49 95.57 189.56 124.37 138.4 123.16" style="fill:#ebebeb;"></polygon><polygon points="138.4 123.16 157.69 95.57 168.19 95.57 149.56 123.16 138.4 123.16" style="fill:#f5f5f5;"></polygon><polygon points="162.45 123.16 181.73 95.57 184.49 95.57 186.09 104.68 173.61 123.16 162.45 123.16" style="fill:#f5f5f5;"></polygon></g><g><path d="M219.18,94.88c-.34-2.25-1.46-4.37-3.06-5.98-1.39-1.41-4.11-3.48-6.19-2.4-1.31,.68-1.54,2.2-.96,3.45,.5,1.08,1.47,1.92,2.34,2.7,1.93,1.75,4.08,3.26,6.39,4.47,.64,.33,1.29,.22,1.82-.23,1.96-1.66,3.94-3.39,5.24-5.64,.97-1.69,2.72-6.16-.15-7.07-1.37-.44-2.48,.64-3.36,1.52s-1.67,1.88-2.34,2.93c-1.28,1.99-2.16,4.28-2.53,6.62-.13,.8,.21,1.61,1.05,1.85,.71,.2,1.72-.24,1.85-1.05,.28-1.73,.81-3.4,1.65-4.93,.41-.74,.86-1.46,1.39-2.12,.28-.35,.58-.69,.89-1.01,.29-.3,.75-.59,.98-.93s-1.21-.21-1.05-.55c-.07,.16-.01,.48-.04,.65-.06,.41-.17,.82-.3,1.21-.28,.85-.75,1.65-1.28,2.37-1.13,1.55-2.67,2.8-4.12,4.04l1.82-.23c-1.64-.86-3.22-1.85-4.66-3.03-.74-.6-1.44-1.24-2.11-1.91-.23-.23-.45-.6-.7-.79-.73-.57,.03-.16-.1-.16,.39,0-.41,.59-.42,.57,0,.02,.55,.21,.65,.26,.34,.17,.67,.37,.99,.58,.64,.43,1.21,.99,1.7,1.58,.94,1.17,1.5,2.56,1.72,4.04,.12,.8,1.13,1.24,1.85,1.05,.86-.24,1.17-1.04,1.05-1.85h0Z" style="fill:#e0e0e0;"></path><polygon points="191.81 123.16 197.12 95.57 237.9 95.57 242.97 124.37 191.81 123.16" style="fill:#ebebeb;"></polygon><polygon points="191.81 123.16 211.1 95.57 221.6 95.57 202.98 123.16 191.81 123.16" style="fill:#f5f5f5;"></polygon><polygon points="215.86 123.16 235.14 95.57 237.9 95.57 239.5 104.68 227.02 123.16 215.86 123.16" style="fill:#f5f5f5;"></polygon></g><rect x="73.9" y="123.16" width="176.51" height="8.81" style="fill:#e0e0e0;"></rect></g></g><g id="freepik--Shadow--inject-54"><path d="M470.02,471.76c0,3.57-98.51,6.46-220.02,6.46s-220.02-2.89-220.02-6.46,98.51-6.46,220.02-6.46,220.02,2.89,220.02,6.46Z" style="fill:#f5f5f5;"></path></g><g id="freepik--Menu--inject-54"><g><rect x="302.09" y="58.15" width="104.43" height="137.21" style="fill:#263238;"></rect><rect x="322.4" y="74.22" width="62.33" height="5.77" style="fill:#fff;"></rect><rect x="313.87" y="96.12" width="42.34" height="1.71" style="fill:#fff;"></rect><rect x="313.87" y="109.1" width="42.34" height="1.71" style="fill:#fff;"></rect><rect x="313.87" y="122.07" width="42.34" height="1.71" style="fill:#fff;"></rect><rect x="313.87" y="135.05" width="42.34" height="1.71" style="fill:#fff;"></rect><rect x="313.87" y="148.02" width="42.34" height="1.71" style="fill:#fff;"></rect><rect x="313.87" y="160.99" width="42.34" height="1.71" style="fill:#fff;"></rect><rect x="313.87" y="173.97" width="42.34" height="1.71" style="fill:#fff;"></rect><rect x="373.95" y="96.12" width="19.62" height="1.71" style="fill:#fff;"></rect><rect x="373.95" y="109.1" width="19.62" height="1.71" style="fill:#fff;"></rect><rect x="373.95" y="122.07" width="19.62" height="1.71" style="fill:#fff;"></rect><rect x="373.95" y="135.05" width="19.62" height="1.71" style="fill:#fff;"></rect><rect x="373.95" y="148.02" width="19.62" height="1.71" style="fill:#fff;"></rect><rect x="373.95" y="160.99" width="19.62" height="1.71" style="fill:#fff;"></rect><rect x="373.95" y="173.97" width="19.62" height="1.71" style="fill:#fff;"></rect></g></g><g id="freepik--Cake_2--inject-54"><g><g><path d="M387.97,311.72c0,.44,3.2,17.44-11.19,24.28v3.05h16.97v-27.98l-5.77,.66Z" style="fill:#263238;"></path><path d="M398.39,311.72c0,.44-3.2,17.44,11.19,24.28v3.05h-16.97v-27.98l5.77,.66Z" style="fill:#263238;"></path></g><g style="opacity:.3;"><path d="M387.97,311.72c0,.44,3.2,17.44-11.19,24.28v3.05h16.97v-27.98l-5.77,.66Z" style="fill:#fff;"></path><path d="M398.39,311.72c0,.44-3.2,17.44,11.19,24.28v3.05h-16.97v-27.98l5.77,.66Z" style="fill:#fff;"></path></g><rect x="356.25" y="308.17" width="76.45" height="5.78" style="fill:#263238;"></rect><rect x="356.25" y="308.17" width="76.45" height="5.78" style="fill:#fff; opacity:.3;"></rect><polyline points="388.2 313.96 398.16 313.96 398.09 316.39 388.2 316.39 388.2 314.36" style="opacity:.3;"></polyline><g><g><path d="M402.8,250.83c-.54-1.1-1.64-1.9-2.85-2.09,.25-1.9-1.46-3.82-3.38-3.8-.63,0-1.38,.14-1.77-.35-.28-.36-.2-.9,.06-1.27,.26-.37,.67-.6,1.07-.83-1.04-.4-2.3-.14-3.1,.63-.8,.78-1.09,2.03-.71,3.08-1.58-.53-3.44-.13-4.67,1-1.23,1.13-1.78,2.95-1.39,4.57-1.01,.55-1.78,1.52-2.09,2.63l18.75-.05c.59-1.07,.62-2.43,.07-3.53Z" style="fill:#EE7376;"></path><g style="opacity:.8;"><path d="M402.8,250.83c-.54-1.1-1.64-1.9-2.85-2.09,.25-1.9-1.46-3.82-3.38-3.8-.63,0-1.38,.14-1.77-.35-.28-.36-.2-.9,.06-1.27,.26-.37,.67-.6,1.07-.83-1.04-.4-2.3-.14-3.1,.63-.8,.78-1.09,2.03-.71,3.08-1.58-.53-3.44-.13-4.67,1-1.23,1.13-1.78,2.95-1.39,4.57-1.01,.55-1.78,1.52-2.09,2.63l18.75-.05c.59-1.07,.62-2.43,.07-3.53Z" style="fill:#fff;"></path></g><rect x="369.83" y="256.18" width="48.92" height="35.36" style="fill:#EE7376;"></rect><rect x="369.83" y="256.18" width="48.92" height="35.36" style="fill:#fff; opacity:.5;"></rect><path d="M369.83,275.28s4.73-.73,5.76,0c1.03,.73,2.2,.29,2.79,0,.59-.29,8.45-.37,10.58,.88,2.13,1.25,4.87,.04,4.86-.6s.36,1.25,3.81,1.15c3.45-.1,7.05-2.81,8.3-1.75,1.25,1.06,2.2,2.52,4.11,1.76s2.35-2.45,2.57-2.38,6.14,0,6.14,0v-2.13h-48.92v3.09Z" style="fill:#EE7376;"></path><path d="M369.83,264.95s4.73-.73,5.76,0c1.03,.73,2.2,.29,2.79,0,.59-.29,8.45-.37,10.58,.88,2.13,1.25,4.87,.04,4.86-.6s.36,1.25,3.81,1.15c3.45-.1,7.05-2.81,8.3-1.75,1.25,1.06,2.2,2.52,4.11,1.76s2.35-2.45,2.57-2.38c.22,.07,6.14,0,6.14,0v-2.13h-48.92v3.09Z" style="fill:#EE7376;"></path><path d="M369.83,284.49s4.73-.73,5.76,0c1.03,.73,2.2,.29,2.79,0,.59-.29,8.45-.37,10.58,.88,2.13,1.25,4.87,.04,4.86-.6-.01-.64,.36,1.25,3.81,1.15,3.45-.1,7.05-2.81,8.3-1.75,1.25,1.06,2.2,2.52,4.11,1.76s2.35-2.45,2.57-2.38c.22,.07,6.14,0,6.14,0v-2.13h-48.92v3.09Z" style="fill:#EE7376;"></path><path d="M369.83,256.18h48.92s.43,3.64-6.01,3.06c-6.44-.58-6.44-1.99-11.65-2.27-5.21-.28-8.77,4-17.27,4s-13.99-4.79-13.99-4.79Z" style="fill:#EE7376;"></path><path d="M369.83,256.18h48.92s.43,3.64-6.01,3.06c-6.44-.58-6.44-1.99-11.65-2.27-5.21-.28-8.77,4-17.27,4s-13.99-4.79-13.99-4.79Z" style="fill:#fff; opacity:.8;"></path><path d="M419.85,254.98c-.45-.32-1.02-.41-1.56-.49-2.82-.38-5.67-.37-8.52-.35-13.01,.06-26.02,.11-39.03,.17-1.05,0-2.25,.08-2.87,.92-.64,.86,.95,3.8,1.97,4.12,.78-.51,0-2.87,.46-2.92,.67-.07,1.17,.28,1.56,.83l36.71,.05c3.04-.56,6.19-1.12,9.2-.4,.48,.11,.96,.26,1.45,.23,.49-.03,1-.28,1.18-.73,.2-.51-.1-1.12-.55-1.43Z" style="fill:#EE7376;"></path><g style="opacity:.8;"><path d="M419.85,254.98c-.45-.32-1.02-.41-1.56-.49-2.82-.38-5.67-.37-8.52-.35-13.01,.06-26.02,.11-39.03,.17-1.05,0-2.25,.08-2.87,.92-.64,.86,.95,3.8,1.97,4.12,.78-.51,0-2.87,.46-2.92,.67-.07,1.17,.28,1.56,.83l36.71,.05c3.04-.56,6.19-1.12,9.2-.4,.48,.11,.96,.26,1.45,.23,.49-.03,1-.28,1.18-.73,.2-.51-.1-1.12-.55-1.43Z" style="fill:#fff;"></path></g><path d="M402.78,247.98s-1.65-.73-1.2-1.4c.38-.56,.71,.66,1.23,.7,0,0-.19-1.43,.4-1.64,0,0,.02,1.32,.63,1.68,0,0,.7-.99,1.99-.43,0,0-1.44,.51-1,.87,.44,.36,1.63-.96,1.94-.36,.31,.61-.95,.88-.95,.88,.42,.36,.9,.59,1.41,.66,0,0-.64,.84-2.03-.12-1.38-.96-2.41-.85-2.41-.85Z" style="fill:#EE7376;"></path><path d="M407.4,252.01c-.46,1.32-3.8,4.56-5.87,3.85-2.07-.71-2.07-5.11-1.62-6.43s2.5-1.81,4.57-1.09c2.07,.71,3.37,2.36,2.92,3.67Z" style="fill:#EE7376;"></path><path d="M400.4,249.47c-.06,.17-.17,.28-.26,.25-.09-.03-.11-.19-.05-.36,.06-.17,.18-.28,.26-.25,.09,.03,.11,.19,.05,.36Z" style="fill:#fff;"></path><path d="M401.95,250.01c-.06,.17-.18,.28-.26,.25-.09-.03-.11-.19-.05-.36,.06-.17,.17-.28,.26-.25,.09,.03,.11,.19,.05,.36Z" style="fill:#fff;"></path><path d="M403.5,250.54c-.06,.17-.17,.28-.26,.25-.09-.03-.11-.19-.05-.36,.06-.17,.18-.28,.26-.25,.09,.03,.11,.19,.05,.36Z" style="fill:#fff;"></path><path d="M405.04,251.08c-.06,.17-.18,.28-.26,.25-.09-.03-.11-.19-.05-.36,.06-.17,.17-.28,.26-.25,.09,.03,.11,.2,.05,.36Z" style="fill:#fff;"></path><path d="M406.59,251.61c-.06,.17-.18,.28-.26,.25-.09-.03-.11-.19-.05-.36,.06-.17,.17-.28,.26-.25,.09,.03,.11,.19,.05,.36Z" style="fill:#fff;"></path><path d="M400.54,251.07c-.06,.17-.18,.28-.26,.25s-.11-.19-.05-.36,.17-.28,.26-.25c.09,.03,.12,.19,.05,.36Z" style="fill:#fff;"></path><path d="M402.09,251.6c-.06,.17-.18,.28-.26,.25-.09-.03-.11-.19-.06-.36,.06-.17,.18-.28,.27-.25s.11,.19,.05,.36Z" style="fill:#fff;"></path><path d="M403.64,252.13c-.06,.17-.18,.28-.26,.25-.09-.03-.11-.19-.06-.36,.06-.17,.18-.28,.27-.25,.09,.03,.11,.19,.05,.36Z" style="fill:#fff;"></path><path d="M405.18,252.66c-.06,.17-.18,.28-.27,.25-.09-.03-.11-.19-.05-.36,.06-.17,.18-.28,.26-.25,.09,.03,.11,.19,.06,.36Z" style="fill:#fff;"></path><path d="M406.43,253.1c-.06,.17-.18,.28-.27,.25-.09-.03-.11-.19-.05-.36s.18-.28,.26-.25,.11,.19,.06,.36Z" style="fill:#fff;"></path><path d="M400.64,252.56c-.06,.17-.17,.28-.26,.25-.09-.03-.11-.19-.05-.36,.06-.17,.18-.28,.26-.25,.09,.03,.11,.19,.05,.36Z" style="fill:#fff;"></path><path d="M402.19,253.09c-.06,.17-.17,.28-.26,.25-.09-.03-.11-.19-.05-.36,.06-.17,.18-.28,.26-.25,.09,.03,.11,.19,.05,.36Z" style="fill:#fff;"></path><path d="M401.34,254.99c-.06,.17-.18,.28-.27,.25-.09-.03-.11-.19-.05-.36s.18-.28,.26-.25c.09,.03,.11,.19,.06,.36Z" style="fill:#fff;"></path><path d="M402.71,255.33c-.06,.17-.17,.28-.26,.25-.09-.03-.11-.19-.05-.36,.06-.17,.18-.28,.26-.25,.09,.03,.11,.19,.05,.36Z" style="fill:#fff;"></path><path d="M403.73,253.62c-.06,.17-.18,.28-.26,.25-.09-.03-.11-.19-.05-.36s.17-.28,.26-.25c.09,.03,.11,.19,.05,.36Z" style="fill:#fff;"></path><path d="M404.96,254.05c-.06,.17-.17,.28-.26,.25-.09-.03-.11-.19-.05-.36,.06-.17,.18-.28,.26-.25,.09,.03,.11,.19,.05,.36Z" style="fill:#fff;"></path><path d="M400.72,253.82c-.06,.17-.18,.28-.26,.25-.09-.03-.11-.19-.06-.36,.06-.17,.18-.28,.27-.25,.09,.03,.11,.19,.05,.36Z" style="fill:#fff;"></path><path d="M402.27,254.36c-.06,.17-.18,.28-.27,.25-.09-.03-.11-.19-.05-.36,.06-.17,.18-.28,.26-.25,.09,.03,.11,.19,.06,.36Z" style="fill:#fff;"></path><path d="M403.81,254.89c-.06,.17-.18,.28-.27,.25-.09-.03-.11-.19-.05-.36,.06-.17,.18-.28,.26-.25,.09,.03,.11,.19,.06,.36Z" style="fill:#fff;"></path><path d="M401.82,248.63c-.06,.17-.18,.28-.26,.25-.09-.03-.11-.19-.05-.36,.06-.17,.17-.28,.26-.25,.09,.03,.11,.19,.05,.36Z" style="fill:#fff;"></path><path d="M403.37,249.16c-.06,.17-.17,.28-.26,.25-.09-.03-.11-.19-.05-.36,.06-.17,.18-.28,.26-.25,.09,.03,.11,.19,.05,.36Z" style="fill:#fff;"></path><path d="M404.91,249.7c-.06,.17-.18,.28-.26,.25-.09-.03-.11-.19-.05-.36s.17-.28,.26-.25c.09,.03,.11,.19,.05,.36Z" style="fill:#fff;"></path><path d="M406.46,250.23c-.06,.17-.18,.28-.26,.25-.09-.03-.11-.19-.05-.36,.06-.17,.17-.28,.26-.25,.09,.03,.1,.19,.05,.36Z" style="fill:#fff;"></path><path d="M393.32,249.4s-1.65-.73-1.2-1.4c.38-.56,.71,.66,1.23,.7,0,0-.19-1.43,.4-1.64,0,0,.02,1.32,.63,1.68,0,0,.7-.99,1.99-.43,0,0-1.44,.51-1,.87,.44,.36,1.63-.96,1.94-.36,.31,.61-.95,.88-.95,.88,.42,.36,.9,.59,1.41,.66,0,0-.64,.84-2.03-.12-1.38-.96-2.41-.85-2.41-.85Z" style="fill:#EE7376;"></path><path d="M397.94,253.42c-.46,1.32-3.8,4.56-5.87,3.85-2.07-.71-2.07-5.11-1.62-6.43,.45-1.32,2.5-1.81,4.57-1.09,2.07,.71,3.37,2.36,2.92,3.67Z" style="fill:#EE7376;"></path><path d="M392.27,256.54c-1.41-.31-1.85-1.76-1.87-1.79,.25,1.17,.76,2.21,1.67,2.52,2.06,.71,5.41-2.53,5.87-3.85,.13-.4,.12-.84-.04-1.24,.25,1.22-4.2,4.67-5.63,4.35Z" style="isolation:isolate; opacity:.1;"></path><path d="M390.95,250.89c-.06,.17-.17,.28-.26,.25-.09-.03-.11-.19-.05-.36s.18-.28,.26-.25c.09,.03,.11,.19,.05,.36Z" style="fill:#fff;"></path><path d="M392.49,251.43c-.06,.17-.18,.28-.26,.25-.09-.03-.11-.19-.05-.36,.06-.17,.17-.28,.26-.25,.09,.03,.11,.19,.05,.36Z" style="fill:#fff;"></path><path d="M394.04,251.96c-.06,.17-.17,.28-.26,.25-.09-.03-.11-.19-.05-.36s.17-.28,.26-.25c.09,.03,.11,.19,.05,.36Z" style="fill:#fff;"></path><path d="M395.59,252.49c-.06,.17-.18,.28-.26,.25-.09-.03-.11-.19-.05-.36,.06-.17,.17-.28,.26-.25,.09,.03,.11,.2,.05,.36Z" style="fill:#fff;"></path><path d="M397.13,253.03c-.06,.17-.18,.28-.26,.25s-.11-.19-.05-.36c.06-.17,.17-.28,.26-.25,.09,.03,.11,.19,.05,.36Z" style="fill:#fff;"></path><path d="M391.08,252.48c-.06,.17-.18,.28-.26,.25-.09-.03-.11-.19-.05-.36,.06-.17,.17-.28,.26-.25,.09,.03,.12,.19,.05,.36Z" style="fill:#fff;"></path><path d="M392.63,253.02c-.06,.17-.18,.28-.26,.25-.09-.03-.11-.19-.06-.36,.06-.17,.18-.28,.27-.25,.09,.03,.11,.19,.05,.36Z" style="fill:#fff;"></path><path d="M394.18,253.55c-.06,.17-.18,.28-.26,.25-.09-.03-.11-.19-.06-.36,.06-.17,.18-.28,.27-.25,.09,.03,.11,.19,.05,.36Z" style="fill:#fff;"></path><path d="M395.73,254.08c-.06,.17-.18,.28-.27,.25-.09-.03-.11-.19-.05-.36,.06-.17,.18-.28,.26-.25,.09,.03,.11,.19,.06,.36Z" style="fill:#fff;"></path><path d="M396.98,254.51c-.06,.17-.18,.28-.27,.25-.09-.03-.11-.19-.05-.36,.06-.17,.18-.28,.26-.25,.09,.03,.11,.19,.06,.36Z" style="fill:#fff;"></path><path d="M391.18,253.98c-.06,.17-.17,.28-.26,.25-.09-.03-.11-.19-.05-.36,.06-.17,.18-.28,.26-.25,.09,.03,.11,.19,.05,.36Z" style="fill:#fff;"></path><path d="M392.73,254.51c-.06,.17-.17,.28-.26,.25-.09-.03-.11-.19-.05-.36,.06-.17,.18-.28,.26-.25,.09,.03,.11,.19,.05,.36Z" style="fill:#fff;"></path><path d="M391.88,256.41c-.06,.17-.18,.28-.27,.25-.09-.03-.11-.19-.05-.36,.06-.17,.18-.28,.26-.25s.11,.19,.06,.36Z" style="fill:#fff;"></path><path d="M393.25,256.75c-.06,.17-.17,.28-.26,.25s-.11-.19-.05-.36c.06-.17,.18-.28,.26-.25,.09,.03,.11,.19,.05,.36Z" style="fill:#fff;"></path><path d="M394.27,255.04c-.06,.17-.18,.28-.26,.25s-.11-.19-.05-.36c.06-.17,.17-.28,.26-.25,.09,.03,.11,.19,.05,.36Z" style="fill:#fff;"></path><path d="M395.5,255.47c-.06,.17-.17,.28-.26,.25-.09-.03-.11-.19-.05-.36,.06-.17,.18-.28,.26-.25,.09,.03,.11,.19,.05,.36Z" style="fill:#fff;"></path><path d="M391.26,255.24c-.06,.17-.18,.28-.26,.25-.09-.03-.11-.19-.06-.36,.06-.17,.18-.28,.27-.25,.09,.03,.11,.19,.05,.36Z" style="fill:#fff;"></path><path d="M392.81,255.77c-.06,.17-.18,.28-.27,.25-.09-.03-.11-.19-.05-.36,.06-.17,.18-.28,.26-.25,.09,.03,.11,.19,.06,.36Z" style="fill:#fff;"></path><path d="M394.35,256.31c-.06,.17-.18,.28-.27,.25-.09-.03-.11-.19-.05-.36s.18-.28,.26-.25c.09,.03,.11,.19,.06,.36Z" style="fill:#fff;"></path><path d="M392.36,250.05c-.06,.17-.18,.28-.26,.25-.09-.03-.11-.19-.05-.36,.06-.17,.17-.28,.26-.25,.09,.03,.11,.19,.05,.36Z" style="fill:#fff;"></path><path d="M393.91,250.58c-.06,.17-.17,.28-.26,.25-.09-.03-.11-.19-.05-.36,.06-.17,.18-.28,.26-.25,.09,.03,.11,.19,.05,.36Z" style="fill:#fff;"></path><path d="M395.46,251.11c-.06,.17-.18,.28-.26,.25-.09-.03-.11-.19-.05-.36,.06-.17,.17-.28,.26-.25,.09,.03,.11,.19,.05,.36Z" style="fill:#fff;"></path><path d="M397,251.65c-.06,.17-.18,.28-.26,.25s-.11-.19-.05-.36c.06-.17,.17-.28,.26-.25,.09,.03,.1,.19,.05,.36Z" style="fill:#fff;"></path><path d="M381.82,251.38s-1.29,1.25-1.74,.58c-.38-.57,.88-.41,1.1-.87,0,0-1.4-.36-1.37-.98,0,0,1.23,.47,1.8,.05,0,0-.65-1.02,.35-2.01,0,0-.07,1.53,.43,1.25,.5-.27-.28-1.87,.4-1.93,.68-.06,.46,1.21,.46,1.21,.49-.25,.88-.62,1.15-1.06,0,0,.54,.91-.87,1.83s-1.7,1.92-1.7,1.92Z" style="fill:#EE7376;"></path><path d="M387.29,248.61c1.05,.92,2.8,5.24,1.36,6.88-1.44,1.65-5.51,0-6.56-.91-1.05-.91-.74-2.99,.7-4.64,1.44-1.65,3.45-2.24,4.5-1.33Z" style="fill:#EE7376;"></path><path d="M387.29,248.61c1.05,.92,2.8,5.24,1.36,6.88-1.44,1.65-5.51,0-6.56-.91-1.05-.91-.74-2.99,.7-4.64,1.44-1.65,3.45-2.24,4.5-1.33Z" style="fill:#fff; isolation:isolate; opacity:.4;"></path><path d="M384.87,255.39s-2.84-.66-2.86-1.79c-.02-1.13,.99,.98,2.86,1.79Z" style="fill:#fff; isolation:isolate; opacity:.2;"></path><path d="M388.05,255.04c-.82,1.19-2.32,1.06-2.36,1.06,1.18,.21,2.33,.13,2.96-.6,1.43-1.64-.31-5.97-1.36-6.88-.32-.27-.73-.43-1.16-.43,1.22,.23,2.76,5.65,1.92,6.85Z" style="isolation:isolate; opacity:.1;"></path><path d="M382.31,254.15c.13,.12,.19,.27,.13,.34-.06,.07-.22,.03-.35-.09-.13-.12-.19-.27-.13-.34,.06-.07,.22-.03,.35,.08Z" style="fill:#fff;"></path><path d="M383.39,252.91c.13,.12,.19,.27,.13,.34-.06,.07-.22,.03-.35-.08-.13-.12-.19-.27-.13-.34,.06-.07,.22-.03,.35,.09Z" style="fill:#fff;"></path><path d="M384.47,251.68c.13,.12,.19,.27,.13,.34-.06,.07-.22,.03-.35-.09s-.19-.27-.13-.34c.06-.07,.22-.03,.35,.09Z" style="fill:#fff;"></path><path d="M385.54,250.45c.13,.12,.19,.27,.13,.34-.06,.07-.22,.03-.35-.09-.13-.12-.19-.27-.13-.34,.06-.07,.22-.03,.35,.09Z" style="fill:#fff;"></path><path d="M386.62,249.21c.13,.12,.19,.27,.13,.34-.06,.07-.22,.03-.35-.09-.13-.12-.19-.27-.13-.34,.06-.07,.22-.03,.35,.09Z" style="fill:#fff;"></path><path d="M383.84,254.62c.13,.12,.19,.27,.13,.34-.06,.07-.22,.03-.35-.08-.13-.12-.19-.27-.13-.34,.06-.07,.22-.04,.35,.09Z" style="fill:#fff;"></path><path d="M384.92,253.38c.13,.12,.19,.27,.13,.34-.06,.07-.22,.03-.35-.08-.13-.12-.19-.27-.13-.34,.06-.07,.22-.03,.35,.09Z" style="fill:#fff;"></path><path d="M385.99,252.15c.13,.12,.19,.27,.13,.34-.06,.07-.22,.03-.35-.08-.13-.12-.19-.27-.13-.34,.06-.07,.22-.03,.35,.09Z" style="fill:#fff;"></path><path d="M387.07,250.91c.13,.12,.19,.27,.13,.34-.06,.07-.22,.03-.35-.09-.13-.12-.19-.27-.13-.34,.06-.07,.22-.03,.35,.08Z" style="fill:#fff;"></path><path d="M387.94,249.92c.13,.12,.19,.27,.13,.34-.06,.07-.22,.03-.35-.09-.13-.12-.19-.27-.13-.34,.06-.07,.22-.03,.35,.08Z" style="fill:#fff;"></path><path d="M385.26,255.09c.13,.12,.19,.27,.13,.34-.06,.07-.22,.03-.35-.09-.13-.12-.19-.27-.13-.34,.06-.07,.22-.03,.35,.09Z" style="fill:#fff;"></path><path d="M386.34,253.85c.13,.12,.19,.27,.13,.34-.06,.07-.22,.03-.35-.09-.13-.12-.19-.27-.13-.34,.06-.07,.22-.03,.35,.08Z" style="fill:#fff;"></path><path d="M387.78,255.35c.13,.12,.19,.27,.13,.34-.06,.07-.22,.03-.35-.09-.13-.12-.19-.27-.13-.34,.06-.07,.22-.03,.35,.08Z" style="fill:#fff;"></path><path d="M388.61,254.21c.13,.12,.19,.27,.13,.34-.06,.07-.22,.03-.35-.09-.13-.12-.19-.27-.13-.34,.06-.07,.22-.03,.35,.09Z" style="fill:#fff;"></path><path d="M387.41,252.62c.13,.12,.19,.27,.13,.34-.06,.07-.22,.03-.35-.09-.13-.12-.19-.27-.13-.34,.06-.07,.22-.03,.35,.09Z" style="fill:#fff;"></path><path d="M388.26,251.64c.13,.12,.19,.27,.13,.34-.06,.07-.22,.03-.35-.08-.13-.12-.19-.27-.13-.34,.06-.07,.22-.03,.35,.09Z" style="fill:#fff;"></path><path d="M386.46,255.49c.13,.12,.19,.27,.13,.34-.06,.07-.22,.03-.35-.08-.13-.12-.19-.27-.13-.34,.06-.07,.22-.03,.35,.08Z" style="fill:#fff;"></path><path d="M387.54,254.25c.13,.12,.19,.27,.13,.34-.06,.07-.22,.03-.35-.08-.13-.12-.19-.27-.13-.34,.06-.07,.22-.03,.35,.08Z" style="fill:#fff;"></path><path d="M388.61,253.02c.13,.12,.19,.27,.13,.34-.06,.07-.22,.03-.35-.09-.13-.12-.19-.27-.13-.34s.22-.03,.35,.08Z" style="fill:#fff;"></path><path d="M382.06,252.52c.13,.12,.2,.27,.13,.34-.06,.07-.22,.03-.35-.09-.13-.12-.19-.27-.13-.34,.06-.07,.22-.03,.35,.08Z" style="fill:#fff;"></path><path d="M383.14,251.28c.13,.12,.19,.27,.13,.34-.06,.07-.22,.03-.35-.09-.13-.12-.19-.27-.13-.34,.06-.07,.22-.03,.35,.08Z" style="fill:#fff;"></path><path d="M384.21,250.05c.13,.12,.19,.27,.13,.34-.06,.07-.22,.03-.35-.08s-.19-.27-.13-.34c.06-.07,.22-.03,.35,.09Z" style="fill:#fff;"></path><path d="M385.29,248.82c.13,.12,.19,.27,.13,.34-.06,.07-.22,.03-.35-.08-.13-.12-.19-.27-.13-.34,.06-.07,.22-.02,.35,.09Z" style="fill:#fff;"></path><path d="M384.77,287.1c0,.53-.43,.97-.97,.97s-.97-.43-.97-.97,.43-.97,.97-.97,.97,.43,.97,.97Z" style="fill:#EE7376;"></path><path d="M414.72,267.73c0,.53-.43,.97-.97,.97s-.97-.43-.97-.97,.43-.97,.97-.97,.97,.43,.97,.97Z" style="fill:#EE7376;"></path><path d="M380.19,269.05c0,.53-.43,.97-.97,.97s-.97-.43-.97-.97,.43-.97,.97-.97,.97,.43,.97,.97Z" style="fill:#EE7376;"></path><path d="M405.29,277.15c0,.27-.22,.48-.48,.48s-.48-.22-.48-.48,.22-.48,.48-.48,.48,.22,.48,.48Z" style="fill:#EE7376;"></path><circle cx="393.56" cy="268.21" r=".48" style="fill:#EE7376;"></circle></g><rect x="359.05" y="281.13" width="70.04" height="27.04" style="fill:#EE7376;"></rect><rect x="359.05" y="281.13" width="70.04" height="27.04" style="fill:#fff; opacity:.5;"></rect><path d="M359.02,289.67s6.78-.73,8.25,0c1.47,.73,3.16,.29,4,0,.84-.29,12.11-.37,15.16,.88,3.05,1.25,6.98,.04,6.97-.6-.02-.64,.51,1.25,5.46,1.15,4.95-.1,10.11-2.81,11.9-1.75s3.16,2.52,5.9,1.76,3.37-2.45,3.68-2.38c.32,.07,8.8,0,8.8,0v-2.13h-70.11v3.09Z" style="fill:#EE7376;"></path><path d="M429.13,302.71s-6.78-.73-8.25,0c-1.47,.73-3.16,.29-4,0-.84-.29-12.11-.37-15.16,.88-3.05,1.25-6.98,.04-6.97-.6,.02-.64-.51,1.25-5.46,1.15-4.95-.1-10.11-2.81-11.9-1.75s-3.16,2.52-5.9,1.76-3.37-2.45-3.68-2.38c-.32,.07-8.8,0-8.8,0v-2.13h70.11v3.09Z" style="fill:#EE7376;"></path><path d="M429.48,280.42c.23,.8,.46,1.63,.3,2.44-.17,.81-.88,1.58-1.7,1.5-.78-.07-1.34-.82-2.1-.99-1.48-.33-2.6,1.59-4.11,1.65-1.77,.07-2.74-2.33-4.49-2.6-1.65-.25-2.87,1.45-3.7,2.9-.83,1.45-2.18,3.1-3.79,2.68-1.81-.47-2.14-3.12-3.81-3.96-1.85-.92-4.13,.87-6.07,.16-.89-.33-1.57-1.15-2.5-1.33-1.84-.36-3.32,1.9-5.2,1.81-1.59-.07-2.75-1.81-4.34-1.83-1.23-.01-2.23,1.01-3.44,1.25-1.79,.36-3.52-1.05-5.33-.91-3.12,.25-4.79,4.79-7.91,4.54-2.54-.2-4.14-3.62-6.68-3.35-1.64,.18-3.07,1.94-4.64,1.4-.81-.28-1.31-1.12-1.43-1.97-.12-.84,.3-2.58,.49-3.41h70.46Z" style="fill:#EE7376;"></path><g style="opacity:.8;"><path d="M429.48,280.42c.23,.8,.46,1.63,.3,2.44-.17,.81-.88,1.58-1.7,1.5-.78-.07-1.34-.82-2.1-.99-1.48-.33-2.6,1.59-4.11,1.65-1.77,.07-2.74-2.33-4.49-2.6-1.65-.25-2.87,1.45-3.7,2.9-.83,1.45-2.18,3.1-3.79,2.68-1.81-.47-2.14-3.12-3.81-3.96-1.85-.92-4.13,.87-6.07,.16-.89-.33-1.57-1.15-2.5-1.33-1.84-.36-3.32,1.9-5.2,1.81-1.59-.07-2.75-1.81-4.34-1.83-1.23-.01-2.23,1.01-3.44,1.25-1.79,.36-3.52-1.05-5.33-.91-3.12,.25-4.79,4.79-7.91,4.54-2.54-.2-4.14-3.62-6.68-3.35-1.64,.18-3.07,1.94-4.64,1.4-.81-.28-1.31-1.12-1.43-1.97-.12-.84,.3-2.58,.49-3.41h70.46Z" style="fill:#fff;"></path></g></g></g></g><g id="freepik--Cake_1--inject-54"><g><path d="M108.99,189.85c-.54-1.1-1.64-1.9-2.85-2.09,.25-1.9-1.46-3.82-3.38-3.8-.63,0-1.38,.14-1.77-.35-.28-.36-.2-.9,.06-1.27,.26-.37,.67-.6,1.07-.83-1.04-.4-2.3-.14-3.1,.63-.8,.78-1.09,2.03-.71,3.08-1.58-.53-3.44-.13-4.67,1-1.23,1.13-1.78,2.95-1.39,4.57-1.01,.55-1.78,1.52-2.09,2.63l18.75-.05c.59-1.07,.62-2.44,.07-3.53Z" style="fill:#EE7376;"></path><g><rect x="76.02" y="195.2" width="48.92" height="35.36" style="fill:#EE7376;"></rect><rect x="76.02" y="195.2" width="48.92" height="35.36" style="fill:#fff; opacity:.5;"></rect><g><g><path d="M93.64,234.48c0,.48,3.53,19.25-12.35,26.8v3.37h18.73v-30.89l-6.37,.72Z" style="fill:#263238;"></path><path d="M105.14,234.48c0,.48-3.53,19.25,12.35,26.8v3.37h-18.72v-30.89l6.37,.72Z" style="fill:#263238;"></path></g><g style="opacity:.3;"><path d="M93.64,234.48c0,.48,3.53,19.25-12.35,26.8v3.37h18.73v-30.89l-6.37,.72Z" style="fill:#fff;"></path><path d="M105.14,234.48c0,.48-3.53,19.25,12.35,26.8v3.37h-18.72v-30.89l6.37,.72Z" style="fill:#fff;"></path></g><rect x="69.59" y="230.56" width="61.78" height="6.38" style="fill:#263238;"></rect><rect x="69.59" y="230.56" width="61.78" height="6.38" style="fill:#fff; opacity:.3;"></rect></g></g><path d="M76.02,214.3s4.73-.73,5.76,0c1.03,.73,2.2,.29,2.79,0,.59-.29,8.45-.37,10.58,.88s4.87,.04,4.86-.6c-.01-.64,.36,1.25,3.81,1.15,3.45-.1,7.05-2.81,8.3-1.75,1.25,1.06,2.2,2.52,4.11,1.76,1.91-.77,2.35-2.45,2.57-2.38,.22,.07,6.14,0,6.14,0v-2.13h-48.92v3.09Z" style="fill:#EE7376;"></path><path d="M76.02,203.97s4.73-.73,5.76,0c1.03,.73,2.2,.29,2.79,0s8.45-.37,10.58,.88,4.87,.04,4.86-.6c-.01-.64,.36,1.25,3.81,1.15,3.45-.1,7.05-2.81,8.3-1.75,1.25,1.06,2.2,2.52,4.11,1.76,1.91-.77,2.35-2.45,2.57-2.38s6.14,0,6.14,0v-2.13h-48.92v3.09Z" style="fill:#EE7376;"></path><path d="M76.02,223.5s4.73-.73,5.76,0c1.03,.73,2.2,.29,2.79,0,.59-.29,8.45-.37,10.58,.88,2.13,1.25,4.87,.04,4.86-.6-.01-.64,.36,1.25,3.81,1.15,3.45-.1,7.05-2.81,8.3-1.75,1.25,1.06,2.2,2.52,4.11,1.76,1.91-.77,2.35-2.45,2.57-2.38,.22,.07,6.14,0,6.14,0v-2.13h-48.92v3.09Z" style="fill:#EE7376;"></path><path d="M76.02,195.2h48.92s.43,3.64-6.01,3.06c-6.44-.58-6.44-1.99-11.65-2.27s-8.77,4-17.27,4-13.99-4.79-13.99-4.79Z" style="fill:#EE7376;"></path><path d="M126.03,193.99c-.45-.32-1.02-.41-1.56-.49-2.82-.38-5.67-.37-8.52-.35-13.01,.06-26.02,.11-39.03,.17-1.05,0-2.25,.08-2.87,.92-.64,.86,.95,3.8,1.97,4.12,.78-.51,0-2.87,.46-2.92,.67-.07,1.17,.28,1.56,.83l36.71,.05c3.04-.56,6.19-1.12,9.2-.4,.48,.11,.96,.26,1.45,.23,.49-.03,1-.28,1.18-.73,.2-.51-.1-1.12-.55-1.43Z" style="fill:#EE7376;"></path><path d="M90.96,226.11c0,.53-.43,.97-.97,.97s-.97-.43-.97-.97,.43-.97,.97-.97,.97,.43,.97,.97Z" style="fill:#EE7376;"></path><path d="M120.91,206.75c0,.53-.43,.97-.97,.97s-.97-.43-.97-.97,.43-.97,.97-.97,.97,.43,.97,.97Z" style="fill:#EE7376;"></path><path d="M86.37,208.07c0,.53-.43,.97-.97,.97s-.97-.43-.97-.97,.43-.97,.97-.97,.97,.43,.97,.97Z" style="fill:#EE7376;"></path><path d="M111.48,216.17c0,.27-.22,.48-.48,.48s-.48-.22-.48-.48,.22-.48,.48-.48,.48,.22,.48,.48Z" style="fill:#EE7376;"></path><path d="M100.23,207.23c0,.27-.22,.48-.48,.48s-.48-.22-.48-.48,.22-.48,.48-.48,.48,.22,.48,.48Z" style="fill:#EE7376;"></path><polyline points="93.89 236.94 104.89 236.94 104.81 239.63 93.89 239.63 93.89 237.39" style="opacity:.3;"></polyline></g><g><g><path d="M102.92,151.37c-.94-1.13-2.67-1.48-4.02-.9-1.35,.58-2.28,1.98-2.39,3.45-.21,2.64,1.91,4.9,2.38,7.51l3.84-.15c.1-1.58,.22-2.93,.67-4.69,.45-1.76,.68-3.82-.48-5.22Z" style="fill:#263238;"></path><g style="opacity:.3;"><path d="M102.92,151.37c-.94-1.13-2.67-1.48-4.02-.9-1.35,.58-2.28,1.98-2.39,3.45-.21,2.64,1.91,4.9,2.38,7.51l3.84-.15c.1-1.58,.22-2.93,.67-4.69,.45-1.76,.68-3.82-.48-5.22Z" style="fill:#fff;"></path></g></g><path d="M131.87,231.06h-62.78v-40.61c0-16.45,13.38-29.82,29.82-29.82h3.13c16.45,0,29.82,13.38,29.82,29.82v40.61Zm-61.78-1h60.78v-39.61c0-15.89-12.93-28.82-28.82-28.82h-3.13c-15.89,0-28.82,12.93-28.82,28.82v39.61Z" style="fill:#263238;"></path><path d="M131.87,231.06h-62.78v-40.61c0-16.45,13.38-29.82,29.82-29.82h3.13c16.45,0,29.82,13.38,29.82,29.82v40.61Zm-61.78-1h60.78v-39.61c0-15.89-12.93-28.82-28.82-28.82h-3.13c-15.89,0-28.82,12.93-28.82,28.82v39.61Z" style="fill:#fff; opacity:.3;"></path></g></g><g id="freepik--Cupcakes--inject-54"><g><rect x="298.03" y="209.51" width="9.7" height="31.07" style="fill:#263238;"></rect><rect x="298.03" y="209.51" width="9.7" height="31.07" style="fill:#fff; opacity:.3;"></rect><g><g><g><path d="M297.12,239.13c0,.46,3.34,18.21-11.68,25.34v3.19h17.71v-29.21l-6.02,.68Z" style="fill:#263238;"></path><path d="M308,239.13c0,.46-3.34,18.21,11.68,25.34v3.19h-17.71v-29.21l6.02,.68Z" style="fill:#263238;"></path></g><g style="opacity:.3;"><path d="M297.12,239.13c0,.46,3.34,18.21-11.68,25.34v3.19h17.71v-29.21l-6.02,.68Z" style="fill:#fff;"></path><path d="M308,239.13c0,.46-3.34,18.21,11.68,25.34v3.19h-17.71v-29.21l6.02,.68Z" style="fill:#fff;"></path></g><rect x="274.38" y="235.43" width="58.42" height="6.04" style="fill:#263238;"></rect><rect x="274.38" y="235.43" width="58.42" height="6.04" style="fill:#fff; opacity:.3;"></rect></g><polyline points="297.36 241.47 307.76 241.47 307.68 244.01 297.36 244.01 297.36 241.89" style="opacity:.3;"></polyline></g><g><path d="M291.31,220.89c-.34-1.2-1.44-2.15-2.68-2.32,.43-1.13,.19-2.48-.59-3.4-.79-.92-2.09-1.36-3.27-1.11,.43,.75-.15,1.73-.92,2.12-.77,.39-1.67,.41-2.51,.6-.84,.19-1.73,.67-1.94,1.51-.11,.44,.21,1.35,.21,1.35-.83,.62-1.24,.81-1.74,1.34-1.1,1.15-.32,2.29,.08,2.9l12.76,.05c.96-.8,.95-1.84,.6-3.04Z" style="fill:#EE7376;"></path><g style="opacity:.5;"><path d="M291.31,220.89c-.34-1.2-1.44-2.15-2.68-2.32,.43-1.13,.19-2.48-.59-3.4-.79-.92-2.09-1.36-3.27-1.11,.43,.75-.15,1.73-.92,2.12-.77,.39-1.67,.41-2.51,.6-.84,.19-1.73,.67-1.94,1.51-.11,.44,.21,1.35,.21,1.35-.83,.62-1.24,.81-1.74,1.34-1.1,1.15-.32,2.29,.08,2.9l12.76,.05c.96-.8,.95-1.84,.6-3.04Z" style="fill:#fff;"></path></g><g><polygon points="278.67 235.43 276.09 223.08 292.85 223.08 290.06 235.43 278.67 235.43" style="fill:#EE7376;"></polygon><polygon points="278.3 223.08 279.98 235.43 281.58 235.43 280.68 223.08 278.3 223.08" style="opacity:.3;"></polygon><polygon points="282.94 223.08 283.45 235.43 285.05 235.43 285.63 223.08 282.94 223.08" style="opacity:.3;"></polygon><polygon points="288.01 223.08 286.8 235.43 288.4 235.43 290.7 223.08 288.01 223.08" style="opacity:.3;"></polygon></g></g><g><path d="M311.67,220.89c-.34-1.2-1.44-2.15-2.68-2.32,.43-1.13,.19-2.48-.59-3.4-.79-.92-2.09-1.36-3.27-1.11,.43,.75-.15,1.73-.92,2.12-.77,.39-1.67,.41-2.51,.6-.84,.19-1.73,.67-1.94,1.51-.11,.44,.21,1.35,.21,1.35-.83,.62-1.24,.81-1.74,1.34-1.1,1.15-.32,2.29,.08,2.9l12.76,.05c.96-.8,.95-1.84,.6-3.04Z" style="fill:#EE7376;"></path><g style="opacity:.5;"><path d="M311.67,220.89c-.34-1.2-1.44-2.15-2.68-2.32,.43-1.13,.19-2.48-.59-3.4-.79-.92-2.09-1.36-3.27-1.11,.43,.75-.15,1.73-.92,2.12-.77,.39-1.67,.41-2.51,.6-.84,.19-1.73,.67-1.94,1.51-.11,.44,.21,1.35,.21,1.35-.83,.62-1.24,.81-1.74,1.34-1.1,1.15-.32,2.29,.08,2.9l12.76,.05c.96-.8,.95-1.84,.6-3.04Z" style="fill:#fff;"></path></g><g><polygon points="299.03 235.43 296.45 223.08 313.21 223.08 310.42 235.43 299.03 235.43" style="fill:#EE7376;"></polygon><polygon points="298.66 223.08 300.34 235.43 301.94 235.43 301.04 223.08 298.66 223.08" style="opacity:.3;"></polygon><polygon points="303.3 223.08 303.81 235.43 305.41 235.43 305.99 223.08 303.3 223.08" style="opacity:.3;"></polygon><polygon points="308.37 223.08 307.16 235.43 308.76 235.43 311.06 223.08 308.37 223.08" style="opacity:.3;"></polygon></g></g><g><path d="M331.36,220.89c-.34-1.2-1.44-2.15-2.68-2.32,.43-1.13,.19-2.48-.59-3.4-.79-.92-2.09-1.36-3.27-1.11,.43,.75-.15,1.73-.92,2.12-.77,.39-1.67,.41-2.51,.6-.84,.19-1.73,.67-1.94,1.51-.11,.44,.21,1.35,.21,1.35-.83,.62-1.24,.81-1.74,1.34-1.1,1.15-.32,2.29,.08,2.9l12.76,.05c.96-.8,.95-1.84,.6-3.04Z" style="fill:#EE7376;"></path><g style="opacity:.5;"><path d="M331.36,220.89c-.34-1.2-1.44-2.15-2.68-2.32,.43-1.13,.19-2.48-.59-3.4-.79-.92-2.09-1.36-3.27-1.11,.43,.75-.15,1.73-.92,2.12-.77,.39-1.67,.41-2.51,.6-.84,.19-1.73,.67-1.94,1.51-.11,.44,.21,1.35,.21,1.35-.83,.62-1.24,.81-1.74,1.34-1.1,1.15-.32,2.29,.08,2.9l12.76,.05c.96-.8,.95-1.84,.6-3.04Z" style="fill:#fff;"></path></g><g><polygon points="318.72 235.43 316.14 223.08 332.9 223.08 330.11 235.43 318.72 235.43" style="fill:#EE7376;"></polygon><polygon points="318.35 223.08 320.03 235.43 321.63 235.43 320.73 223.08 318.35 223.08" style="opacity:.3;"></polygon><polygon points="323 223.08 323.5 235.43 325.1 235.43 325.69 223.08 323 223.08" style="opacity:.3;"></polygon><polygon points="328.07 223.08 326.86 235.43 328.46 235.43 330.76 223.08 328.07 223.08" style="opacity:.3;"></polygon></g></g><g><path d="M302.67,190.17c-.34-1.2-1.44-2.15-2.68-2.32,.43-1.13,.19-2.48-.59-3.4-.79-.92-2.09-1.36-3.27-1.11,.43,.75-.15,1.73-.92,2.12-.77,.39-1.67,.41-2.51,.6-.84,.19-1.73,.67-1.94,1.51-.11,.44,.21,1.35,.21,1.35-.83,.62-1.24,.81-1.74,1.34-1.1,1.15-.32,2.29,.08,2.9l12.76,.05c.96-.8,.95-1.84,.6-3.04Z" style="fill:#EE7376;"></path><g style="opacity:.5;"><path d="M302.67,190.17c-.34-1.2-1.44-2.15-2.68-2.32,.43-1.13,.19-2.48-.59-3.4-.79-.92-2.09-1.36-3.27-1.11,.43,.75-.15,1.73-.92,2.12-.77,.39-1.67,.41-2.51,.6-.84,.19-1.73,.67-1.94,1.51-.11,.44,.21,1.35,.21,1.35-.83,.62-1.24,.81-1.74,1.34-1.1,1.15-.32,2.29,.08,2.9l12.76,.05c.96-.8,.95-1.84,.6-3.04Z" style="fill:#fff;"></path></g><g><polygon points="290.03 204.72 287.44 192.37 304.21 192.37 301.42 204.72 290.03 204.72" style="fill:#EE7376;"></polygon><polygon points="289.66 192.37 291.34 204.72 292.94 204.72 292.04 192.37 289.66 192.37" style="opacity:.3;"></polygon><polygon points="294.3 192.37 294.81 204.72 296.41 204.72 296.99 192.37 294.3 192.37" style="opacity:.3;"></polygon><polygon points="299.37 192.37 298.16 204.72 299.76 204.72 302.06 192.37 299.37 192.37" style="opacity:.3;"></polygon></g></g><g><path d="M322.37,190.17c-.34-1.2-1.44-2.15-2.68-2.32,.43-1.13,.19-2.48-.59-3.4-.79-.92-2.09-1.36-3.27-1.11,.43,.75-.15,1.73-.92,2.12-.77,.39-1.67,.41-2.51,.6-.84,.19-1.73,.67-1.94,1.51-.11,.44,.21,1.35,.21,1.35-.83,.62-1.24,.81-1.74,1.34-1.1,1.15-.32,2.29,.08,2.9l12.76,.05c.96-.8,.95-1.84,.6-3.04Z" style="fill:#EE7376;"></path><g style="opacity:.5;"><path d="M322.37,190.17c-.34-1.2-1.44-2.15-2.68-2.32,.43-1.13,.19-2.48-.59-3.4-.79-.92-2.09-1.36-3.27-1.11,.43,.75-.15,1.73-.92,2.12-.77,.39-1.67,.41-2.51,.6-.84,.19-1.73,.67-1.94,1.51-.11,.44,.21,1.35,.21,1.35-.83,.62-1.24,.81-1.74,1.34-1.1,1.15-.32,2.29,.08,2.9l12.76,.05c.96-.8,.95-1.84,.6-3.04Z" style="fill:#fff;"></path></g><g><polygon points="309.73 204.72 307.15 192.37 323.91 192.37 321.12 204.72 309.73 204.72" style="fill:#EE7376;"></polygon><polygon points="309.36 192.37 311.04 204.72 312.64 204.72 311.74 192.37 309.36 192.37" style="opacity:.3;"></polygon><polygon points="314.01 192.37 314.51 204.72 316.11 204.72 316.7 192.37 314.01 192.37" style="opacity:.3;"></polygon><polygon points="319.08 192.37 317.87 204.72 319.47 204.72 321.77 192.37 319.08 192.37" style="opacity:.3;"></polygon></g></g><rect x="282.3" y="204.81" width="44.7" height="6.04" style="fill:#263238;"></rect><rect x="282.3" y="204.81" width="44.7" height="6.04" style="fill:#fff; opacity:.3;"></rect><rect x="298.03" y="210.85" width="9.7" height="2.32" style="opacity:.3;"></rect></g></g><g id="freepik--Character--inject-54"><g><g><path d="M158.2,205.15s-3.25,34.75-.09,38c3.16,3.25,10.89,.72,10.89,.72l2.66-26.86,2.94-13.49-16.4,1.64Z" style="fill:#ce7a63;"></path><g><g><g><polygon points="218.67 428.99 222.37 456.17 231.23 456.62 234.1 430.41 218.67 428.99" style="fill:#ce7a63;"></polygon><path d="M238.77,468.79h-19.81s-.43-.83,.06-3.05c.08-.35,.17-.72,.3-1.14,0-.02,.01-.04,.02-.06,.19-.61,.4-1.37,.62-2.18,.91-3.32,1.98-7.65,1.98-7.65,0,0,3.3-7.06,7.15-5.29,3.38,1.55,2.58,5.97,2.58,5.97,0,0,.33,2.6,2.9,4.89,1.59,1.42,3.16,2.51,3.92,4.27,.14,.33,.25,.68,.33,1.06,0,.05,.02,.09,.03,.14,.16,.85,.15,1.84-.08,3.05Z" style="fill:#263238;"></path><g style="opacity:.3;"><path d="M219.02,465.74c-.49,2.22-.06,3.05-.06,3.05h19.81c.23-1.2,.24-2.2,.08-3.05h-19.83Z" style="fill:#fff;"></path></g><path d="M230.88,456.49c-1.11-.87-2.58-.76-3.58,.22-.27,.26-.68-.15-.41-.41,1.25-1.22,3.04-1.29,4.41-.22,.3,.23-.12,.64-.41,.41h0Z" style="fill:#fff;"></path><path d="M231.44,458.34c-1.11-.87-2.58-.76-3.58,.22-.27,.26-.68-.15-.41-.41,1.25-1.22,3.04-1.29,4.41-.22,.3,.23-.12,.64-.41,.41h0Z" style="fill:#fff;"></path><path d="M232,460.05c-1.11-.87-2.58-.76-3.58,.22-.27,.26-.68-.15-.41-.41,1.25-1.22,3.04-1.29,4.41-.22,.3,.23-.12,.64-.41,.41h0Z" style="fill:#fff;"></path></g><g><polygon points="161.37 433.44 152.46 458.41 144.39 455.7 147.17 429.34 161.37 433.44" style="fill:#ce7a63;"></polygon><path d="M170.85,261.27s-16.48,73.08-17.97,87.93c-1.49,14.84-11.88,92.5-11.88,92.5l19.49,4.44s22.16-83.57,23.76-91.6c1.6-8.03,21.63-65.92,21.63-65.92l-2.57-22.23-32.46-5.11Z" style="fill:#EE7376;"></path><g style="opacity:.2;"><path d="M182.33,267.94c-2.33,7.95-8.56,14.34-16.24,16.66-.41,.13-.24,.8,.18,.67,7.91-2.39,14.31-8.96,16.71-17.15,.13-.43-.52-.61-.65-.19h0Z"></path></g><g style="opacity:.2;"><path d="M201.34,289.94c-8.6,17.94-13.55,37.45-19.63,56.4-6.31,19.65-11.35,39.72-15.88,59.89-2.55,11.36-4.93,22.75-7.29,34.15-.09,.44,.56,.63,.65,.19,4.17-20.18,8.43-40.36,13.53-60.31,5.02-19.66,11.25-38.95,17.28-58.3,3.37-10.79,7.05-21.49,11.92-31.65,.19-.4-.39-.75-.58-.35h0Z"></path></g><g style="opacity:.2;"><path d="M142.58,437.12c6.21,1.63,12.42,3.27,18.64,4.9,.42,.11,.6-.56,.18-.67-6.21-1.63-12.42-3.27-18.64-4.9-.42-.11-.6,.56-.18,.67h0Z"></path></g><g><path d="M153.33,468.92l-7.32-.06s-1.47-.83-2.34-.73c-.87,.1-3.89,.68-3.89,.68l-19.44-.15c.16-.85,.36-1.6,.58-2.26,.27-.81,.59-1.5,.93-2.08,1.22-2.03,2.87-2.75,4.66-2.85,2.72-.16,11.33-6.03,11.33-6.03,0,0,3.12-1.1,3.31-4.54,.07-1.29,1.92-2.85,2.79-2.97,1.78-.25,2.76,.92,3.01,2.77l.28,2.15,4.11-.63s4.19-2.15,3.98-.03c-.12,1.21-.87,6.6-1.34,10.87-.11,1-.21,1.94-.3,2.77h0c-.2,1.84-.34,3.1-.34,3.1Z" style="fill:#263238;"></path><g style="opacity:.3;"><path d="M120.34,468.66l19.44,.15s3.02-.57,3.89-.68c.87-.1,2.34,.73,2.34,.73l7.32,.06s.14-1.26,.34-3.1l-32.75,.57c-.22,.67-.42,1.42-.58,2.26Z" style="fill:#fff;"></path></g><path d="M132.99,458.05c.12-.12,.3-.13,.43-.03,.62,.44,1.14,1.05,1.5,1.82,.19,.4-.38,.79-.57,.38-.31-.68-.77-1.23-1.31-1.61-.18-.13-.21-.39-.05-.55h0Z" style="fill:#fff;"></path><path d="M135.01,456.84c.12-.12,.3-.13,.43-.03,.62,.44,1.14,1.05,1.5,1.82,.19,.4-.38,.79-.57,.38-.31-.68-.77-1.23-1.31-1.61-.18-.13-.21-.39-.05-.55h0Z" style="fill:#fff;"></path><path d="M137.09,455.71c.12-.12,.3-.13,.43-.03,.62,.44,1.14,1.05,1.5,1.82,.19,.4-.38,.79-.57,.38-.31-.68-.77-1.23-1.31-1.61-.18-.13-.21-.39-.05-.55h0Z" style="fill:#fff;"></path></g><path d="M239.95,322.9c2.32-20.48,.68-63.91,.68-63.91l-41.15-2.06s5.85,42.03,10.92,63.64l29.55,2.32Z" style="fill:#EE7376;"></path><g style="opacity:.2;"><path d="M205.62,267.93c-.45,6.96-.9,13.92-1.35,20.88-.02,.45-.69,.45-.67,0,.24-3.57,.46-7.15,.69-10.73-1.65,1.32-3.59-.28-4.13-2.05-.89-2.87-.55-6.28,.14-9.16,.11-.44,.76-.25,.65,.18-.49,2.02-.69,4.08-.55,6.16,.06,1.05,.16,2.27,.64,3.23,.53,1.08,1.87,1.99,2.94,1.01,.12-.1,.25-.11,.36-.06,.21-3.15,.41-6.32,.62-9.47,.02-.45,.69-.45,.67,0Z"></path></g><g style="opacity:.2;"><path d="M225.31,269.12c-.09,9.22,6.74,16.95,15.58,17.67,.42,.03,.42-.65,0-.69-8.48-.7-15.01-8.16-14.92-16.98,0-.44-.66-.44-.66,0h0Z"></path></g><path d="M218.27,447.94l18.34,.03c2.42-29.39,3.97-132.64,3.97-132.64l-34.71-19.16s4.22,44.87,5.88,59.76c0,0,3.02,71.3,6.52,92.01Z" style="fill:#EE7376;"></path><g style="opacity:.2;"><path d="M208.74,290.86c2.25,19.61,4.06,39.28,5.64,58.96,1.57,19.63,2.91,39.28,4.24,58.92,.75,11.14,1.5,22.29,2.29,33.43,.03,.45,.7,.45,.67,0-1.39-19.74-2.67-39.49-4.05-59.23-1.38-19.63-2.87-39.26-4.68-58.85-1.03-11.09-2.16-22.17-3.43-33.24-.05-.44-.72-.45-.67,0h0Z"></path></g><g style="opacity:.2;"><path d="M217.81,442.51c6.3,.01,12.6,.03,18.9,.04,.43,0,.43-.7,0-.7-6.3-.01-12.6-.03-18.9-.04-.43,0-.43,.7,0,.7h0Z"></path></g><g style="opacity:.2;"><path d="M229.65,359.08c2.75,1.06,5.71,1.07,8.47,.05,.4-.15,.23-.81-.18-.66-2.66,.99-5.47,.97-8.12-.05-.4-.15-.57,.51-.18,.66h0Z"></path></g></g><path d="M241.89,275.75c-.68-9.11-3.4-35.45-3.47-64.07,0-.8,.09-1.59,.16-2.37,.7-7.95,2.45-13.93,3.73-19.2,1.41-5.84,2.23-10.82,.37-16.63-1.52-4.76-4.01-7.27-7.09-8.83-.27-.14-.55-.27-.84-.39-3.97-1.74-8.81-2.16-13.84-3.77-2.31-.74-4.66-1.72-6.97-3.2-11.77-7.5-18.16,0-18.16,0,0,0-1.87,.41-4.49,1.09-1.06,.28-2.24,.59-3.48,.95-.25,.07-.5,.14-.76,.22-4.2,1.23-8.81,2.84-11.06,4.47-3.12,2.25-3.94,12.83-4.17,24.04,0,.28,0,.56-.01,.84-.02,.96-.03,1.93-.04,2.89-.01,1.46-.02,2.91-.03,4.34h0c0,.32,0,.63,0,.95,0,3.62,0,7.08-.05,10.12,0,.34,0,.67-.02,1-.03,1.76,.89,3.57,.8,4.95-.04,.6-.26,13.38-.31,13.89-.52,5.41-3.11,36.11-4.78,43.59,21.52,4.91,42.72,5.02,74.5,5.11Z" style="fill:#263238;"></path></g><path d="M178.72,189.87l-3.84,37.68-2.93,1.66-1.45,15.72-22.16,120.34,76.96,4.77c1.23-20.39,7.75-115.57,7.75-115.57l6.73-.6-.52-12.81s-10.04-10.79-9.86-13.05c.17-2.27-1.09-39.35-2.78-38.17s-47.92,.02-47.92,.02Z" style="fill:#EE7376;"></path><path d="M178.72,189.87l-3.84,37.68-2.93,1.66-1.45,15.72-22.16,120.34,76.96,4.77c1.23-20.39,7.75-115.57,7.75-115.57l6.73-.6-.52-12.81s-10.04-10.79-9.86-13.05c.17-2.27-1.09-39.35-2.78-38.17s-47.92,.02-47.92,.02Z" style="fill:#fff; opacity:.3;"></path></g><path d="M174.03,210.89l-18.2-5.35s8.33-36.83,20.15-41.52c11.82-4.69-1.95,46.87-1.95,46.87Z" style="fill:#263238;"></path><path d="M208.59,236.35l34.49-13.91-5.13-16.7,16.6-6.94s10.24,23.7,6.62,31.53c-3.61,7.83-48.3,15.2-48.3,15.2l-4.29-9.18Z" style="fill:#ce7a63;"></path><path d="M235.04,210.43l23.05-10.59s-15.51-35.56-24.23-35.65c-8.72-.09-2.59,32.77,1.18,46.25Z" style="fill:#263238;"></path><path d="M218.7,159.7s-.79,22.83-.69,34.73h3.87l3.39-32.63s-3.64-2.1-6.57-2.1Z" style="fill:#EE7376;"></path><path d="M182.58,192.48l-1.81-30.84s2.37-2.95,5.39-1.94c1.02,.34,1.1,32.75,1.1,32.75l-4.69,.03Z" style="fill:#EE7376;"></path><path d="M176.42,258.35s-4.58,23.39,16.83,25.09c21.41,1.7,24.5-25.09,24.5-25.09h-41.33Z" style="fill:#EE7376;"></path><g><path d="M211.11,160.14s-1.54-6.54,1.28-18.37c0-.01-.63-.26-.63-.27,.39-1.66,.81-3.19,1.21-4.52,0-.04,0-.05,0-.05l-15.49,10.65c.56,3.71-.43,10.99-1.08,14.08,0,0-1.75,5.61,5.6,5.5,5.37-.08,9.09-7.01,9.09-7.01Z" style="fill:#ce7a63;"></path><g><path d="M216.4,109.87s-4.77-10.89-18.07-6.37c-8.38,2.85-14.33,6.59-13.45,14.16,.59,5.03,5.45,8.78,8.54,8.57,3.09-.22,25.63-8.01,25.63-8.01,0,0,5.07-6.21-2.66-8.35Z" style="fill:#263238;"></path><g style="opacity:.2;"><path d="M205.82,150.26c-1.92,2.2-5.25,3.43-8.31,3.5,.04-.27,.04-.68,.07-.95,.05-.43,.05-1.08,.07-1.53,.02-.55,.03-1.15,0-1.72-.03-.23-.12-.19-.14-.42l-.05-.46,9.26-3.14c.75,.55,.65,2.94-.9,4.72Z"></path></g><path d="M218.36,127.53c2.22-9.95-6.42-19.1-16.74-16.71-10.47,2.43-14.22,17.12-13.5,26.49,.8,10.41,12.46,16.99,21.33,10.45,5.9-4.35,6.69-10.28,8.91-20.23h0Z" style="fill:#ce7a63;"></path><path d="M211.2,111.92s-8.87,8.25-17.53,3.99c-8.66-4.26,10.45-12.78,17.53-3.99Z" style="fill:#263238;"></path><path d="M209.43,131.06c1.62,1.87,3.02-.03,6.86-2.07,.53-.28,1.11-.5,1.91-.52-.9,3.33-1.77,6.09-2.47,8.07-.21,.59-.44,1.14-.68,1.64,2.98-3.57,6.39-7.82,7.47-9.75,.22-.39,.39-.77,.52-1.13-.06-.13-.12-.27-.18-.39-.27-.57-.62-1.08-1.02-1.56-.63-.75-1.4-1.41-2.25-1.97-2.76-1.83-5.87-2.64-8.51-3.07-.26,3.16-2.96,9.23-1.64,10.77Z" style="fill:#263238;"></path><path d="M208.76,114.4s2.4,1.97,2.37,4.37c-.03,2.4-.75,4.86-.75,4.86,0,0,7.29,2.27,9.09,1.77,1.8-.5,2.68-5.76,2.68-5.76,0,0-8.98-8.7-12.16-8.15-3.19,.55-1.23,2.91-1.23,2.91Z" style="fill:#263238;"></path><path d="M216.1,111.48s4.12-1.14,6.9,3.16c2.78,4.3,1.69,9.81,.04,12.66-1.65,2.85-11.84-6.2-6.94-15.82Z" style="fill:#263238;"></path></g><g><path d="M221.14,134.76c-1.08,2.63-3.28,4.5-5.45,5.36-3.27,1.28-4.14-2.25-3.55-5.53,.53-2.95,1.72-6.51,5.16-6.38,3.39,.12,5.07,3.55,3.84,6.56Z" style="fill:#ce7a63;"></path><path d="M203.96,129.73c-.09,1.04-.72,1.82-1.39,1.76-.68-.07-1.15-.96-1.06-2,.09-1.04,.72-1.82,1.39-1.76,.68,.07,1.15,.96,1.06,2Z" style="fill:#263238;"></path><path d="M193.91,129.05c-.09,1.04-.72,1.82-1.39,1.76-.68-.07-1.15-.96-1.06-2,.09-1.04,.72-1.82,1.39-1.76,.68,.07,1.15,.96,1.06,2Z" style="fill:#263238;"></path><path d="M196.9,127.81s-3.74,4.86-4.98,6.87c1.33,1.43,3.87,1.05,3.87,1.05l1.11-7.92Z" style="fill:#a24e3f;"></path><path d="M206.63,124.12c-.16,.05-.35,.01-.48-.11-1.56-1.45-3.19-1.12-3.36-1.09-.26,.06-.53-.1-.59-.36-.06-.26,.1-.52,.36-.59,.09-.02,2.29-.52,4.26,1.32,.2,.18,.21,.49,.03,.69-.06,.06-.13,.11-.21,.13Z" style="fill:#263238;"></path><path d="M213.92,134.62s-.03,0-.05,0c-.14-.03-.22-.16-.2-.29,.19-.94,.63-1.82,1.26-2.54,.43-.49,1.13-1.1,2.06-1.24,.9-.14,1.82,.26,2.22,.98,.07,.12,.02,.27-.1,.34-.12,.07-.27,.02-.34-.1-.29-.53-1.01-.84-1.7-.73-.78,.12-1.39,.65-1.76,1.08-.58,.65-.97,1.45-1.15,2.31-.02,.12-.13,.2-.24,.2Z" style="opacity:.2;"></path><path d="M189.37,123.32c-.09-.03-.17-.08-.23-.16-.17-.21-.14-.52,.06-.69,2.07-1.71,4.21-1.03,4.31-1.01,.26,.08,.4,.36,.32,.61-.08,.26-.35,.4-.6,.32-.09-.03-1.74-.53-3.4,.84-.13,.11-.3,.13-.45,.09Z" style="fill:#263238;"></path></g><g><path d="M203.24,137.89s-2.5,1.56-6.89,1.56c0,0,.8,3.01,3.61,2.76,3.4-.3,3.28-4.32,3.28-4.32Z" style="fill:#fff;"></path><path d="M200.07,136.58c-1.61,.05-3.18,.6-4.38,1.68-.46,.42-.85,.89-1.01,1.41-.51,1.63,5.28,.49,7.66-.42,2.38-.91,1.83-1.84,.49-2.39-.64-.26-1.76-.3-2.75-.27Z" style="fill:#263238;"></path></g><path d="M210.92,121.09s4.23,2.72,8.46,1.94c4.23-.78,5.32-1.71,5.32-1.71l-.31,2.3s-3.57,2.1-7.94,1.86c-4.37-.24-6.22-1.33-6.22-1.33l.68-3.06Z" style="fill:#fff; opacity:.3;"></path></g></g><g><path d="M187.33,230.8c-.39-2.54-1.61-4.92-3.41-6.75-.87-.88-1.88-1.64-2.97-2.21-.94-.49-2.17-1.04-3.21-.52-2.84,1.41,.65,4.65,1.88,5.76,2.26,2.06,4.79,3.81,7.5,5.23,.32,.17,.64,.11,.91-.12,2.29-1.94,4.64-3.95,6.15-6.6,.73-1.27,1.25-2.66,1.44-4.12,.13-1.02,.19-2.43-.99-2.86s-2.28,.82-3.02,1.57c-1,1.01-1.89,2.13-2.66,3.32-1.5,2.34-2.51,4.99-2.95,7.73-.15,.94,1.29,1.35,1.45,.4,.35-2.18,1.04-4.27,2.1-6.21,.53-.97,1.15-1.91,1.85-2.77,.64-.78,1.4-1.79,2.26-2.34,.7-.45,.56,.36,.5,.88-.07,.59-.22,1.18-.41,1.74-.37,1.12-.96,2.16-1.65,3.11-1.42,1.96-3.31,3.53-5.14,5.08l.91-.12c-2.06-1.08-4.03-2.34-5.83-3.82-.89-.73-1.74-1.5-2.55-2.31-.35-.35-2.14-2.25-.72-2.26,.84,0,1.84,.71,2.51,1.16,.85,.57,1.61,1.29,2.26,2.08,1.26,1.53,2.05,3.38,2.35,5.34,.14,.95,1.59,.55,1.45-.4h0Z" style="fill:#263238;"></path><g><polygon points="155.34 264.64 161.75 231.35 210.95 231.35 216.81 264.64 155.34 264.64" style="fill:#EE7376;"></polygon><polygon points="155.34 264.64 178.61 231.35 191.28 231.35 168.81 264.64 155.34 264.64" style="opacity:.4;"></polygon><polygon points="184.31 264.64 207.58 231.35 210.93 231.35 212.87 242.41 197.98 264.64 184.31 264.64" style="opacity:.4;"></polygon></g><polygon points="201.18 231.35 207.22 264.64 216.81 264.64 210.93 231.35 201.18 231.35" style="opacity:.3;"></polygon></g><g><path d="M211.43,236.2s-7.16,5.01-7.3,6.84c-.14,1.83,2.27,.79,2.27,.79,0,0-2.58,1.31-2.17,2.48,.49,1.4,3.01,.3,3.01,.3,0,0-2.06,1.15-1.63,2.17,.45,1.05,3.38,.01,3.38,.01,0,0-1.3,1.09-.6,1.62,.7,.54,6.96-1.56,8.35-3.39,1.38-1.84-1.59-9.78-2.6-11.38-1.01-1.6-.67-2.81-3.83-4.62l1.13,5.17h0Z" style="fill:#ce7a63;"></path><path d="M206.45,243.96h.01l4.39-2.5c.06-.03,.08-.12,.04-.18-.04-.07-.12-.1-.17-.06l-4.39,2.5c-.06,.03-.08,.12-.04,.18,.03,.06,.1,.09,.16,.07Z" style="opacity:.2;"></path><path d="M207.42,246.69h0l4.4-2.06c.06-.03,.08-.11,.05-.18-.03-.07-.09-.1-.17-.07l-4.4,2.06c-.06,.03-.08,.11-.05,.18,.03,.07,.11,.1,.17,.08Z" style="opacity:.2;"></path><path d="M209.19,248.86l3.32-1.44c.06-.03,.09-.11,.06-.18-.03-.07-.11-.11-.17-.08l-3.32,1.44c-.06,.03-.09,.11-.06,.18s.11,.11,.17,.08Z" style="opacity:.2;"></path></g><g><path d="M161.98,235.23s7.55,4.4,7.84,6.22c.29,1.82-2.19,.98-2.19,.98,0,0,2.68,1.09,2.37,2.29-.37,1.44-2.97,.55-2.97,.55,0,0,2.15,.98,1.8,2.03-.36,1.09-3.37,.29-3.37,.29,0,0,1.38,.98,.73,1.57-.65,.59-7.07-.97-8.6-2.69-1.53-1.72,.78-9.88,1.65-11.55,.87-1.68,.42-2.85,3.42-4.92l-.68,5.24h0Z" style="fill:#ce7a63;"></path><path d="M167.59,242.55h-.01l-4.58-2.13c-.06-.03-.09-.11-.06-.18,.03-.07,.11-.1,.17-.08l4.58,2.13c.06,.03,.09,.11,.06,.18-.03,.07-.1,.1-.16,.08Z" style="opacity:.2;"></path><path d="M166.85,245.35h0l-4.56-1.69c-.06-.02-.09-.1-.07-.17,.03-.07,.09-.1,.16-.09l4.56,1.69c.06,.02,.09,.1,.07,.17-.03,.07-.1,.11-.16,.09Z" style="opacity:.2;"></path><path d="M165.27,247.66l-3.42-1.16c-.06-.02-.1-.1-.07-.17,.02-.07,.1-.11,.16-.09l3.42,1.16c.06,.02,.1,.1,.07,.17s-.1,.11-.16,.09Z" style="opacity:.2;"></path></g></g></g><g id="freepik--Counter--inject-54"><g><rect x="90.96" y="298.02" width="215.98" height="87.94" style="fill:#EE7376;"></rect><rect x="90.96" y="298.02" width="215.98" height="87.94" style="fill:#fff; opacity:.5;"></rect><g><path d="M138.11,316.71c-.78-2.15-2.98-3.7-5.27-3.7-2.29,0-4.5,1.52-5.3,3.66-3.4-1.95-8.34-.26-9.84,3.36l30.72,.71c-1.7-3.71-6.55-5.6-10.32-4.03Z" style="fill:#EE7376;"></path><g style="opacity:.3;"><path d="M138.11,316.71c-.78-2.15-2.98-3.7-5.27-3.7-2.29,0-4.5,1.52-5.3,3.66-3.4-1.95-8.34-.26-9.84,3.36l30.72,.71c-1.7-3.71-6.55-5.6-10.32-4.03Z" style="fill:#fff;"></path></g><path d="M114.2,320.45h39c1.76,0,3.19,1.43,3.19,3.19v28.89h-45.59v-28.68c0-1.87,1.52-3.4,3.4-3.4Z" style="fill:#b97964;"></path><rect x="110.8" y="335.74" width="45.59" height="3.32" style="fill:#fff;"></rect><rect x="110.8" y="342.96" width="45.59" height="3.32" style="fill:#fff;"></rect><g style="opacity:.3;"><path d="M156.94,328.8c-.64,.5-1.8,.45-2.09,1.21-.29,.76-.58,1.55-1.18,2.1-.6,.54-1.62,.73-2.2,.17-.73-.69-.45-2.09-1.26-2.68-.64-.46-1.61-.08-2.04,.58s-.49,1.5-.55,2.29c-.1,1.37-.29,2.8-1.29,3.84-.49,.51-1.17,.83-1.88,.79-1.58-.09-2.27-1.73-2.35-3.16-.09-1.53,.25-3.12-.57-4.51-.45-.76-1.28-1.26-2.14-1.09-1.04,.21-1.4,1.21-1.8,2.07-.33,.72-.88,1.5-1.67,1.53-.76,.03-1.37-.64-1.7-1.33-.33-.69-.53-1.46-1.04-2.02-.69-.75-1.87-.94-2.82-.56-.95,.37-1.66,1.23-1.99,2.2-.29,.84-.32,1.75-.44,2.63-.12,.88-.35,1.8-.95,2.45-.6,.66-1.67,.96-2.41,.46-.59-.4-.81-1.15-.89-1.85-.08-.7-.07-1.44-.37-2.08-.29-.64-1.03-1.17-1.7-.93-.91,.33-.9,1.59-1.27,2.48-.87,2.08-3.67,1.75-4.2-.39-.15-.63-.1-1.41-.59-1.82-.49-.42-1.23-.24-1.64,.26-.5,.6-.51,1.4-.49,2.16,.02,.67,.04,1.38-.26,1.99-.51,1.01-1.98,1.37-2.9,.71v-11.67c0-1.4,1.13-2.53,2.53-2.53h41.53c1.4,0,2.53,1.12,2.56,2.51l.07,4.2Z"></path></g><path d="M156.94,326.62c-.64,.5-1.8,.45-2.09,1.21-.29,.76-.58,1.55-1.18,2.1-.6,.54-1.62,.73-2.2,.17-.73-.69-.45-2.09-1.26-2.68-.64-.46-1.61-.08-2.04,.58s-.49,1.5-.55,2.29c-.1,1.37-.29,2.8-1.29,3.84-.49,.51-1.17,.83-1.88,.79-1.58-.09-2.27-1.73-2.35-3.16-.09-1.53,.25-3.12-.57-4.51-.45-.76-1.28-1.26-2.14-1.09-1.04,.21-1.4,1.21-1.8,2.07-.33,.72-.88,1.5-1.67,1.53-.76,.03-1.37-.64-1.7-1.33-.33-.69-.53-1.46-1.04-2.02-.69-.75-1.87-.94-2.82-.56-.95,.37-1.66,1.23-1.99,2.2-.29,.84-.32,1.75-.44,2.63-.12,.88-.35,1.8-.95,2.45-.6,.66-1.67,.96-2.41,.46-.59-.4-.81-1.15-.89-1.85-.08-.7-.07-1.44-.37-2.08-.29-.64-1.03-1.17-1.7-.93-.91,.33-.9,1.59-1.27,2.48-.87,2.08-3.67,1.75-4.2-.39-.15-.63-.1-1.41-.59-1.82-.49-.42-1.23-.24-1.64,.26-.5,.6-.51,1.4-.49,2.16,.02,.67,.04,1.38-.26,1.99-.51,1.01-1.98,1.37-2.9,.71v-11.67c0-1.4,1.13-2.53,2.53-2.53h41.53c1.4,0,2.53,1.12,2.56,2.51l.07,4.2Z" style="fill:#EE7376;"></path><g><g><path d="M127.22,356.18c0,.45,3.29,17.94-11.51,24.97v3.14h17.45v-28.78l-5.94,.67Z" style="fill:#263238;"></path><path d="M137.94,356.18c0,.45-3.29,17.94,11.51,24.97v3.14h-17.45v-28.78l5.94,.67Z" style="fill:#263238;"></path></g><g style="opacity:.3;"><path d="M127.22,356.18c0,.45,3.29,17.94-11.51,24.97v3.14h17.45v-28.78l-5.94,.67Z" style="fill:#fff;"></path><path d="M137.94,356.18c0,.45-3.29,17.94,11.51,24.97v3.14h-17.45v-28.78l5.94,.67Z" style="fill:#fff;"></path></g><rect x="104.81" y="352.53" width="57.56" height="5.95" style="fill:#263238;"></rect><rect x="104.81" y="352.53" width="57.56" height="5.95" style="fill:#fff; opacity:.3;"></rect></g></g><g><path d="M273.97,316.71c-.78-2.15-2.98-3.7-5.27-3.7-2.29,0-4.5,1.52-5.3,3.66-3.4-1.95-8.34-.26-9.84,3.36l30.72,.71c-1.7-3.71-6.55-5.6-10.32-4.03Z" style="fill:#EE7376;"></path><g style="opacity:.3;"><path d="M273.97,316.71c-.78-2.15-2.98-3.7-5.27-3.7-2.29,0-4.5,1.52-5.3,3.66-3.4-1.95-8.34-.26-9.84,3.36l30.72,.71c-1.7-3.71-6.55-5.6-10.32-4.03Z" style="fill:#fff;"></path></g><path d="M250.06,320.45h39c1.76,0,3.19,1.43,3.19,3.19v28.89h-45.59v-28.68c0-1.87,1.52-3.4,3.4-3.4Z" style="fill:#b97964;"></path><rect x="246.67" y="335.74" width="45.59" height="3.32" style="fill:#fff;"></rect><rect x="246.67" y="342.96" width="45.59" height="3.32" style="fill:#fff;"></rect><g style="opacity:.3;"><path d="M292.8,328.8c-.64,.5-1.8,.45-2.09,1.21-.29,.76-.58,1.55-1.18,2.1s-1.62,.73-2.2,.17c-.73-.69-.45-2.09-1.26-2.68-.64-.46-1.61-.08-2.04,.58-.44,.66-.49,1.5-.55,2.29-.1,1.37-.29,2.8-1.29,3.84-.49,.51-1.17,.83-1.88,.79-1.58-.09-2.27-1.73-2.35-3.16-.09-1.53,.25-3.12-.57-4.51-.45-.76-1.28-1.26-2.14-1.09-1.04,.21-1.4,1.21-1.8,2.07-.33,.72-.88,1.5-1.67,1.53-.76,.03-1.37-.64-1.7-1.33-.33-.69-.53-1.46-1.04-2.02-.69-.75-1.87-.94-2.82-.56-.95,.37-1.66,1.23-1.99,2.2-.29,.84-.32,1.75-.44,2.63-.12,.88-.35,1.8-.95,2.45s-1.67,.96-2.41,.46c-.59-.4-.81-1.15-.89-1.85-.08-.7-.07-1.44-.37-2.08-.29-.64-1.03-1.17-1.7-.93-.91,.33-.9,1.59-1.27,2.48-.87,2.08-3.67,1.75-4.2-.39-.15-.63-.1-1.41-.59-1.82-.49-.42-1.23-.24-1.64,.26-.5,.6-.51,1.4-.5,2.16,.02,.67,.04,1.38-.26,1.99-.51,1.01-1.98,1.37-2.9,.71v-11.67c0-1.4,1.13-2.53,2.53-2.53h41.53c1.4,0,2.53,1.12,2.56,2.51l.07,4.2Z"></path></g><path d="M292.8,326.62c-.64,.5-1.8,.45-2.09,1.21-.29,.76-.58,1.55-1.18,2.1-.6,.54-1.62,.73-2.2,.17-.73-.69-.45-2.09-1.26-2.68-.64-.46-1.61-.08-2.04,.58-.44,.66-.49,1.5-.55,2.29-.1,1.37-.29,2.8-1.29,3.84-.49,.51-1.17,.83-1.88,.79-1.58-.09-2.27-1.73-2.35-3.16-.09-1.53,.25-3.12-.57-4.51-.45-.76-1.28-1.26-2.14-1.09-1.04,.21-1.4,1.21-1.8,2.07-.33,.72-.88,1.5-1.67,1.53-.76,.03-1.37-.64-1.7-1.33s-.53-1.46-1.04-2.02c-.69-.75-1.87-.94-2.82-.56-.95,.37-1.66,1.23-1.99,2.2-.29,.84-.32,1.75-.44,2.63-.12,.88-.35,1.8-.95,2.45-.6,.66-1.67,.96-2.41,.46-.59-.4-.81-1.15-.89-1.85-.08-.7-.07-1.44-.37-2.08-.29-.64-1.03-1.17-1.7-.93-.91,.33-.9,1.59-1.27,2.48-.87,2.08-3.67,1.75-4.2-.39-.15-.63-.1-1.41-.59-1.82-.49-.42-1.23-.24-1.64,.26-.5,.6-.51,1.4-.5,2.16,.02,.67,.04,1.38-.26,1.99-.51,1.01-1.98,1.37-2.9,.71v-11.67c0-1.4,1.13-2.53,2.53-2.53h41.53c1.4,0,2.53,1.12,2.56,2.51l.07,4.2Z" style="fill:#EE7376;"></path><g><g><path d="M263.08,356.18c0,.45,3.29,17.94-11.51,24.97v3.14h17.45v-28.78l-5.94,.67Z" style="fill:#263238;"></path><path d="M273.8,356.18c0,.45-3.29,17.94,11.51,24.97v3.14h-17.45v-28.78l5.94,.67Z" style="fill:#263238;"></path></g><g style="opacity:.3;"><path d="M263.08,356.18c0,.45,3.29,17.94-11.51,24.97v3.14h17.45v-28.78l-5.94,.67Z" style="fill:#fff;"></path><path d="M273.8,356.18c0,.45-3.29,17.94,11.51,24.97v3.14h-17.45v-28.78l5.94,.67Z" style="fill:#fff;"></path></g><rect x="240.68" y="352.53" width="57.56" height="5.95" style="fill:#263238;"></rect><rect x="240.68" y="352.53" width="57.56" height="5.95" style="fill:#fff; opacity:.3;"></rect></g></g><g><path d="M176.33,332.79h48.15c1.76,0,3.19,1.43,3.19,3.19v17.28h-54.73v-17.07c0-1.87,1.52-3.4,3.4-3.4Z" style="fill:#b97964;"></path><path d="M203.79,311.83c-.62-1.7-2.36-2.93-4.18-2.94-1.81,0-3.57,1.21-4.2,2.9-2.7-1.55-6.61-.21-7.8,2.66l24.35,.56c-1.35-2.94-5.19-4.44-8.18-3.19Z" style="fill:#EE7376;"></path><g style="opacity:.3;"><path d="M203.79,311.83c-.62-1.7-2.36-2.93-4.18-2.94-1.81,0-3.57,1.21-4.2,2.9-2.7-1.55-6.61-.21-7.8,2.66l24.35,.56c-1.35-2.94-5.19-4.44-8.18-3.19Z" style="fill:#263238;"></path></g><path d="M185.55,314.8h29.54c1.76,0,3.19,1.43,3.19,3.19v17.28h-36.13v-17.07c0-1.87,1.52-3.4,3.4-3.4Z" style="fill:#b97964;"></path><rect x="182.15" y="326.91" width="36.13" height="2.63" style="fill:#a24e3f;"></rect><rect x="172.93" y="339.05" width="54.73" height="2.63" style="fill:#a24e3f;"></rect><rect x="172.93" y="345.61" width="54.73" height="2.63" style="fill:#a24e3f;"></rect><g style="opacity:.3;"><path d="M218.72,321.41c-.51,.4-1.43,.36-1.65,.96-.23,.6-.46,1.23-.94,1.66-.48,.43-1.28,.58-1.75,.13-.58-.55-.35-1.66-1-2.12-.51-.37-1.27-.06-1.62,.46-.34,.52-.39,1.18-.43,1.81-.08,1.09-.23,2.22-1.02,3.05-.39,.4-.93,.66-1.49,.63-1.25-.07-1.8-1.37-1.86-2.51-.07-1.21,.2-2.47-.45-3.58-.35-.6-1.02-1-1.7-.87-.82,.16-1.11,.96-1.42,1.64-.26,.57-.69,1.19-1.33,1.21-.6,.03-1.08-.51-1.35-1.05-.26-.54-.42-1.16-.83-1.6-.55-.59-1.48-.74-2.24-.45-.75,.3-1.31,.98-1.58,1.74-.23,.67-.26,1.39-.35,2.08-.09,.7-.28,1.42-.75,1.94-.48,.52-1.32,.76-1.91,.36-.47-.31-.64-.91-.71-1.47-.06-.56-.06-1.14-.29-1.65s-.82-.92-1.34-.73c-.72,.26-.71,1.26-1,1.96-.69,1.65-2.91,1.39-3.33-.31-.12-.5-.08-1.11-.47-1.44-.39-.33-.97-.19-1.3,.2-.39,.47-.41,1.11-.39,1.71,.01,.53,.03,1.1-.21,1.57-.4,.8-1.57,1.09-2.3,.57v-9.25c0-1.11,.9-2,2-2h32.92c1.11,0,2.01,.89,2.03,1.99l.05,3.33Z"></path></g><path d="M218.72,319.69c-.51,.4-1.43,.36-1.65,.96-.23,.6-.46,1.23-.94,1.66s-1.28,.58-1.75,.13c-.58-.55-.35-1.66-1-2.12-.51-.37-1.27-.06-1.62,.46-.34,.52-.39,1.18-.43,1.81-.08,1.09-.23,2.22-1.02,3.05-.39,.4-.93,.66-1.49,.63-1.25-.07-1.8-1.37-1.86-2.51-.07-1.21,.2-2.47-.45-3.58-.35-.6-1.02-1-1.7-.87-.82,.16-1.11,.96-1.42,1.64-.26,.57-.69,1.19-1.33,1.21-.6,.03-1.08-.51-1.35-1.05-.26-.54-.42-1.16-.83-1.6-.55-.59-1.48-.74-2.24-.45-.75,.3-1.31,.98-1.58,1.74-.23,.67-.26,1.39-.35,2.08-.09,.7-.28,1.42-.75,1.94-.48,.52-1.32,.76-1.91,.36-.47-.31-.64-.91-.71-1.47s-.06-1.14-.29-1.65-.82-.92-1.34-.73c-.72,.26-.71,1.26-1,1.96-.69,1.65-2.91,1.39-3.33-.31-.12-.5-.08-1.11-.47-1.44-.39-.33-.97-.19-1.3,.2-.39,.47-.41,1.11-.39,1.71,.01,.53,.03,1.1-.21,1.57-.4,.8-1.57,1.09-2.3,.57v-9.25c0-1.11,.9-2,2-2h32.92c1.11,0,2.01,.89,2.03,1.99l.05,3.33Z" style="fill:#EE7376;"></path><g><g><path d="M194.28,356.18c0,.45,3.29,17.94-11.51,24.97v3.14h17.45v-28.78l-5.94,.67Z" style="fill:#263238;"></path><path d="M205,356.18c0,.45-3.29,17.94,11.51,24.97v3.14h-17.45v-28.78l5.94,.67Z" style="fill:#263238;"></path></g><g style="opacity:.3;"><path d="M194.28,356.18c0,.45,3.29,17.94-11.51,24.97v3.14h17.45v-28.78l-5.94,.67Z" style="fill:#fff;"></path><path d="M205,356.18c0,.45-3.29,17.94,11.51,24.97v3.14h-17.45v-28.78l5.94,.67Z" style="fill:#fff;"></path></g><rect x="171.87" y="352.53" width="57.56" height="5.95" style="fill:#263238;"></rect><rect x="171.87" y="352.53" width="57.56" height="5.95" style="fill:#fff; opacity:.3;"></rect></g><g style="opacity:.3;"><path d="M227.67,343.63c-1.17,.78-3.96,1.14-5.29,.67-1.6-.56-2.85-2.07-3.02-3.79-.06-.6-.31-1.19-.76-1.59-1.28-1.12-2.55,.31-3.27,1.23-.29,.37-.65,.68-1.09,.85-1.96,.77-2.47-1.99-4.04-2.04-1.59-.04-2.17,2.71-3.76,2.66-.94-.03-1.53-1.04-2.39-1.43-1.17-.53-2.55,.25-3.3,1.29-1.03,1.41-1.34,3.27-2.72,4.49-.35,.31-.77,.55-1.23,.65-1.69,.38-2.7-1.02-3.19-2.37-.46-1.29-.65-2.71-1.68-3.7-.41-.4-.96-.65-1.53-.64-1.19,.02-1.54,.97-2.08,1.71-.38,.52-1.01,.98-1.61,.76-.69-.25-.82-1.17-1.25-1.76-.75-1.03-2.4-.92-3.43-.16-1.02,.76-1.61,1.96-2.29,3.04-.9,1.43-2.2,2.84-4.14,2.32-.76-.2-1.41-.7-1.87-1.34-1.24-1.73-1.13-3.85-1.02-5.86v-1.59c0-1.51,1.21-2.73,2.7-2.73h50.06c1.5,0,2.29,1.3,2.2,2.81v6.5Z"></path></g><path d="M227.67,341.68c-1.18,.78-4,1.14-5.33,.67-1.61-.56-2.87-2.07-3.05-3.79-.06-.6-.31-1.19-.77-1.59-1.29-1.12-2.58,.31-3.3,1.23-.29,.37-.66,.68-1.1,.85-1.97,.77-2.5-1.99-4.08-2.04-1.61-.04-2.19,2.71-3.79,2.66-.95-.03-1.54-1.04-2.41-1.43-1.18-.53-2.57,.25-3.33,1.29-1.04,1.41-1.35,3.27-2.74,4.49-.35,.31-.78,.55-1.24,.65-1.7,.38-2.72-1.02-3.21-2.37-.47-1.29-.65-2.71-1.69-3.7-.42-.4-.97-.65-1.55-.64-1.2,.02-1.55,.97-2.1,1.71-.38,.52-1.02,.98-1.63,.76-.7-.25-.82-1.17-1.26-1.76-.76-1.03-2.42-.92-3.46-.16-1.03,.76-1.63,1.96-2.31,3.04-.9,1.43-2.22,2.84-4.17,2.32-.76-.2-1.43-.7-1.89-1.34-1.25-1.73-1.14-3.85-1.02-5.86v-1.59c0-1.51,1.22-2.73,2.73-2.73h50.5c1.51,0,2.72,1.28,2.62,2.79l-.41,6.52Z" style="fill:#EE7376;"></path></g><g><path d="M60.31,273.55v197.67H335.58v-197.67H60.31Zm241.93,114.65H93.66v-89.79h208.58v89.79Z" style="fill:#EE7376;"></path><path d="M60.31,273.55v197.67H335.58v-197.67H60.31Zm241.93,114.65H93.66v-89.79h208.58v89.79Z" style="opacity:.3;"></path><rect x="93.66" y="380.37" width="209.58" height="7.82" style="fill:#263238;"></rect></g><rect x="45.87" y="264.72" width="299.63" height="11.54" style="fill:#263238;"></rect><rect x="335.58" y="345.61" width="110.9" height="125.6" style="fill:#EE7376;"></rect><rect x="335.58" y="345.61" width="110.9" height="125.6" style="opacity:.3;"></rect><rect x="336.1" y="336.49" width="118.01" height="9.68" style="fill:#263238;"></rect></g></g><g id="freepik--Plant--inject-54"><g><g><g><path d="M393.71,450.33c-.01-.47-1.6-47.25-9.21-54.65-7.4-7.19-15.89-.27-16.25,.03l-.76-.91c.1-.08,9.68-7.91,17.84,.03,7.95,7.73,9.51,53.52,9.57,55.46l-1.19,.04Z" style="fill:#263238;"></path><path d="M394.37,459.52c-.05-.56-5.2-56.16,15.1-79.46l.9,.78c-19.97,22.92-14.87,78.01-14.82,78.56l-1.18,.12Z" style="fill:#263238;"></path><path d="M393.62,453.64l-1.19-.08c.04-.63,3.97-63.21-10.92-76.91l.81-.88c15.31,14.08,11.47,75.26,11.3,77.86Z" style="fill:#263238;"></path><path d="M395.55,453.61h-1.19c.01-1.73,.49-42.28,12.01-48.88,2.56-1.47,5.07-1.71,7.45-.73,6.96,2.88,10.41,15.27,10.56,15.8l-1.15,.31c-.03-.12-3.44-12.36-9.87-15.01-2.03-.84-4.18-.62-6.4,.66-10.93,6.26-11.41,47.43-11.41,47.84Z" style="fill:#263238;"></path><path d="M391.07,453.63l-1.19-.07c.02-.32,1.74-32.04-6.82-43.22-2.07-2.71-4.33-4-6.7-3.83-5.61,.39-10.31,8.6-10.36,8.68l-1.04-.59c.2-.36,5.06-8.85,11.31-9.28,2.8-.2,5.4,1.25,7.73,4.3,8.83,11.53,7.14,42.69,7.07,44.01Z" style="fill:#263238;"></path><path d="M392.95,457.95c-.23-3.08-5.6-75.5,3.84-88.27l.96,.71c-9.18,12.41-3.67,86.72-3.61,87.47l-1.19,.09Z" style="fill:#263238;"></path></g><path d="M418.1,408s-6.02,2.23-3.98,7.01c5.76,13.49,19.49,14.93,19.49,14.93,0,0,6.44-10.2,1.16-18.12-7.28-10.92-16.52-7.35-16.67-3.82Z" style="fill:#EE7376;"></path><path d="M391.78,401.96s6.03-.25,6.37,4.94c.34,5.2-13.06,19.57-13.06,19.57,0,0-9.56-3.46-7.51-16.42,2.05-12.96,12.7-11.28,14.2-8.09Z" style="fill:#EE7376;"></path><path d="M394.7,371.69s-2.53-.31-3.48-2.59c-2.84-6.8,6.92-14.12,19.97-10.25,0,0,.35,11.48-6.68,16.01-7.02,4.53-9.81-3.17-9.81-3.17Z" style="fill:#EE7376;"></path><path d="M372.34,407.3s2.1-2.88-1.07-3.16c-3.17-.28-16.91,5.88-13.3,19.97,0,0,17.67-5.76,18.29-11.67,.61-5.9-3.91-5.14-3.91-5.14Z" style="fill:#EE7376;"></path><path d="M410.02,376.73s.79-2.62,3.79-3.71c2.99-1.09,14.11-.41,14.27,14.14,0,0-17.11,2.84-19.22-2.7-2.12-5.54,1.17-7.73,1.17-7.73Z" style="fill:#EE7376;"></path><path d="M400.79,388.82s1.15-1.99,3.35-.93c2.2,1.07,8.68,7.73,2.5,15.78,0,0-11.48-6.9-10.54-11.75,.86-4.47,4.7-3.11,4.7-3.11Z" style="fill:#EE7376;"></path><path d="M372.66,392.33s1.66-2.17-.77-2.44c-2.43-.27-13.31,2.64-10.78,13.5,0,0,13.26-1,13.83-5.51,.57-4.51-2.28-5.55-2.28-5.55Z" style="fill:#EE7376;"></path><polygon points="410.37 469.39 377.96 469.39 374.47 435.86 413.86 435.86 410.37 469.39" style="fill:#263238;"></polygon><rect x="369.02" y="431.27" width="50.29" height="9.19" style="fill:#263238;"></rect></g><path d="M383.91,422.19c-.25,0-.46-.18-.49-.43-.96-6.84,2.27-14.94,8.03-20.16,.2-.18,.52-.17,.71,.04,.18,.21,.17,.52-.04,.71-5.53,5.01-8.63,12.76-7.71,19.28,.04,.27-.15,.53-.43,.56-.02,0-.05,0-.07,0Z" style="opacity:.3;"></path><path d="M406.19,399.78c-.23,0-.44-.16-.49-.4-.73-3.68-2.6-7.16-5.27-9.81-.2-.19-.2-.51,0-.71s.51-.2,.71,0c2.8,2.78,4.77,6.45,5.54,10.32,.05,.27-.12,.53-.39,.59-.03,0-.07,0-.1,0Z" style="opacity:.3;"></path><path d="M431.33,421.44c-.18,0-.36-.1-.45-.28-2.62-5.38-7.72-10.37-12.99-12.7-.25-.11-.37-.41-.25-.66s.41-.37,.66-.25c5.47,2.43,10.76,7.6,13.48,13.18,.12,.25,.02,.55-.23,.67-.07,.03-.14,.05-.22,.05Z" style="opacity:.3;"></path><path d="M424.88,383.84c-.17,0-.33-.08-.42-.23-1.52-2.41-3.82-4.29-6.47-5.3-2.83-1.08-5.2-1.84-7.83-1.09-.27,.08-.54-.08-.62-.34-.08-.27,.08-.54,.34-.62,2.91-.84,5.56,.01,8.46,1.12,2.86,1.09,5.33,3.12,6.96,5.7,.15,.23,.08,.54-.16,.69-.08,.05-.17,.08-.27,.08Z" style="opacity:.3;"></path><path d="M386.03,379.18s4.01,.48,4.25-1.98c.23-2.46-13.27-12.02-24.35-4.12,0,0,3.41,10.97,11.52,12.97,8.11,2,8.58-6.87,8.58-6.87Z" style="fill:#EE7376;"></path><path d="M385.9,379.88c-.15,0-.3-.07-.4-.2-3.98-5.35-14.07-7.32-17.54-6.07-.26,.09-.55-.04-.64-.3-.09-.26,.04-.55,.3-.64,3.65-1.33,14.3,.52,18.68,6.41,.17,.22,.12,.54-.1,.7-.09,.07-.19,.1-.3,.1Z" style="opacity:.3;"></path><path d="M363.74,399.65c-.09,0-.18-.02-.26-.07-.24-.14-.31-.45-.17-.69,2.32-3.8,6.81-5.92,9.29-6.83,.26-.1,.55,.04,.64,.29,.1,.26-.04,.55-.29,.64-2.35,.87-6.62,2.87-8.78,6.42-.09,.16-.26,.24-.43,.24Z" style="opacity:.3;"></path><path d="M359.85,419.26c-.08,0-.16-.02-.23-.06-.24-.13-.34-.43-.21-.67,2.77-5.3,7.32-9.51,12.83-11.85,.25-.11,.55,0,.66,.26,.11,.25,0,.55-.26,.66-5.21,2.22-9.71,6.37-12.33,11.4-.09,.17-.26,.27-.44,.27Z" style="opacity:.3;"></path><path d="M395.23,371.91c-.07,0-.14-.01-.21-.05-.25-.12-.36-.42-.24-.67,2.2-4.7,6.46-8.44,11.41-10,.27-.08,.54,.06,.63,.33,.08,.26-.06,.54-.33,.63-4.68,1.49-8.72,5.03-10.8,9.48-.08,.18-.27,.29-.45,.29Z" style="opacity:.3;"></path><polygon points="375.14 440.46 375.77 446.48 412.95 446.48 413.58 440.45 375.14 440.46" style="opacity:.3;"></polygon></g></g></svg>
