<?xml version="1.0" encoding="utf-8"?>
<!-- Generator: Adobe Illustrator 20.1.0, SVG Export Plug-In . SVG Version: 6.00 Build 0)  -->
<svg version="1.1" id="Layer_1" xmlns="http://www.w3.org/2000/svg" xmlns:xlink="http://www.w3.org/1999/xlink" x="0px" y="0px"
	 viewBox="0 0 509.3 509.3" style="enable-background:new 0 0 509.3 509.3;" xml:space="preserve">
<style type="text/css">
	.st0{fill:#ffffff;}
</style>
<path class="st0" d="M394.9,108.6c0,13.1,0.2,26.1-0.1,39.2c-0.1,4.6,1.3,6.6,5.6,8.5c9.2,4,18.3,8.6,26.8,13.9
	c10.3,6.5,15.2,15.9,14.9,28.9c-0.7,29.3-0.3,58.7-0.4,88c0,2.7,0.9,4,3.3,5.3c11.2,6.2,22.7,12,32,21.2c21.5,21.5,21.2,47.4-1,68.2
	c-13.8,13-30.6,21.1-48.1,27.7c-31.6,11.9-64.5,18.2-97.9,22.2c-36.8,4.4-73.7,5.6-110.7,3.4c-46.5-2.7-92.5-9.1-136.5-25.4
	c-18.5-6.9-36.3-15.3-50.5-29.5c-13-12.9-19.2-28.1-12.9-46.3c3.2-9.5,9-17.3,17.4-23.1c7.4-5.1,14.8-10.3,22.2-15.5
	c0.2-0.2,0.5-0.4,0.8-0.4c8.1-1.3,8.2-6.8,8.2-13.5c-0.3-27.6,0.4-55.2-0.2-82.8c-0.3-12.7,4.6-22.1,14.8-28.6
	c8.7-5.5,18.1-10.1,27.6-14.3c3.9-1.7,4.9-3.5,4.9-7.3c0-25.5,0.4-51.1,0-76.6c-0.2-11.2,4.5-18.7,13.5-24.3
	c10.1-6.3,21.1-10.1,32.5-13.1C201.1,24,242,22.3,283.2,24.6c23.3,1.3,46.5,4.1,68.9,11.1c10.1,3.2,20,7.5,29.5,12.4
	C391.1,53,396,61,395.3,72.5c-0.7,12-0.2,24.1-0.2,36.1C395.1,108.6,395,108.6,394.9,108.6z M92.6,219.1c0,13.3,0,25.8,0,38.2
	c0,0.6,0.1,1.2,0.3,1.7c4.7,14.7,13.4,26.1,27.8,32.2c14.2,6,27.9,0.5,33.8-12.8c4-9.1,14.3-10.8,20.8-3.2c1.9,2.3,3.2,5.2,4.3,8.1
	c4.1,10.1,10.6,17.9,20.7,22.3c17.2,7.5,34.9,0.1,41.9-17.3c1.5-3.8,3.4-7.2,7.4-8.7c7.2-2.8,14.2,0.2,17.2,7.6
	c2.5,6.1,5.8,11.5,11.1,15.5c11.9,9,29,7.5,41.2-3.5c5.7-5.2,9.3-11.6,11.8-18.8c2.1-6.2,7.1-9.7,13.2-10c6.2-0.3,9.1,3.3,11.3,8.4
	c2.2,5,5,10,10.3,12c6.7,2.6,13.5,4,20.9,1.2c15.9-6.2,26.6-17.7,29.8-33.8c2.4-12.2,0.5-25.3,0.5-38.5c-2,0.9-3.7,1.7-5.4,2.5
	c-29,13.5-60,19-91.4,22.6c-32.1,3.8-64.4,4.5-96.7,2.7c-23.3-1.3-46.5-3.8-69.4-8.3C133.1,235.1,112.6,229.5,92.6,219.1z
	 M442.1,318.3c-0.5,0.7-0.8,1-0.9,1.4c-0.1,0.6-0.2,1.2-0.1,1.7c2.7,11.7-2.2,20.5-10.7,27.8c-9.3,8.1-20.4,13.1-31.9,17.3
	c-33.3,12-67.9,17.4-103,19c-26,1.3-52.2,1-78.3,0.1c-28.3-0.9-56.3-5.1-83.8-12.4c-18-4.7-35.7-10.5-51.1-21.6
	c-9.9-7.1-15.8-16.2-14.7-28.9c0.1-1.2-0.1-2.5-0.2-4.4c-8.4,4.7-15.2,10.3-21,17.1c-6,7.1-6.3,14.7-0.6,22.1
	c3.4,4.5,7.7,8.5,12.2,11.8c11,8.3,23.6,13.6,36.4,18.3c41.5,14.9,84.7,20.7,128.5,22.8c48.5,2.4,96.8-0.1,144.5-9.6
	c24.9-5,49.3-11.8,72-23.7c9.5-5,18.6-10.7,25-19.7c4-5.5,5.3-11.7,1.9-17.8C460.7,330,451.3,324.3,442.1,318.3z M93.4,298.4
	c-0.3,0.2-0.6,0.5-1,0.7c0,7.7,0.2,15.5-0.1,23.2c-0.2,4.1,1.2,6.8,4.5,9.2c9,6.7,19.3,10.6,29.9,14c29.8,9.5,60.6,13.7,91.6,15.6
	c43.6,2.7,87.1,1.2,130.1-6.9c20.9-4,41.6-8.7,60.2-19.7c3.1-1.9,7.5-4.8,7.8-7.6c1-9.2,0.4-18.5,0.4-29c-3.8,3.3-6.6,6.3-9.9,8.6
	c-8.4,5.7-17.1,10.3-27.5,11.6c-11.7,1.5-22.3,0.1-32.1-6.7c-5.4-3.8-5.4-3.8-9.8,1.3c-0.2,0.2-0.4,0.4-0.6,0.7
	c-14.6,18-41.6,25.3-62,16.2c-7.3-3.3-13.9-8.3-20.9-12.7c-22.2,23.5-61.6,23.5-87.2-8.9c-11.2,8.9-23.6,12.4-38,9.9
	C114.7,315.5,103.6,308,93.4,298.4z M139.8,91c0,12.2-0.1,24.8,0.1,37.4c0,1.2,1.6,3,2.8,3.5c11.4,4,21.5-0.4,26.4-11.5
	c1.9-4.4,5-7.1,9.6-6.9c4.7,0.1,8,2.7,10.1,7.2c2.2,4.9,5,9.5,8,14c6.2,9.5,15.7,11.7,26.1,11c10.9-0.8,17.4-7.7,21.7-16.9
	c2.1-4.6,4.6-7.6,9.9-7.7c5.6-0.1,8.4,3,10.4,7.7c3.3,7.8,8.9,13.4,17.1,15.9c13.4,4.2,29.6-2.5,36.1-18.6c0.8-1.9,1.9-3.6,2.6-5.6
	c2-5.1,6-7,11.1-7.1c4.8,0,6.9,3.4,8.8,7.4c4.8,10.5,15,14.7,26,11.3c2.1-0.7,3.5-1.5,3.5-4.2c-0.1-11.9,0-23.8,0-35.6
	c0-0.6-0.3-1.3-0.2-1C293,114,216.7,113.9,139.8,91z M140.3,152.3c-1.8,5.9-0.1,10.1,5,12.8c3.1,1.7,6.1,3.6,9.3,4.9
	c15.5,6.7,31.8,10.1,48.4,12.3c41.3,5.5,82.5,5.1,123.4-3.4c13.5-2.8,26.8-6.3,38.6-14.1c5.2-3.5,6-6,4.2-12.5
	c-14.4,4.7-27.7,3.2-39.7-7.2c-9.5,11.6-21,19.3-36.1,21.4c-15.5,2.2-27.8-4.1-38.9-14.5c-10.8,10.9-23.4,16.5-38.8,14.6
	c-15.1-1.9-26.2-10.4-36-21.5C168,155.8,154.7,157.3,140.3,152.3z"/>
</svg>
