<?xml version="1.0" encoding="UTF-8"?>
<svg version="1.1" xmlns="http://www.w3.org/2000/svg" width="103" height="16">
<path d="M0 0 C33.99 0 67.98 0 103 0 C103 1.65 103 3.3 103 5 C102.05382812 5.21914062 101.10765625 5.43828125 100.1328125 5.6640625 C91.60607484 7.69133009 83.30998286 10.10281344 75.02978516 12.98095703 C74.31483887 13.2282959 73.59989258 13.47563477 72.86328125 13.73046875 C72.23719971 13.95114014 71.61111816 14.17181152 70.96606445 14.39916992 C54.00304906 19.58307417 32.40379104 17.09257195 16.14257812 10.82568359 C13.99961206 9.9998505 11.84310225 9.23631365 9.671875 8.48828125 C6.43169066 7.36761304 3.21124839 6.20155983 0 5 C0 3.35 0 1.7 0 0 Z " fill="#ee7376" transform="translate(0,0)"/>
</svg>
