<?xml version="1.0" encoding="UTF-8"?>
<svg version="1.1" xmlns="http://www.w3.org/2000/svg" width="1024" height="1024">
<path d="M0 0 C0.76618652 -0.00277451 1.53237305 -0.00554901 2.32177734 -0.00840759 C4.80064067 -0.01254966 7.27899982 0.00001038 9.7578125 0.015625 C10.60506897 0.01839447 11.45232544 0.02116394 12.32525635 0.02401733 C69.18969812 0.24216393 117.47661244 15.19137264 158.8828125 55.265625 C159.62917969 55.97203125 160.37554688 56.6784375 161.14453125 57.40625 C166.54585339 62.62717435 171.29867083 68.32277715 175.8828125 74.265625 C176.36379395 74.88663086 176.84477539 75.50763672 177.34033203 76.14746094 C202.37301284 108.79191049 217.68243519 146.67924267 227.8828125 186.265625 C228.1519043 187.30944336 228.42099609 188.35326172 228.69824219 189.42871094 C235.47712748 216.51847687 238.46291982 244.58986444 241.8828125 272.265625 C242.55183594 272.50152344 243.22085938 272.73742187 243.91015625 272.98046875 C247.65711085 274.60037422 250.99777934 276.65370453 254.4453125 278.828125 C255.15276611 279.27357666 255.86021973 279.71902832 256.58911133 280.17797852 C279.36411218 294.68800335 301.2985197 313.9604799 317.8828125 335.265625 C318.46675781 335.98621094 319.05070313 336.70679688 319.65234375 337.44921875 C330.34988383 351.5038323 336.82716659 369.22038449 340.8828125 386.265625 C341.08148926 387.08216553 341.28016602 387.89870605 341.48486328 388.73999023 C343.36263197 397.50481412 342.97520374 406.27155777 342.69091797 415.17260742 C342.63026665 417.21015748 342.59494584 419.24698907 342.5625 421.28515625 C342.51198486 423.08110229 342.51198486 423.08110229 342.46044922 424.91333008 C343.23559582 431.06566416 347.08835313 434.74744166 351.6328125 438.640625 C359.89021713 445.89456758 367.19143868 453.5309466 373.8828125 462.265625 C374.57165527 463.16450439 374.57165527 463.16450439 375.27441406 464.08154297 C393.78422895 488.55288018 405.37434325 515.42002962 406.8828125 546.265625 C403.8828125 547.265625 403.8828125 547.265625 402.11206055 546.46459961 C401.46277588 546.03671143 400.81349121 545.60882324 400.14453125 545.16796875 C399.41395508 544.69883057 398.68337891 544.22969238 397.93066406 543.74633789 C397.15174805 543.23707764 396.37283203 542.72781738 395.5703125 542.203125 C367.44961861 524.45762914 335.16924437 520.12474275 302.8828125 527.265625 C273.30650666 534.02843789 244.22188562 549.50838982 220.22265625 567.80859375 C219.41884521 568.41251953 218.61503418 569.01644531 217.78686523 569.63867188 C216.22119855 570.82035511 214.66899045 572.02015456 213.13305664 573.24023438 C207.79620211 577.27625705 207.79620211 577.27625705 203.19140625 577.22265625 C201.55365234 576.74892578 201.55365234 576.74892578 199.8828125 576.265625 C198.95597656 576.0284375 198.02914062 575.79125 197.07421875 575.546875 C195.32400728 575.02675272 193.57400641 574.50592125 191.82421875 573.984375 C184.68318146 572.23942034 177.54724196 572.08407611 170.234375 572.02734375 C169.22297455 572.019272 168.2115741 572.01120026 167.16952515 572.00288391 C165.03311847 571.98910853 162.89669039 571.97835738 160.76025391 571.97045898 C158.60979603 571.95899805 156.45936527 571.93864103 154.30908203 571.90893555 C140.58154134 571.71983059 128.1123071 572.48983986 114.8828125 576.265625 C113.93325684 576.53221924 112.98370117 576.79881348 112.00537109 577.07348633 C109.72646768 577.76075635 107.49468852 578.51531554 105.2578125 579.328125 C104.44989258 579.61703613 103.64197266 579.90594727 102.80957031 580.20361328 C88.74785531 585.3841048 75.01853651 591.75560911 61.9453125 599.078125 C60.97307739 599.61735596 60.97307739 599.61735596 59.98120117 600.16748047 C56.39582142 602.21423932 53.49480837 604.51068271 50.4453125 607.265625 C48.38671875 608.6875 48.38671875 608.6875 45.8828125 609.265625 C40.6581911 607.88408818 35.99273212 605.66756794 31.14111328 603.3203125 C-5.92414455 586.00983533 -55.88583792 587.84974977 -93.66796875 601.25390625 C-99.04635836 603.21262822 -104.37522846 605.27636749 -109.62890625 607.55078125 C-113.42699425 608.64191171 -116.09338115 607.789703 -119.57055664 606.00976562 C-120.42254639 605.48576172 -121.27453613 604.96175781 -122.15234375 604.421875 C-123.11591797 603.83937988 -124.07949219 603.25688477 -125.07226562 602.65673828 C-126.09771484 602.0326709 -127.12316406 601.40860352 -128.1796875 600.765625 C-166.09363697 578.25350419 -208.54903105 566.24236194 -252.7421875 572.578125 C-253.56307861 572.69575195 -254.38396973 572.81337891 -255.22973633 572.93457031 C-259.25786052 573.5851937 -262.98066845 574.5059449 -266.828125 575.87109375 C-270.43499594 577.10940823 -273.27108452 577.88185144 -277.1171875 577.265625 C-279.40029295 575.9288845 -281.30713165 574.63380765 -283.3671875 573.015625 C-284.60221934 572.09244121 -285.83930073 571.17199469 -287.078125 570.25390625 C-287.73135742 569.76615723 -288.38458984 569.2784082 -289.05761719 568.77587891 C-300.51918728 560.37127096 -312.57290152 552.92791628 -325.1171875 546.265625 C-325.75833496 545.92047852 -326.39948242 545.57533203 -327.06005859 545.21972656 C-358.28751846 528.51174125 -398.14672855 518.04730363 -433.19140625 528.0078125 C-434.50241197 528.41947939 -435.81103942 528.83879621 -437.1171875 529.265625 C-437.7973291 529.47993164 -438.4774707 529.69423828 -439.17822266 529.91503906 C-453.13961741 534.41069324 -465.19222266 541.40871769 -476.69140625 550.48046875 C-479.1171875 552.265625 -479.1171875 552.265625 -482.1171875 553.265625 C-484.06138552 551.66089013 -485.02286294 550.7464953 -485.515625 548.234375 C-485.17313244 512.15849158 -469.1519364 480.7982588 -445.26171875 454.62890625 C-443.38267637 452.5581947 -441.55704344 450.45484163 -439.7421875 448.328125 C-435.95165312 443.94142676 -431.76433536 439.97142785 -427.5703125 435.9765625 C-422.8707777 430.78312754 -421.75411727 426.5054781 -421.4921875 419.578125 C-421.19854343 412.5096928 -421.19854343 412.5096928 -420.1171875 409.265625 C-415.84047882 410.59782595 -411.93004778 412.23928602 -407.92578125 414.2421875 C-406.74395264 414.82693848 -405.56212402 415.41168945 -404.34448242 416.01416016 C-403.7260849 416.32089661 -403.10768738 416.62763306 -402.47055054 416.94366455 C-371.31422519 432.34341248 -343.16223045 439.64113697 -308.28930664 439.63623047 C-304.82062686 439.6406049 -301.35322201 439.67706047 -297.88476562 439.71484375 C-279.80414078 439.80753145 -263.23007641 437.54403002 -246.1171875 431.578125 C-245.11719727 431.23491211 -244.11720703 430.89169922 -243.08691406 430.53808594 C-217.05929237 421.39993903 -193.66403153 408.09013489 -173.37109375 389.328125 C-171.3770106 387.5033834 -169.32995249 385.7929217 -167.2421875 384.078125 C-132.92437062 353.96389613 -110.41198431 303.80507973 -107.29370117 258.78051758 C-106.96710037 252.27696058 -106.91954758 245.77564369 -106.9296875 239.265625 C-106.93029175 238.54429382 -106.930896 237.82296265 -106.93151855 237.07977295 C-106.9979652 207.72413318 -111.82789026 182.4718413 -123.6015625 155.55078125 C-124.01059814 154.61347168 -124.41963379 153.67616211 -124.84106445 152.71044922 C-125.62724335 150.92426849 -126.42458636 149.14294322 -127.23510742 147.36767578 C-129.51504681 142.24352089 -130.71098385 137.86865629 -131.1171875 132.265625 C-121.58617385 130.21294459 -112.21201418 128.64320169 -102.4921875 127.765625 C-101.20602539 127.64380859 -99.91986328 127.52199219 -98.59472656 127.39648438 C-90.3269388 126.63377875 -82.05146238 126.04373614 -73.765625 125.515625 C-72.7838327 125.45266235 -71.80204041 125.38969971 -70.79049683 125.3248291 C-65.9331937 125.01578619 -61.07559735 124.71942762 -56.21630859 124.44335938 C-47.36052274 123.91873145 -38.59325504 123.20450879 -29.8203125 121.859375 C-28.69976471 121.69133362 -28.69976471 121.69133362 -27.55657959 121.51989746 C-20.2245539 120.3103763 -12.44521086 118.75035493 -7.1171875 113.265625 C-0.76425368 102.6017718 -2.29301768 89.57868237 -5.14697266 77.98925781 C-9.7207869 60.97058979 -17.8431465 44.84277 -25.00732422 28.81079102 C-27.24882334 23.67052962 -28.80783054 19.98809588 -28.1171875 14.265625 C-25.46895337 8.50109675 -20.78187841 4.88235938 -15.1171875 2.265625 C-10.00549031 0.55522149 -5.35201763 -0.02955688 0 0 Z M163.17578125 285.48828125 C162.06111732 285.68891426 162.06111732 285.68891426 160.92393494 285.89360046 C153.31308599 287.30475387 145.81682689 289.13231316 138.30654907 290.99575806 C96.32359539 301.3502836 53.75817706 306.76542035 10.57421875 308.7578125 C9.19815712 308.82151535 9.19815712 308.82151535 7.79429626 308.88650513 C3.22190926 309.09612788 -1.35059981 309.29650638 -5.92407227 309.48095703 C-14.3291012 309.83359867 -22.69205265 310.3190123 -31.05859375 311.21484375 C-31.79255371 311.29109985 -32.52651367 311.36735596 -33.28271484 311.44592285 C-39.94807853 312.21368353 -45.80863492 313.37993428 -50.1171875 318.765625 C-52.23101669 324.05019798 -53.29356508 329.01134684 -51.28125 334.578125 C-48.91120991 339.41364304 -46.52963979 342.54525245 -41.44580078 344.54663086 C13.40064564 361.48129061 132.94286801 339.70902108 183.40625 314.0390625 C186.99989907 311.46569235 188.59214225 309.01750245 189.31640625 304.65234375 C189.32551887 298.35552205 188.72492568 293.40950679 184.8828125 288.265625 C178.7126891 282.80065856 170.65985538 284.11964971 163.17578125 285.48828125 Z M-367.9296875 454.140625 C-371.54105587 459.29972267 -372.67438809 462.91353824 -372.1171875 469.265625 C-369.71304804 476.95887126 -362.0947477 481.34735086 -355.3046875 485.00390625 C-353.58225522 485.87541846 -351.85272656 486.73301514 -350.1171875 487.578125 C-349.18165039 488.03960937 -348.24611328 488.50109375 -347.28222656 488.9765625 C-322.73281332 502.05333241 -322.73281332 502.05333241 -296.1171875 506.265625 C-290.89007267 504.10268093 -287.79401059 501.56293578 -285 496.61328125 C-282.87874192 490.97223654 -283.17946157 485.42647171 -285.5546875 479.953125 C-292.14629528 473.03997537 -300.58308341 469.53464006 -309.3046875 466.015625 C-311.6078625 465.06644669 -313.90992774 464.11457158 -316.2109375 463.16015625 C-317.36207031 462.68271973 -318.51320313 462.2052832 -319.69921875 461.71337891 C-325.86534005 459.1015861 -331.93743985 456.28376323 -337.9987793 453.43847656 C-347.97536685 448.80981625 -359.32845943 444.32510591 -367.9296875 454.140625 Z M252.32592773 457.3112793 C235.67833996 465.36665095 218.41557679 471.44648169 200.97668457 477.53460693 C196.61675248 479.05675777 192.25929455 480.58572612 187.90649414 482.12817383 C185.85124428 482.85617574 183.79335046 483.57678221 181.73217773 484.2878418 C168.9482548 488.78863259 168.9482548 488.78863259 159.8828125 498.265625 C159.00700194 503.43447123 159.08596514 508.44339814 161.4453125 513.203125 C165.00671998 517.67771389 167.86610789 519.68113848 173.3828125 520.75 C200.34761486 522.6145874 232.71128441 504.66295253 256.8828125 494.265625 C258.15390869 493.72591064 258.15390869 493.72591064 259.45068359 493.17529297 C277.70796001 486.02829154 277.70796001 486.02829154 292.8828125 474.265625 C294.76175704 468.62879137 294.63002192 462.50725326 292.7578125 456.890625 C290.098548 453.1676547 287.02194135 450.33518943 282.8828125 448.265625 C271.75331332 447.17092016 262.12551557 452.55968567 252.32592773 457.3112793 Z M40.05981445 508.48120117 C15.59546619 510.72444771 -8.74146618 511.47120776 -33.3046875 511.453125 C-34.57745544 511.45318542 -35.85022339 511.45324585 -37.16156006 511.45330811 C-66.91379417 511.43336848 -96.57271695 510.43174479 -126.21875 507.89086914 C-132.22446752 507.38629917 -138.21605926 506.97339275 -144.2421875 506.828125 C-144.94754639 506.79380371 -145.65290527 506.75948242 -146.37963867 506.72412109 C-151.87546226 506.67705054 -155.23078099 508.61508579 -159.1171875 512.265625 C-162.31685605 516.29134801 -163.8145258 519.91839711 -163.49609375 525.21875 C-162.54246699 530.37030076 -160.26194658 534.67913884 -156.2421875 538.078125 C-146.90833321 543.78982872 -133.87702326 543.93098942 -123.2421875 544.828125 C-122.54233734 544.88843903 -121.84248718 544.94875305 -121.12142944 545.01089478 C-61.18343871 550.14271216 -1.13415002 549.54383114 58.6953125 543.265625 C59.82297531 543.14930725 59.82297531 543.14930725 60.97341919 543.03063965 C76.66243321 542.27689156 76.66243321 542.27689156 90.0078125 535.640625 C93.15038413 529.98399606 94.68796181 525.04483048 93.0078125 518.640625 C91.02159989 513.5637587 87.41521126 510.18863072 82.8828125 507.265625 C70.09473543 503.19953846 53.12456617 507.27442539 40.05981445 508.48120117 Z " fill="#ffffff" transform="translate(578.1171875,22.734375)"/>
<path d="M0 0 C4.48894909 3.59814158 8.82973084 7.36774077 13.15332031 11.16162109 C15.89165804 13.61120399 15.89165804 13.61120399 18.94628906 15.56005859 C23.02569212 15.20921617 26.25278662 13.55619159 29.88378906 11.74755859 C56.34643787 -0.67915825 88.28952051 -0.64089757 115.75341797 8.74316406 C137.70080754 16.79259568 158.42794546 28.3090575 177.0612793 42.35864258 C177.77227783 42.89046143 178.48327637 43.42228027 179.21582031 43.97021484 C180.15325073 44.68383179 180.15325073 44.68383179 181.10961914 45.41186523 C183.11363061 46.66467208 184.59996898 47.2740789 186.94628906 47.56005859 C189.31066814 46.33731109 191.42258654 45.080034 193.63378906 43.62255859 C215.77459523 29.79201092 239.94522237 22.1163603 266.19628906 22.24755859 C267.37433105 22.25247314 268.55237305 22.2573877 269.76611328 22.26245117 C279.11835084 22.38741255 287.88691572 23.26643205 296.94628906 25.56005859 C297.62771973 25.72634766 298.30915039 25.89263672 299.01123047 26.06396484 C316.42753931 30.41502049 332.62686152 37.67337053 346.94628906 48.56005859 C349.76538942 47.23085356 352.21460888 45.73374571 354.71191406 43.87255859 C355.42879395 43.34364014 356.14567383 42.81472168 356.88427734 42.26977539 C358.02872314 41.42346558 358.02872314 41.42346558 359.19628906 40.56005859 C393.45910001 15.58094001 433.1673946 -2.07399209 476.58300781 4.28271484 C486.5570246 6.01720606 496.98655346 8.37394031 505.38769531 14.27490234 C508.76677272 15.97217939 510.36525667 15.6665836 513.94628906 14.56005859 C516.49571985 12.93691598 516.49571985 12.93691598 518.88378906 10.74755859 C519.83640625 9.93544922 520.78902344 9.12333984 521.77050781 8.28662109 C522.28145996 7.84608398 522.79241211 7.40554688 523.31884766 6.95166016 C533.34465186 -1.62125973 543.76574589 -9.44021665 554.94628906 -16.43994141 C555.93967285 -17.06231689 555.93967285 -17.06231689 556.953125 -17.69726562 C580.00956219 -31.99621487 603.46450936 -42.57834027 630.94628906 -42.68994141 C632.18507813 -42.71056641 633.42386719 -42.73119141 634.70019531 -42.75244141 C659.99401831 -42.85794223 678.21791085 -32.39584126 695.94628906 -15.43994141 C696.94628906 -14.43994141 696.94628906 -14.43994141 697.265625 -12.07202148 C696.79824722 -6.75613521 694.8182789 -2.25205368 692.83691406 2.67333984 C692.40319489 3.77416901 691.96947571 4.87499817 691.52261353 6.00918579 C690.33804301 9.00846318 689.14421841 12.00383849 687.94564056 14.99753952 C686.93825235 17.51821522 685.93835669 20.04183458 684.93839836 22.56546497 C676.33513786 44.2741117 667.53957298 65.9049432 658.66278076 87.50302124 C655.69798573 94.71908041 652.75142163 101.94240444 649.81347656 109.16943359 C619.9557679 182.59860304 619.9557679 182.59860304 606.94628906 209.56005859 C606.58615723 210.31834961 606.22602539 211.07664062 605.85498047 211.85791016 C596.57083302 231.23080137 583.60941171 250.03989174 569.94628906 266.56005859 C569.52847168 267.07648926 569.1106543 267.59291992 568.68017578 268.125 C556.34244029 283.34018315 542.4681288 297.83198038 526.58935547 309.36572266 C524.93774505 310.56626919 523.30699621 311.79163599 521.67675781 313.02099609 C471.99525997 350.00124757 405.03425367 377.21572195 343.75878906 386.74755859 C342.27463501 386.98055664 342.27463501 386.98055664 340.76049805 387.21826172 C317.89015286 390.51035509 294.92161916 390.91144291 271.86401367 390.87573242 C268.64316769 390.87112127 265.42270126 390.87796911 262.2019043 390.89624023 C244.7297605 390.99426819 227.39194102 390.69947936 209.97753906 389.18115234 C209.26670229 389.11958765 208.55586552 389.05802296 207.82348824 388.99459267 C142.50912819 383.19744107 71.32859415 356.77257194 17.94628906 318.56005859 C16.91503906 317.82271484 15.88378906 317.08537109 14.82128906 316.32568359 C-0.9187567 304.76658749 -16.58038334 291.64344372 -29.05371094 276.56005859 C-29.90707031 275.59455078 -30.76042969 274.62904297 -31.63964844 273.63427734 C-44.55392197 259.00547035 -55.78666378 243.13600773 -66.05371094 226.56005859 C-66.48135742 225.87766113 -66.90900391 225.19526367 -67.34960938 224.4921875 C-74.34065429 213.28058368 -79.91363316 201.71938237 -85.05371094 189.56005859 C-85.30938843 188.95548828 -85.56506592 188.35091797 -85.82849121 187.72802734 C-90.63003179 176.36350176 -95.35133449 164.96590885 -100.05371094 153.56005859 C-100.37231079 152.78730591 -100.69091064 152.01455322 -101.01916504 151.21838379 C-105.67309235 139.92586244 -110.30275523 128.62345199 -114.92559814 117.31817627 C-116.11077847 114.42053444 -117.29676862 111.52322504 -118.48291016 108.62597656 C-136.82211724 63.82629139 -136.82211724 63.82629139 -144.93530273 43.390625 C-145.48119856 42.01607992 -146.0271788 40.64156837 -146.57324219 39.26708984 C-146.84458481 38.58404785 -147.11592743 37.90100586 -147.39549255 37.19726562 C-149.35195406 32.28639838 -151.3455703 27.39149154 -153.35281372 22.50117493 C-154.86988085 18.80201806 -156.37723942 15.09893937 -157.88391113 11.39553833 C-158.61600633 9.60349504 -159.35266842 7.81330995 -160.09411621 6.02511597 C-161.12238313 3.54400192 -162.13454861 1.05686775 -163.14355469 -1.43212891 C-163.45419357 -2.17002151 -163.76483246 -2.90791412 -164.08488464 -3.66816711 C-165.66767909 -7.62187337 -166.57263737 -10.36284767 -165.05371094 -14.43994141 C-118.74256558 -68.82274608 -45.65525556 -35.69766704 0 0 Z M22.63378906 128.99755859 C19.74902861 133.37812075 18.62381624 135.80798749 19.62207031 141.02880859 C20.89012789 146.96227025 23.08762401 152.32644244 25.50878906 157.87255859 C26.22301025 159.53170288 26.22301025 159.53170288 26.95166016 161.22436523 C36.80590696 183.92382876 47.3063215 206.34273067 58.07128906 228.62255859 C58.41887268 229.34522919 58.7664563 230.06789978 59.12457275 230.81246948 C66.7940418 248.68961712 66.7940418 248.68961712 80.19628906 261.87255859 C85.55098895 263.21123357 90.26545205 262.36815331 95.19628906 259.99755859 C99.53413917 256.152646 102.56857762 252.34657134 103.36035156 246.50537109 C102.77449553 240.92315794 100.69834368 236.35553352 98.44628906 231.24755859 C97.96071533 230.12454346 97.4751416 229.00152832 96.97485352 227.84448242 C90.31082601 212.59186206 83.13304359 197.57140365 75.94628906 182.56005859 C75.62601746 181.89028992 75.30574585 181.22052124 74.97576904 180.53045654 C68.85548384 167.73221219 62.68108263 154.95978484 56.38378906 142.24755859 C56.0023877 141.4717041 55.62098633 140.69584961 55.22802734 139.89648438 C50.9367269 130.75692745 50.9367269 130.75692745 44.19628906 123.56005859 C35.49843773 120.88379665 28.98841991 122.29943419 22.63378906 128.99755859 Z M485.94628906 125.56005859 C483.13793037 129.08040648 481.34529752 132.99353612 479.44628906 137.06005859 C478.86043236 138.25876297 478.27189717 139.45616137 477.6809082 140.65234375 C476.41105866 143.23630388 475.16060308 145.82850642 473.92333984 148.42822266 C471.89802132 152.67771053 469.81339249 156.89667029 467.72363281 161.11474609 C458.68941256 179.40231253 450.0629615 197.84604273 441.94628906 216.56005859 C441.40115555 217.80178805 440.85557547 219.04332154 440.30957031 220.28466797 C438.70170711 223.94800333 437.13414755 227.62729312 435.57128906 231.31005859 C434.84643311 232.96134766 434.84643311 232.96134766 434.10693359 234.64599609 C431.50346804 240.90752011 429.94661212 245.90519091 431.94628906 252.56005859 C434.05909379 256.74312836 437.29656679 259.16777345 441.25878906 261.56005859 C446.7275544 263.0431136 451.29651897 262.7618893 456.46972656 260.41552734 C459.5942281 258.07461531 461.15783315 255.38144701 462.94628906 251.99755859 C463.32237305 251.30629883 463.69845703 250.61503906 464.0859375 249.90283203 C478.34651084 223.37976407 490.69444791 195.89718752 503.00878906 168.43505859 C503.37645386 167.61614136 503.74411865 166.79722412 504.1229248 165.95349121 C512.66307807 150.62828598 512.66307807 150.62828598 513.94628906 134.56005859 C511.04432154 129.48161543 507.64968465 124.46119046 501.94628906 122.56005859 C496.20641303 122.10086851 490.93018652 122.5690769 485.94628906 125.56005859 Z M170.63162231 167.34387207 C166.50203593 173.85080721 166.60394625 178.45340246 167.79394531 185.90771484 C167.94742935 187.02203384 168.10091339 188.13635284 168.25904846 189.28443909 C168.78841696 193.0485649 169.36552455 196.80353874 169.94628906 200.56005859 C170.25486299 202.63439001 170.55970453 204.70925157 170.86461449 206.78412437 C172.18682215 215.76179812 173.59460977 224.72515049 175.01831055 233.68719482 C175.38526337 236.00687841 175.74818077 238.32715625 176.10961914 240.64770508 C179.29642896 261.28915345 179.29642896 261.28915345 182.98144531 281.84521484 C183.17268227 282.93061806 183.17268227 282.93061806 183.36778259 284.03794861 C184.55386659 289.79830492 187.19544346 293.50653313 191.90332031 297.02099609 C196.85758817 299.46162489 200.42039051 300.27307776 205.94628906 299.56005859 C210.54726172 297.21446469 214.20297045 293.95748856 216.94628906 289.56005859 C219.12683637 277.38683048 215.80828097 263.68217967 213.94628906 251.62255859 C213.63291828 249.53923804 213.32018698 247.45582121 213.00805664 245.37231445 C210.65511236 229.77280305 208.16375367 214.19423177 205.63378906 198.62255859 C205.46339111 197.57262726 205.29299316 196.52269592 205.11743164 195.44094849 C204.63030456 192.45011415 204.13887686 189.46002522 203.64550781 186.47021484 C203.50304123 185.59719727 203.36057465 184.72417969 203.21379089 183.82470703 C201.80940243 171.75059093 201.80940243 171.75059093 194.73535156 162.71240234 C185.5647662 156.80558426 176.98561147 158.72242371 170.63162231 167.34387207 Z M335.87475586 166.30053711 C333.87321798 169.68356436 333.07422612 172.24450981 332.34082031 176.08740234 C332.2154892 176.72853973 332.09015808 177.36967712 331.96102905 178.03024292 C331.5454552 180.18348601 331.15152192 182.34004068 330.75878906 184.49755859 C330.46724829 186.04604953 330.17532534 187.59446855 329.88305664 189.14282227 C315.77816944 241.0411774 315.77816944 241.0411774 317.50878906 292.12255859 C322.36465435 296.97842388 326.95001821 299.17584926 333.73925781 299.66162109 C338.18120805 299.45721276 341.50845328 297.64603054 344.99145508 295.01538086 C347.81818343 291.46493662 348.46377332 287.84517861 349.41113281 283.46240234 C349.61939194 282.54224838 349.82765106 281.62209442 350.04222107 280.67405701 C352.63548096 268.90423195 354.57738573 257.01519724 356.50878906 245.12255859 C356.70294403 243.93883667 356.897099 242.75511475 357.09713745 241.53552246 C362.84937288 209.43820761 362.84937288 209.43820761 365.38378906 176.99755859 C365.39937866 175.9422998 365.39937866 175.9422998 365.4152832 174.86572266 C365.33768377 170.62504759 364.59984671 167.88287635 361.94628906 164.56005859 C352.91131326 158.06065327 343.19028332 156.62265901 335.87475586 166.30053711 Z " fill="#ffffff" transform="translate(276.0537109375,624.43994140625)"/>
<path d="M0 0 C0.81859497 -0.00701431 1.63718994 -0.01402863 2.48059082 -0.02125549 C5.10690887 -0.03865667 7.73300142 -0.04510747 10.359375 -0.046875 C11.25676392 -0.04754974 12.15415283 -0.04822449 13.07873535 -0.04891968 C26.31377613 -0.03309395 39.13337397 0.3746296 52.109375 3.203125 C52.92100098 3.36941406 53.73262695 3.53570312 54.56884766 3.70703125 C79.30744385 8.8658812 101.63703729 19.11028392 121.109375 35.203125 C121.88023437 35.8321875 122.65109375 36.46125 123.4453125 37.109375 C131.09797631 43.55989622 137.07504623 51.27214944 142.859375 59.390625 C143.42269531 60.17115234 143.98601562 60.95167969 144.56640625 61.75585938 C148.98781867 67.91761498 148.98781867 67.91761498 150.25732422 70.89941406 C152.02905302 73.60358261 152.02905302 73.60358261 155.88037109 73.98266602 C157.46321303 74.08129089 159.04777663 74.15433648 160.6328125 74.20703125 C161.4820932 74.25542648 162.3313739 74.30382172 163.20639038 74.35368347 C165.02326666 74.45621219 166.84072511 74.54881665 168.65856934 74.63244629 C173.36716917 74.85436008 178.06983005 75.16428786 182.7734375 75.47265625 C183.68915527 75.53154022 184.60487305 75.59042419 185.54833984 75.65109253 C195.28597665 76.30244651 204.68636017 77.63394403 214.109375 80.203125 C214.92535156 80.42419922 215.74132812 80.64527344 216.58203125 80.87304688 C244.27906729 88.67473107 270.64356837 103.01599631 292.109375 122.203125 C292.6240332 122.65896973 293.13869141 123.11481445 293.66894531 123.58447266 C323.79294023 150.36429825 347.81173633 187.6799959 350.796875 228.66796875 C351.27150011 237.06964213 351.32684616 245.47769492 351.359375 253.890625 C351.36473267 254.66287415 351.37009033 255.43512329 351.37561035 256.23077393 C351.45251701 270.86129418 351.1126765 285.98929484 346.546875 300.015625 C346.29075439 300.8305542 346.03463379 301.6454834 345.77075195 302.48510742 C337.06286432 329.25682289 323.38551453 350.93615586 304.109375 371.203125 C303.23925781 372.15251953 303.23925781 372.15251953 302.3515625 373.12109375 C279.15364384 397.65959565 245.71632998 412.08022831 213.109375 418.203125 C212.40635254 418.33589844 211.70333008 418.46867187 210.97900391 418.60546875 C169.07927952 426.09921498 122.93119734 414.98704811 88.1328125 390.83105469 C62.68832871 372.37315771 42.31814496 348.17624965 28.109375 320.203125 C27.74618164 319.49978027 27.38298828 318.79643555 27.00878906 318.07177734 C6.65102302 278.32346944 1.93768329 229.64432944 15.44140625 186.984375 C17.76850905 180.08966287 20.70877538 173.62815172 24.109375 167.203125 C24.89054687 165.70652344 24.89054687 165.70652344 25.6875 164.1796875 C32.67676636 151.5243654 41.81645766 140.22897812 51.71484375 129.75 C53.66058318 127.68046965 55.49620458 125.5844337 57.296875 123.390625 C60.542858 119.56533059 64.27717803 116.42476855 68.109375 113.203125 C68.97304687 112.44 69.83671875 111.676875 70.7265625 110.890625 C81.81075608 101.27831621 94.26703939 94.02318283 107.14550781 87.07006836 C110.74213017 85.28395417 110.74213017 85.28395417 113.109375 82.203125 C92.69440743 56.60340376 68.69636524 42.77158605 35.90176392 38.9455719 C28.13213181 38.14184372 20.45294295 38.12234247 12.6484375 38.2109375 C11.28608791 38.22044883 9.92373167 38.22904742 8.56137085 38.23678589 C2.83130667 38.27004898 -2.89859036 38.31229025 -8.62841797 38.37451172 C-12.15536713 38.41220984 -15.6821575 38.43518884 -19.20927811 38.44881821 C-21.19075201 38.46072236 -23.17210675 38.48889407 -25.15341187 38.5173645 C-26.35881622 38.52081879 -27.56422058 38.52427307 -28.80615234 38.52783203 C-29.86329437 38.53751007 -30.9204364 38.54718811 -32.00961304 38.55715942 C-35.97941695 38.06932832 -38.59742267 36.4636707 -41.4375 33.6953125 C-44.87157581 29.07937943 -46.20951258 24.9829623 -45.890625 19.203125 C-44.89405158 13.51435171 -42.31202956 10.1650738 -37.93261719 6.55200195 C-34.51763776 4.29617205 -30.99871767 3.6040652 -27.015625 2.890625 C-25.88833984 2.65762695 -25.88833984 2.65762695 -24.73828125 2.41992188 C-16.52902675 0.77947908 -8.3644877 0.04826176 0 0 Z M101.796875 155.078125 C99.13208535 160.01292064 97.20520272 164.55204822 98.109375 170.203125 C105.47741612 183.86590991 120.31212918 191.97286078 134.25 197.43359375 C150.19683161 201.97460329 171.31906425 201.31675969 186.109375 193.515625 C186.79435059 193.16330811 187.47932617 192.81099121 188.18505859 192.44799805 C193.83416127 189.48105472 199.05390155 186.10085644 204.109375 182.203125 C204.70234375 181.78546875 205.2953125 181.3678125 205.90625 180.9375 C210.1068621 177.81823359 212.70434009 174.2123799 214.109375 169.203125 C214.53022828 162.65423733 213.12983513 157.35756107 209.109375 152.203125 C205.13557152 149.02775317 201.30246018 147.87093913 196.234375 148.078125 C190.34135022 148.96388639 185.95250624 151.88645922 181.109375 155.203125 C170.9544747 162.13394099 161.49003357 164.43698452 149.109375 163.203125 C141.66925646 161.52984533 135.445117 157.78763929 128.96875 153.88671875 C119.09002869 148.07014923 110.03330907 144.83823399 101.796875 155.078125 Z " fill="#ffffff" transform="translate(84.890625,8.796875)"/>
</svg>
