<svg xmlns="http://www.w3.org/2000/svg" viewBox="0 0 500 500"><g id="freepik--Dog--inject-125"><g id="freepik--dog--inject-125"><g id="freepik--balloons--inject-125"><path d="M252.39,333a.67.67,0,0,1-.63-.41l-40.17-92.1a.68.68,0,1,1,1.25-.54L253,332.08a.68.68,0,0,1-.35.89A.66.66,0,0,1,252.39,333Z" style="fill:#e0e0e0"></path><path d="M252.39,333a.63.63,0,0,1-.27-.06.67.67,0,0,1-.36-.89l45.07-104.42a.68.68,0,0,1,1.25.54L253,332.62A.69.69,0,0,1,252.39,333Z" style="fill:#e0e0e0"></path><path d="M252.39,333h-.12a.67.67,0,0,1-.55-.78L275,191.1a.68.68,0,1,1,1.34.22l-23.3,141.14A.69.69,0,0,1,252.39,333Z" style="fill:#e0e0e0"></path><path d="M277.05,191.09a9.9,9.9,0,0,0,2.59,3.93c2,1.92-5.21,5.12-6.74,3.95s1.46-8.15,1.46-8.15Z" style="fill:#EE7376"></path><path d="M311.67,148.41c-1.82,18.35-16.26,36.2-35.84,39.77-11.23-4.45-19.56-13.69-24-24.37a45.49,45.49,0,0,1-3.35-21.66c1.82-18.35,16.54-31.92,34.89-30.1a31,31,0,0,1,17,7.07C308.47,125.9,312.83,136.71,311.67,148.41Z" style="fill:#EE7376"></path><path d="M311.67,148.41c-1.82,18.35-16.26,36.2-35.84,39.77-11.23-4.45-19.56-13.69-24-24.37h0c11.24,19.5,36.41,12.83,47.34-2.2s5.12-35.39,1.19-42.49h0C308.47,125.9,312.83,136.71,311.67,148.41Z" style="opacity:0.1"></path><path d="M278.35,187.62a12.48,12.48,0,0,1-4.9-.48,3.21,3.21,0,0,0,.47,3.34,2.67,2.67,0,0,0,4.43-2.86Z" style="fill:#EE7376"></path><path d="M278.35,187.62a12.48,12.48,0,0,1-4.9-.48,3.21,3.21,0,0,0,.47,3.34,2.67,2.67,0,0,0,4.43-2.86Z" style="opacity:0.2"></path><path d="M279.3,195.74c.25.3-.84,1.38-3,2.26s-2.93.63-3,.36c-.24-.5,1.38-1.48,3-2.15S279.05,195.43,279.3,195.74Z" style="opacity:0.2"></path><path d="M251,142.39a42.83,42.83,0,0,0,.13,9.53,1.63,1.63,0,0,0,1.64,1.44H253a1.64,1.64,0,0,0,1.42-1.83,40.53,40.53,0,0,1-.12-8.8,29.17,29.17,0,0,1,6.62-16.43c3.28-3.77,10.06-7.71,14.79-8.6a1.64,1.64,0,0,0-.6-3.23c-5.44,1-12.91,5.37-16.67,9.68A32.36,32.36,0,0,0,251,142.39Zm1.48,14.93a1.67,1.67,0,1,0,1.82-1.49A1.67,1.67,0,0,0,252.49,157.32ZM279.15,115a1.67,1.67,0,1,0,1.82-1.49A1.67,1.67,0,0,0,279.15,115Z" style="fill:#fff;opacity:0.2"></path><path d="M274.25,195.14a9.39,9.39,0,0,1,.84-2.53.41.41,0,0,0-.74-.36,10.36,10.36,0,0,0-.91,2.76.2.2,0,0,0,0,.11.41.41,0,0,0,.81,0Zm-.95,1.57a.39.39,0,0,0,.55.09.39.39,0,1,0-.55-.09Z" style="fill:#fff;opacity:0.30000000000000004"></path><g id="freepik--balloon--inject-125"><path d="M298,229.88a8.15,8.15,0,0,0,1.11,3.77c1.14,2-5.41,2.84-6.35,1.54s3.14-6.18,3.14-6.18Z" style="fill:#EE7376"></path><path d="M298,229.88a8.15,8.15,0,0,0,1.11,3.77c1.14,2-5.41,2.84-6.35,1.54s3.14-6.18,3.14-6.18Z" style="fill:#fff;opacity:0.6000000000000001"></path><path d="M299.85,227.42a10.47,10.47,0,0,1-3.81-1.58,2.69,2.69,0,0,0-.43,2.79,2.24,2.24,0,0,0,4.24-1.21Z" style="fill:#EE7376"></path><path d="M298.64,234.15c.12.3-1,.91-2.92,1.09s-2.5-.2-2.54-.45c-.06-.46,1.47-.85,2.91-1S298.51,233.84,298.64,234.15Z" style="fill:#EE7376;opacity:0.30000000000000004"></path><path d="M294.74,232.45a7.77,7.77,0,0,1,1.29-1.83.34.34,0,0,0,0-.48.35.35,0,0,0-.49,0,8.41,8.41,0,0,0-1.4,2l0,.08a.36.36,0,0,0,.19.37A.34.34,0,0,0,294.74,232.45Zm-1.14,1a.33.33,0,0,0,.42.21.33.33,0,1,0-.21-.63A.33.33,0,0,0,293.6,233.47Z" style="fill:#fff;opacity:0.30000000000000004"></path><g id="freepik--heart--inject-125"><path d="M324.07,178c12.84-3.86,26.4,2.36,28.79,17.12,2.47,15.28-12.33,32.9-48.6,33.88a12.22,12.22,0,0,1-11.13-6.87c-8.63-16.84-10-34.69-2.06-46.69C300.3,161.52,320.65,165.31,324.07,178Z" style="fill:#EE7376"></path><path d="M324.07,178c12.84-3.86,26.4,2.36,28.79,17.12,2.47,15.28-12.33,32.9-48.6,33.88a12.22,12.22,0,0,1-11.13-6.87c-8.63-16.84-10-34.69-2.06-46.69C300.3,161.52,320.65,165.31,324.07,178Z" style="fill:#fff;opacity:0.6000000000000001"></path><path d="M288.3,194.6a48.54,48.54,0,0,0,.65,8.85,1.3,1.3,0,0,0,1.4,1.24l.14,0a1.75,1.75,0,0,0,1-2,45.09,45.09,0,0,1-.75-8.18c0-5.58,1.25-10.32,3.46-13.91a22.29,22.29,0,0,1,9.07-7.79,1.07,1.07,0,0,0,.62-1.41,1.11,1.11,0,0,0-1.43-.58,24.57,24.57,0,0,0-10.1,8.56C289.86,183.3,288.43,188.48,288.3,194.6Zm2.1,14.24a1.62,1.62,0,0,0,1.38,1.8,1.67,1.67,0,0,0,1.39-1.85,1.61,1.61,0,0,0-1.4-1.75A1.67,1.67,0,0,0,290.4,208.84Zm14.81-38.26a1.14,1.14,0,0,0,1.26,1,1.08,1.08,0,0,0,1-1.19,1.15,1.15,0,0,0-1.27-1A1.08,1.08,0,0,0,305.21,170.58Z" style="fill:#fff;opacity:0.2"></path><path d="M312.12,167.17c5.67,1.39,10.45,5.24,11.95,10.8a14,14,0,0,0-6,3.41C318.61,177.87,319.36,170.38,312.12,167.17Z" style="fill:#EE7376;opacity:0.30000000000000004"></path><path d="M345.89,208.77c6.55-9.69,4.37-22.89-.3-27a21.43,21.43,0,0,1,7.27,13.33c2.47,15.28-12.33,32.9-48.6,33.88a11.48,11.48,0,0,1-1.95-.11C327,227.78,340,217.51,345.89,208.77Z" style="fill:#EE7376;opacity:0.30000000000000004"></path></g></g><path d="M252.38,333a.68.68,0,0,1-.67-.62l-13-142.67a.68.68,0,1,1,1.35-.12l12.95,142.67a.67.67,0,0,1-.61.73Z" style="fill:#e0e0e0"></path><g id="freepik--balloon--inject-125"><path d="M238.63,191.53a8.24,8.24,0,0,1-1.69,3.55c-1.44,1.83,4.91,3.65,6,2.5s-2.15-6.59-2.15-6.59Z" style="fill:#EE7376"></path><path d="M237.15,188.81a10.38,10.38,0,0,0,4-1,2.71,2.71,0,0,1,0,2.83,2.23,2.23,0,0,1-4-1.85Z" style="fill:#EE7376"></path><path d="M237.15,188.81a10.38,10.38,0,0,0,4-1,2.71,2.71,0,0,1,0,2.83,2.23,2.23,0,0,1-4-1.85Z" style="opacity:0.2"></path><path d="M237.3,195.65c-.17.27.86,1,2.72,1.52s2.5.19,2.57,0c.14-.45-1.31-1.07-2.72-1.44S237.48,195.36,237.3,195.65Z" style="opacity:0.2"></path><path d="M241.85,194.79a.35.35,0,0,0,.24-.34.29.29,0,0,0,0-.09,8.29,8.29,0,0,0-1.07-2.18.34.34,0,0,0-.48-.09.33.33,0,0,0-.09.47,8.25,8.25,0,0,1,1,2A.35.35,0,0,0,241.85,194.79Zm.39.51a.33.33,0,0,0-.3.59.33.33,0,0,0,.45-.14A.34.34,0,0,0,242.24,195.3Z" style="fill:#fff;opacity:0.30000000000000004"></path><g id="freepik--heart--inject-125"><path d="M220.85,136.21c-12.09-5.8-26.44-1.75-31.08,12.47-4.81,14.71,7.09,34.4,42.78,41a12.23,12.23,0,0,0,12.06-5.08c11.13-15.3,15.27-32.71,9.24-45.8C246.88,123.63,226.19,124.23,220.85,136.21Z" style="fill:#EE7376"></path><path d="M220.85,136.21c-12.09-5.8-26.44-1.75-31.08,12.47-4.81,14.71,7.09,34.4,42.78,41a12.23,12.23,0,0,0,12.06-5.08c11.13-15.3,15.27-32.71,9.24-45.8C246.88,123.63,226.19,124.23,220.85,136.21Z" style="fill:#fff;opacity:0.30000000000000004"></path><path d="M252,142.47a24.62,24.62,0,0,0-8.66-10,1.09,1.09,0,0,0-1.5.36,1.06,1.06,0,0,0,.39,1.48,22.29,22.29,0,0,1,7.76,9.1c1.63,3.89,2.1,8.76,1.27,14.27a44.49,44.49,0,0,1-2,8,1.76,1.76,0,0,0,.67,2.13l.14.06a1.31,1.31,0,0,0,1.58-1,49.37,49.37,0,0,0,2-8.65C254.44,152.1,253.82,146.76,252,142.47Zm-3.7,27.45c-.75-.13-1.48.54-1.65,1.52a1.67,1.67,0,0,0,1.09,2c.76.13,1.49-.58,1.64-1.56A1.65,1.65,0,0,0,248.27,169.92Zm-8.44-39.42a1.16,1.16,0,0,0-1.4.75,1.07,1.07,0,0,0,.8,1.33,1.14,1.14,0,0,0,1.4-.76A1.08,1.08,0,0,0,239.83,130.5Z" style="fill:#fff;opacity:0.2"></path><path d="M234.33,127.38c-5.82.5-11.13,3.56-13.48,8.83a14.14,14.14,0,0,1,5.44,4.3C226.27,137,226.68,129.44,234.33,127.38Z" style="fill:#EE7376;opacity:0.6000000000000001"></path><path d="M194.54,163.27c-5-10.59-.78-23.29,4.46-26.65a21.45,21.45,0,0,0-9.23,12.06c-4.81,14.71,7.09,34.4,42.78,41a11.69,11.69,0,0,0,1.94.19C210.31,185,199,172.82,194.54,163.27Z" style="fill:#EE7376;opacity:0.6000000000000001"></path></g></g><path d="M214.79,242.2a9.8,9.8,0,0,0,4,2.54c2.61.95-2.69,6.8-4.56,6.35s-2-8.05-2-8.05Z" style="fill:#EE7376"></path><path d="M167.23,212.06c7,17.05,26,30,45.77,27.77,9.47-7.5,14.79-18.75,16-30.24a45.59,45.59,0,0,0-3-21.72c-7-17.05-25-25.8-42.07-18.77a30.9,30.9,0,0,0-14.27,11.67C163.81,189.58,162.75,201.19,167.23,212.06Z" style="fill:#EE7376"></path><path d="M167.23,212.06c7,17.05,26,30,45.77,27.77,9.47-7.5,14.79-18.75,16-30.24h0c-5.15,21.91-31.17,22.77-46,11.52s-15.09-32.42-13.37-40.35l0,0C163.81,189.58,162.75,201.19,167.23,212.06Z" style="opacity:0.1"></path><path d="M214.57,238.5a12.38,12.38,0,0,1-4.68,1.54,3.22,3.22,0,0,0,1.78,2.86,2.67,2.67,0,0,0,2.9-4.4Z" style="fill:#EE7376"></path><path d="M214.57,238.5a12.38,12.38,0,0,1-4.68,1.54,3.22,3.22,0,0,0,1.78,2.86,2.67,2.67,0,0,0,2.9-4.4Z" style="opacity:0.2"></path><path d="M218.73,245.54c.34.18-.21,1.6-1.8,3.26s-2.42,1.77-2.65,1.57c-.42-.36.66-1.92,1.85-3.17S218.37,245.36,218.73,245.54Z" style="opacity:0.2"></path><path d="M211.24,173.49c-4.83-3.05-13.24-5.06-18.74-4.48a1.64,1.64,0,0,0,.35,3.27c4.79-.51,12.41,1.31,16.65,4a29.15,29.15,0,0,1,11.06,13.83,39.93,39.93,0,0,1,2.42,8.46,1.64,1.64,0,0,0,1.89,1.34l.18,0a1.64,1.64,0,0,0,1.16-1.85,42.65,42.65,0,0,0-2.62-9.16A32.25,32.25,0,0,0,211.24,173.49Zm13,29.16a1.67,1.67,0,1,0,2.18.91A1.66,1.66,0,0,0,224.29,202.65Zm-37.72-32.89a1.67,1.67,0,1,0,2.18.9A1.67,1.67,0,0,0,186.57,169.76Z" style="fill:#fff;opacity:0.2"></path><path d="M213.86,247a9.33,9.33,0,0,1-.25-2.66.41.41,0,0,0-.82,0,10.17,10.17,0,0,0,.28,2.89.49.49,0,0,0,0,.11.43.43,0,0,0,.46.19A.41.41,0,0,0,213.86,247Zm-.23,1.81a.39.39,0,1,0-.14-.54A.39.39,0,0,0,213.63,248.85Z" style="fill:#fff;opacity:0.30000000000000004"></path></g><g id="freepik--behind-box--inject-125"><polygon points="314.76 347.65 249.19 309.8 183.62 347.65 249.19 385.51 314.76 347.65" style="fill:#EE7376"></polygon><polygon points="314.76 347.65 249.19 309.8 183.62 347.65 249.19 385.51 314.76 347.65" style="fill:#fff;opacity:0.2"></polygon><polygon points="249.19 369.27 249.19 309.8 183.62 347.65 235.13 377.39 249.19 369.27" style="fill:#EE7376;opacity:0.30000000000000004"></polygon><polygon points="249.19 385.51 263.25 377.39 249.19 369.27 235.13 377.39 249.19 385.51" style="opacity:0.2"></polygon></g><g id="freepik--dog--inject-125"><path d="M198.16,359.06a22.18,22.18,0,0,1-4-7.29,34.81,34.81,0,0,1-1.37-11.22,22.54,22.54,0,0,1,3.56-11.7c.28-.43.78-.9,1.23-.64a1,1,0,0,1,.37.74c.29,1.76.12,3.74,1.25,5.12-.07-3.8,1.53-7.45,3.51-10.7s4.38-6.24,6.18-9.59a6,6,0,0,1,1.63-2.22c1.87-1.31,3.95.43,4.64,2.12a10.11,10.11,0,0,1-.27,8.17c1.86-.54,3.87.81,4.67,2.57a10.13,10.13,0,0,1,.39,5.73,37.47,37.47,0,0,1-2.82,9.55,4.25,4.25,0,0,1,1.49-1.15,1.5,1.5,0,0,1,1.73.37,2,2,0,0,1,.3.8c1,5.23-3.18,10.46-4.15,15.48a9.3,9.3,0,0,0,.61,6c1.68,3.22,4.52,3.43,7.45,4.1s1.83,3.21-.3,3.88c-5.51,1.74-13.92.61-18.32-3.44-.73-.67-1.37-1.45-2.13-2.09s-1.73-1.18-2.59-1.78A15.36,15.36,0,0,1,198.16,359.06Z" style="fill:#f0997a"></path><path d="M214.72,332.8a5.89,5.89,0,0,0-.55-3.21,3.77,3.77,0,0,0-5.41-1.54c-1.79,1.29-3.6,4.85-2.82,7.1a2.28,2.28,0,0,0-3.27-.51,5.4,5.4,0,0,0-1.71,3.29,17.42,17.42,0,0,0,3.19,13.81c-1.17.25-2.47.59-3.07,1.68-.78,1.41,0,3.28.95,4.67,1.77,2.64,4.43,5,7.39,4.92-.7.23-.86,1.3-.48,2a3.35,3.35,0,0,0,1.83,1.37c3.18,1.25,6.22.7,9.23-.39a14.17,14.17,0,0,1,1.87-.54c-2.89-.65-5.69-.89-7.34-4.08a9.27,9.27,0,0,1-.62-6c.5-2.56,1.84-4.8,2.41-7.31.2-.91.22-2.05-.55-2.58a2.61,2.61,0,0,0-1.83-.22c.91-2.11,1.84-4.35,1.56-6.63a2.19,2.19,0,0,0-.68-1.51,1,1,0,0,0-1.46.2,17.65,17.65,0,0,0,1.26-3.8A5.36,5.36,0,0,0,214.72,332.8Z" style="fill:#ffbda7"></path><path d="M248,343.43c-.72-.48-1.5-.92-2.19-1.45a58.68,58.68,0,0,0-8.47-5.49,16.6,16.6,0,0,0-5.5-2.19,15.32,15.32,0,0,0-5.92.17c-1.59.41-3.33,2.56-2,4.13a2.48,2.48,0,0,0-.31,2.59,4.19,4.19,0,0,0,2.37,2.12c-.52,1,.57,2.46,2.2,3.12,1.3.52,2.58.55,3.68,1.55.54.48.88,1.17,1.51,1.53.89.52,2,.29,2.91.79a7.41,7.41,0,0,1,2.24,2.08,3.46,3.46,0,0,1,.9,2.12l13.3-7c-1.34-1-2.48-2.21-3.74-3.3A11.86,11.86,0,0,0,248,343.43Z" style="fill:#f0997a"></path><path d="M231.39,342.39a4.76,4.76,0,0,0-6.49.28,10.47,10.47,0,0,0,1.11.64C227,342.21,228.68,341.12,231.39,342.39Z" style="fill:#b16668"></path><path d="M229.56,337.51a5.52,5.52,0,0,0-6,.1,1.84,1.84,0,0,0,.42,1C225.44,336.86,228.38,337,229.56,337.51Z" style="fill:#b16668"></path><path d="M283.65,318.73c-2.31,1.25-4.7,2.58-7,3.83l-14.22,7.71c-.43.23-.86.43-1.28.64l-3.37,1.39a54.58,54.58,0,0,0-7,2.93l-.51.22a11.06,11.06,0,0,0-2.73,1.13,21.19,21.19,0,0,0-1.43,1.85l-1.23,1.95-.41.74-2.81,9.34a8.52,8.52,0,0,1-3.37,3.67c-2.26,1.22-4.52,3-5.37,5.32a1.93,1.93,0,0,0-1.73-.49,2.67,2.67,0,0,0-1.89-1.65,4.37,4.37,0,0,0-3,.63c-.12-.79-1.72-1.48-4.21-.28-4.94,2.37-7.53,5.14-12.16,9.82-5.76,5.82-7.05,10.2-6.2,13.37.6,2.24,2,3.38,3.85,4.52-3.41,4.61-1.79,13.93-.1,18.93a24.86,24.86,0,0,0,2.66,5.55c3,4.46,7.6,7.57,12.56,9.56a42.13,42.13,0,0,0,19.59,3.2,52,52,0,0,0,16.69-4.37A62,62,0,0,0,285,396a55.1,55.1,0,0,0,8.47-20.49,74.93,74.93,0,0,0,.43-23.36C292,337.14,286.51,326.55,283.65,318.73Z" style="fill:#ffbda7"></path><path d="M233.38,364.53s4-3,6.73-1.08a3.57,3.57,0,0,1,3.39-.57,2.39,2.39,0,0,1,1.54,2.33,1.83,1.83,0,0,1,1.82.7,3.82,3.82,0,0,1,.2,3.46c-.26.6-1.47,5.78-6.38,8.23,0,0,5.42,1.18,7.93,7.69,2.73,7.08,1.26,11.43,1.26,11.43a44.52,44.52,0,0,0,20.49-21.39c9-19.38-2.31-47.3-2.31-47.3l-20.57,8.55s-6.12,4.52-5.88,13.88c-6.4,2.33-8.41,4.68-11.24,7.41a4,4,0,0,1,.77,1.09,2.31,2.31,0,0,1,1.73.49A3.7,3.7,0,0,1,233.38,364.53Z" style="fill:#f5f5f5"></path><path d="M251.51,351.26c-1.29,1.14-1.93,4,.06,4.82a2.58,2.58,0,0,0,.91,2.58,4.44,4.44,0,0,0,3.22.88c0,1.15,1.69,2,3.53,1.9,2.54-.2,3.19-1.06,7.93-.38a13.45,13.45,0,0,1,6.32,2.8,62.45,62.45,0,0,0-.29-15.55,27.84,27.84,0,0,0-8.63-1.3C260.36,347.1,254.66,348.5,251.51,351.26Z" style="opacity:0.1"></path><path d="M276.55,348a34.84,34.84,0,0,0-9-2.86c-5-.93-10.76-.8-14.92,2.58-1.28,1-2,3.74-.12,4.63a2.5,2.5,0,0,0,.79,2.51,4.29,4.29,0,0,0,3.06,1c-.21,0,.47,1.05.54,1.11a3.41,3.41,0,0,0,1.6.74c1.47.32,2.86-.54,4.37-.38.75.08,1.46.35,2.19.5,1.26.25,2.62-.05,3.82.31a11.67,11.67,0,0,1,3.07,1.5c.19.13,2.71,1.93,2.54,2.2l.1-.16q2.15-3.51,4.3-7l1.32-2.17c.57-.93,1.21-1.43.06-2.25A24.5,24.5,0,0,0,276.55,348Z" style="fill:#ffbda7"></path><path d="M260.39,352.79a3.87,3.87,0,0,0-3.93.45,3.28,3.28,0,0,0-1.36,2.42,11.48,11.48,0,0,0,1.23.11C256.37,353.9,258.42,352.79,260.39,352.79Z" style="fill:#f0997a"></path><path d="M251.55,351.37a1.91,1.91,0,0,0,.93.93,4.06,4.06,0,0,1,3.13-2.42S252.92,349.44,251.55,351.37Z" style="fill:#f0997a"></path><path d="M290.75,337.66c-2.35-7.73-5.27-13.91-7.1-18.93-2.31,1.25-4.7,2.58-7,3.83l-14.22,7.71c-.43.23-.86.43-1.28.64l-3.37,1.39a54.58,54.58,0,0,0-7,2.93l-.51.22a11.06,11.06,0,0,0-2.73,1.13h0a11.7,11.7,0,0,0-1.21,1.12c.7,1.8,6.82,5.41,15.53,4.93,15.52-.87,19.48-5.64,19.48-5.64S287,340.15,290.75,337.66Z" style="opacity:0.1"></path><path d="M246.62,333.84c-1.4.56-2,3.28-1.4,4.08s12.19,5,23.41,2.4,18.42-8.75,19.22-11.24.92-5.93-1.07-5.23S246.62,333.84,246.62,333.84Z" style="fill:#EE7376"></path><path d="M257.45,290.28a11.32,11.32,0,0,0-8.2-1.61,18.33,18.33,0,0,0-5.78,2.8c-1.62,1.06-3.06,2.49-4.87,3.14a30.37,30.37,0,0,1-7,1.58,21.76,21.76,0,0,0-4,.6c-6.92,2.14-5.25,10.73-2.26,15.18a12.72,12.72,0,0,0,7.36,5.24,24.2,24.2,0,0,0,15.7-1.57,17,17,0,0,0,8.91-10,31.54,31.54,0,0,0,1.2-7.79c.13-1.91,1.19-5.37-.19-6.94A3.79,3.79,0,0,0,257.45,290.28Z" style="fill:#f0997a"></path><path d="M283.44,299.2c-4.36-5.77-8.17-8.93-17.89-9.67-8.93-.69-14.21,1.4-19.09,6.4-2.93,3-4.41,8.49-4.61,11.67a5.87,5.87,0,0,1-1.6,3.82,12.34,12.34,0,0,0-3.27,6.63,16.06,16.06,0,0,0,5.72,14.17c3.22,2.85,11.56,5.48,18.9,5.08,11.4-.63,18.95-4.82,22.5-11.68C288.59,316.94,288.32,305.68,283.44,299.2Z" style="fill:#ffbda7"></path><path d="M264,319.7c-.51-.38-1-.75-1.53-1.13a10.11,10.11,0,0,1-2.94-3c-1.82-3.25-.4-7.37.11-10.77.11-.78,1.16-5.12-.42-5-.36,0-.6.37-.78.69-1.78,3.05-2.81,6.48-4.46,9.61a11,11,0,0,1-1.46,2.23c-3,3.35-8.56,3.28-11.52,6.64S239.57,327,242,330.21c.34.46.71.9,1.09,1.33a14.76,14.76,0,0,0,7.12,4.41,26.73,26.73,0,0,0,7.46,1.24,16.12,16.12,0,0,0,5.37-1,10.67,10.67,0,0,0,5.5-4.62,6.62,6.62,0,0,0,.75-5.58,10.35,10.35,0,0,0-2.85-4.25A26.24,26.24,0,0,0,264,319.7Z" style="fill:#fafafa"></path><path d="M252.58,333.08a2.9,2.9,0,0,0,1.31-.4,2,2,0,0,0,.78-.82,2.21,2.21,0,0,0,.19-1.22c0-.39-.13-.38-.46-.53a4,4,0,0,1-1.53-1.45,11.64,11.64,0,0,1-1-2.24,5.82,5.82,0,0,1-2.41,1.95.64.64,0,0,0-.35.19.36.36,0,0,0-.07.17,3.41,3.41,0,0,0,.64,3.09A3.63,3.63,0,0,0,252.58,333.08Z" style="fill:#ffa8a7"></path><path d="M251.48,326.54a7.05,7.05,0,0,0,.15,5.43c.05.13.16,0,.15-.08-.2-1.68-.51-3.36.24-5C252.15,326.63,251.61,326.21,251.48,326.54Z" style="fill:#f28f8f"></path><path d="M260.54,326.87a.58.58,0,1,0,.1,1.16.57.57,0,0,0,.53-.62A.6.6,0,0,0,260.54,326.87Zm-2.63-2.35a.6.6,0,0,0-.54.63.59.59,0,0,0,.63.53.58.58,0,0,0,.53-.63A.57.57,0,0,0,257.91,324.52Zm4-.56a.57.57,0,0,0-.53.62.58.58,0,0,0,.63.53.57.57,0,0,0,.53-.62A.58.58,0,0,0,262,324Z" style="fill:#e0e0e0"></path><path d="M244.41,323.79a.58.58,0,1,0,.41.71A.58.58,0,0,0,244.41,323.79Zm2.9-.82a.58.58,0,1,0,.41.71A.58.58,0,0,0,247.31,323Zm-2.36-1.9a.57.57,0,0,0-.41-.71.58.58,0,1,0-.29,1.12A.57.57,0,0,0,245,321.07Z" style="fill:#e0e0e0"></path><path d="M251.87,327.09h-.12a.61.61,0,0,1-.51-.67l.54-3.15a.59.59,0,0,1,.67-.51.6.6,0,0,1,.51.67l-.53,3.14A.61.61,0,0,1,251.87,327.09Z" style="fill:#263238"></path><path d="M253.53,316.58c-3.14-.45-5.45.06-5.83,1.29a4,4,0,0,0,.23,2.58,5.68,5.68,0,0,0,.52,1,2.08,2.08,0,0,0,.78.75c.29.15.13-.31.11-.42a.58.58,0,0,1,.2-.61.45.45,0,0,1,.58.28,1.42,1.42,0,0,1,0,.71,1.91,1.91,0,0,0,.14,1.14,1.49,1.49,0,0,0,.4.43,3.54,3.54,0,0,0,.91.56,2.36,2.36,0,0,0,1.69-.11,2,2,0,0,0,.8-.38.56.56,0,0,0,.17-.24,1.09,1.09,0,0,0,0-.31,2.36,2.36,0,0,1,.29-1,.9.9,0,0,1,.32-.35.37.37,0,0,1,.56.43,1,1,0,0,1-.26.38,1,1,0,0,0-.23.26c0,.11,0,.26.09.3a.32.32,0,0,0,.14,0,2.1,2.1,0,0,0,1.07-.27,8,8,0,0,0,.94-.71,3.68,3.68,0,0,0,1.31-2.15C258.74,318.3,256.9,317.06,253.53,316.58Z" style="fill:#263238"></path><path d="M248.82,317.54a1.92,1.92,0,0,0-.37,2.52c.45.56.69-1.82,2.31-2.07a12.47,12.47,0,0,1,5.54.95c1.12.51,1-.7-1.22-1.41C252.4,316.66,250,316.67,248.82,317.54Z" style="fill:#37474f"></path><path d="M244.25,311a2.82,2.82,0,1,0,2.12-3.35A2.8,2.8,0,0,0,244.25,311Z" style="fill:#fff"></path><path d="M243.84,310.57a2.82,2.82,0,1,0,2.12-3.36A2.82,2.82,0,0,0,243.84,310.57Z" style="fill:#263238"></path><path d="M246.47,310a1,1,0,0,0,1.1.89,1,1,0,1,0-.21-2A1,1,0,0,0,246.47,310Z" style="fill:#fff"></path><path d="M245.19,308.83a.35.35,0,0,0,.38.31.34.34,0,0,0,.3-.38.35.35,0,0,0-.38-.31A.34.34,0,0,0,245.19,308.83Z" style="fill:#fff"></path><path d="M245.75,328.53a2.38,2.38,0,0,1-.73-.88.6.6,0,0,1,0-.58.44.44,0,0,1,.59-.06,2,2,0,0,1,.45.47,2.85,2.85,0,0,0,3.55.44,4.6,4.6,0,0,0,1.92-2.84l.06-.41a.5.5,0,0,1,.55-.4.49.49,0,0,1,.44.53,4.3,4.3,0,0,1-.07.46,4.26,4.26,0,0,0,6.65,4.13.48.48,0,0,1,.7,0,.5.5,0,0,1,0,.7,4.46,4.46,0,0,1-3,1,5.88,5.88,0,0,1-2.69-.69,4.87,4.87,0,0,1-2.46-3.18,5,5,0,0,1-1.53,1.48,3.93,3.93,0,0,1-2.22.55A4.08,4.08,0,0,1,245.75,328.53Z" style="fill:#263238"></path><path d="M264.09,314.57a3.18,3.18,0,1,0,2.39-3.79A3.17,3.17,0,0,0,264.09,314.57Z" style="fill:#fff"></path><path d="M263.64,314.09a3.19,3.19,0,1,0,2.4-3.79A3.17,3.17,0,0,0,263.64,314.09Z" style="fill:#263238"></path><path d="M266.61,313.47a1.14,1.14,0,0,0,2.26-.23,1.14,1.14,0,0,0-1.25-1A1.13,1.13,0,0,0,266.61,313.47Z" style="fill:#fff"></path><path d="M265.16,312.13a.38.38,0,0,0,.43.34.39.39,0,1,0-.08-.77A.39.39,0,0,0,265.16,312.13Z" style="fill:#fff"></path><path d="M275.18,296.78a21.73,21.73,0,0,1,6-2.58c3.56-1,6.92.79,9.55,3.18a34,34,0,0,1,5.37,6.72,43.33,43.33,0,0,1,4.09,7.43,17.81,17.81,0,0,1,1.37,8.3,21.49,21.49,0,0,1-1,4.24,21.87,21.87,0,0,1-2.94,6.28c-2.61,3.59-8.77,7.26-13.12,4.4-2.12-1.4-2.71-4.16-2.45-6.51a56.78,56.78,0,0,0,.28-13.72c-.51-3.73-1.49-8.38-3.87-11.42a11.52,11.52,0,0,0-2.16-2.3c-.83-.63-1.1.05-1.82.4a1.13,1.13,0,0,1-1.43-.81C272.63,298.88,274.09,297.55,275.18,296.78Z" style="fill:#f0997a"></path><path d="M233.38,364.53c-8,6-15.51,12.25-15.95,17.75s4.17,5.65,4.17,5.65-4.49.83-5.43-3.25S217.47,373.46,233.38,364.53Z" style="fill:#f0997a"></path><path d="M240.89,367.35c1-.36,2.64-1.46,2.51-2.71-.09-.85-.84-.85-1.54-.68a4.53,4.53,0,0,0-2.43,1.58C238.5,366.81,239.5,367.86,240.89,367.35Z" style="fill:#b16668"></path><path d="M243.16,370c1-.18,2.87-1,3-2.21.06-.86-.68-1-1.39-.95a4.6,4.6,0,0,0-2.69,1.12C240.91,369,241.71,370.24,243.16,370Z" style="fill:#b16668"></path><path d="M236,366.85c.93-.24,2.57-1.1,2.56-2.26,0-.8-.7-.86-1.35-.77a4.22,4.22,0,0,0-2.39,1.23C233.87,366.13,234.69,367.19,236,366.85Z" style="fill:#b16668"></path><path d="M237.36,368.77c-1.29-.74-3-1.29-7.38,1.12s-5.48,4.93-4.13,5.65c2,1,4.16-1.81,4.31,1.65.08,2,2.88,2.77,6.35-1.47S238.77,369.59,237.36,368.77Z" style="fill:#b16668"></path><path d="M226.59,362.07c1-.36,2.65-1.46,2.51-2.71-.08-.85-.84-.85-1.53-.68a4.59,4.59,0,0,0-2.44,1.58C224.2,361.53,225.21,362.58,226.59,362.07Z" style="fill:#b16668"></path><path d="M228.87,364.7c1-.18,2.86-1,3-2.21.07-.86-.68-1-1.39-.95a4.57,4.57,0,0,0-2.68,1.12C226.62,363.74,227.41,365,228.87,364.7Z" style="fill:#b16668"></path><path d="M221.71,361.57c.94-.25,2.57-1.11,2.57-2.27,0-.79-.7-.86-1.35-.76a4.19,4.19,0,0,0-2.39,1.23C219.57,360.85,220.4,361.91,221.71,361.57Z" style="fill:#b16668"></path><path d="M223.07,363.49c-1.29-.75-3-1.3-7.38,1.11s-5.48,4.94-4.13,5.65c2,1.05,4.16-1.8,4.3,1.65.09,2,2.89,2.78,6.35-1.46S224.48,364.31,223.07,363.49Z" style="fill:#b16668"></path><path d="M253.65,378.39a3.33,3.33,0,0,1-1,.22,3.26,3.26,0,0,1-1.21-.33l-6.31-2.65a22.79,22.79,0,0,0,1.89-4.58c.1-.45-.08-1.31.07-1.68-2,5.13-8.58,8.79-8.58,8.79,5.54,1.64,7.67,7.37,6.65,12.88a14.07,14.07,0,0,1-7.12,9.7,18.31,18.31,0,0,1-7.52,1.91,26.9,26.9,0,0,1-23.84-12.41c-.24-.39-.48-.77-.75-1.13-1.08,4.86.17,11.32,1.48,15.19a24.86,24.86,0,0,0,2.66,5.55c3,4.46,7.6,7.57,12.56,9.56a42.13,42.13,0,0,0,19.59,3.2,52,52,0,0,0,16.69-4.37A62,62,0,0,0,285,396a55.1,55.1,0,0,0,8.47-20.49,73.2,73.2,0,0,0,.68-21.12h0C281.12,362.16,255.94,377.6,253.65,378.39Z" style="opacity:0.1"></path></g><g id="freepik--front-box--inject-125"><polygon points="249.19 444.99 314.76 407.13 314.76 347.65 249.19 385.5 249.19 444.99" style="fill:#EE7376"></polygon><polygon points="249.19 444.99 314.76 407.13 314.76 347.65 249.19 385.5 249.19 444.99" style="fill:#fff;opacity:0.4"></polygon><polygon points="249.19 385.5 261.06 409.55 314.76 378.62 314.76 347.65 249.19 385.5" style="fill:#EE7376;opacity:0.30000000000000004"></polygon><polygon points="249.19 444.99 183.62 407.13 183.62 347.65 249.19 385.51 249.19 444.99" style="fill:#EE7376"></polygon><polygon points="249.19 444.99 183.62 407.13 183.62 347.65 249.19 385.51 249.19 444.99" style="fill:#fff;opacity:0.2"></polygon><polygon points="249.19 385.5 237.32 409.55 183.62 378.62 183.62 347.65 249.19 385.5" style="opacity:0.1"></polygon><polygon points="183.62 347.65 168.72 366.58 234.34 404.39 249.19 385.5 183.62 347.65" style="fill:#EE7376"></polygon><polygon points="183.62 347.65 168.72 366.58 234.34 404.39 249.19 385.5 183.62 347.65" style="fill:#fff;opacity:0.6000000000000001"></polygon><polygon points="314.76 347.65 329.66 366.58 264.04 404.39 249.19 385.5 314.76 347.65" style="fill:#EE7376"></polygon><polygon points="314.76 347.65 329.66 366.58 264.04 404.39 249.19 385.5 314.76 347.65" style="fill:#fff;opacity:0.6000000000000001"></polygon></g></g></g><g id="freepik--Circles--inject-125"><g id="freepik--circles--inject-125"><path d="M362.18,83.49a3.88,3.88,0,1,1-3.88-3.88A3.88,3.88,0,0,1,362.18,83.49Z" style="fill:#ebebeb"></path><path d="M471.54,100a3.89,3.89,0,1,1-3.89-3.89A3.89,3.89,0,0,1,471.54,100Z" style="fill:#ebebeb"></path><path d="M56.72,30.24a3.89,3.89,0,1,1-3.89-3.89A3.89,3.89,0,0,1,56.72,30.24Z" style="fill:#ebebeb"></path><path d="M328,452.15a3.89,3.89,0,1,1-3.89-3.88A3.89,3.89,0,0,1,328,452.15Z" style="fill:#ebebeb"></path><path d="M466.86,459.91A3.89,3.89,0,1,1,463,456,3.89,3.89,0,0,1,466.86,459.91Z" style="fill:#ebebeb"></path><path d="M198.15,273.48a3.89,3.89,0,1,1-3.89-3.89A3.89,3.89,0,0,1,198.15,273.48Z" style="fill:#ebebeb"></path><path d="M75.57,465.21a3.88,3.88,0,1,1-3.88-3.88A3.88,3.88,0,0,1,75.57,465.21Z" style="fill:#ebebeb"></path><circle cx="32.62" cy="409.55" r="3.88" style="fill:#ebebeb"></circle><path d="M421.44,423.5a3.89,3.89,0,1,1-3.89-3.88A3.89,3.89,0,0,1,421.44,423.5Z" style="fill:#ebebeb"></path><path d="M265.31,43.72a3.88,3.88,0,1,1-3.88-3.88A3.88,3.88,0,0,1,265.31,43.72Z" style="fill:#ebebeb"></path><path d="M239.39,106.9a3.88,3.88,0,1,1-3.88-3.88A3.88,3.88,0,0,1,239.39,106.9Z" style="fill:#ebebeb"></path><path d="M41.86,205.81A3.88,3.88,0,1,1,38,201.92,3.88,3.88,0,0,1,41.86,205.81Z" style="fill:#ebebeb"></path><path d="M135.33,40.11a3.89,3.89,0,1,1-3.89-3.89A3.89,3.89,0,0,1,135.33,40.11Z" style="fill:#ebebeb"></path><path d="M461.72,231.71a3.89,3.89,0,1,1-3.89-3.88A3.89,3.89,0,0,1,461.72,231.71Z" style="fill:#ebebeb"></path><path d="M312.12,70.31a10.2,10.2,0,1,1,10.2-10.19A10.21,10.21,0,0,1,312.12,70.31Zm0-18.77a8.58,8.58,0,1,0,8.58,8.58A8.59,8.59,0,0,0,312.12,51.54Z" style="fill:#ebebeb"></path><path d="M356.65,409.55a10.2,10.2,0,1,1,10.2-10.19A10.2,10.2,0,0,1,356.65,409.55Zm0-18.77a8.58,8.58,0,1,0,8.59,8.58A8.59,8.59,0,0,0,356.65,390.78Z" style="fill:#ebebeb"></path><path d="M114.5,405.9a10.2,10.2,0,1,1,10.19-10.2A10.21,10.21,0,0,1,114.5,405.9Zm0-18.78a8.58,8.58,0,1,0,8.58,8.58A8.59,8.59,0,0,0,114.5,387.12Z" style="fill:#ebebeb"></path><path d="M313.14,276.17a10.2,10.2,0,1,1,10.2-10.2A10.21,10.21,0,0,1,313.14,276.17Zm0-18.78a8.59,8.59,0,1,0,8.58,8.58A8.59,8.59,0,0,0,313.14,257.39Z" style="fill:#ebebeb"></path><path d="M38.93,329.78a10.2,10.2,0,1,1,10.2-10.19A10.21,10.21,0,0,1,38.93,329.78Zm0-18.77a8.58,8.58,0,1,0,8.58,8.58A8.59,8.59,0,0,0,38.93,311Z" style="fill:#ebebeb"></path><path d="M452.78,386.46A10.2,10.2,0,1,1,463,376.26,10.22,10.22,0,0,1,452.78,386.46Zm0-18.78a8.58,8.58,0,1,0,8.58,8.58A8.59,8.59,0,0,0,452.78,367.68Z" style="fill:#ebebeb"></path><path d="M36.29,85.11a10.2,10.2,0,1,1,10.19-10.2A10.21,10.21,0,0,1,36.29,85.11Zm0-18.78a8.58,8.58,0,1,0,8.58,8.58A8.6,8.6,0,0,0,36.29,66.33Z" style="fill:#ebebeb"></path><path d="M421.77,50.8A10.2,10.2,0,1,1,432,40.6,10.22,10.22,0,0,1,421.77,50.8Zm0-18.78a8.58,8.58,0,1,0,8.58,8.58A8.59,8.59,0,0,0,421.77,32Z" style="fill:#ebebeb"></path><path d="M159.43,86.22A10.2,10.2,0,1,1,169.63,76,10.2,10.2,0,0,1,159.43,86.22Zm0-18.77A8.58,8.58,0,1,0,168,76,8.58,8.58,0,0,0,159.43,67.45Z" style="fill:#ebebeb"></path><path d="M178.92,452.15A10.2,10.2,0,1,1,189.11,442,10.2,10.2,0,0,1,178.92,452.15Zm0-18.78A8.58,8.58,0,1,0,187.5,442,8.59,8.59,0,0,0,178.92,433.37Z" style="fill:#ebebeb"></path></g></g></svg>
