<?xml version="1.0" encoding="UTF-8"?>
<svg version="1.1" xmlns="http://www.w3.org/2000/svg" width="200" height="200">
<path d="M0 0 C30.39123829 -0.59884213 60.37783387 3.43312001 83.4921875 24.72265625 C92.68325132 34.26506043 103.0233786 49.39755403 103.921875 62.875 C101.00229311 70.46591293 95.52128643 74.90318312 88.25 78.2265625 C84.35801188 79.58286139 80.78115296 79.92616397 76.671875 80.125 C76.98125 81.011875 77.290625 81.89875 77.609375 82.8125 C82.0048106 98.56017573 79.12517631 114.45653077 71.328125 128.5546875 C61.04675371 145.06200029 44.95344572 153.4082468 26.671875 158.125 C4.17239752 163.06680709 -21.69600594 160.62691657 -41.8046875 148.8515625 C-46.40035017 145.70716172 -50.39396765 142.05242078 -54.328125 138.125 C-54.9778125 137.48691406 -55.6275 136.84882813 -56.296875 136.19140625 C-66.01189797 125.94376141 -70.21062487 112.39985702 -70.640625 98.4375 C-70.41567923 92.5439209 -69.98363207 85.43601415 -67.328125 80.125 C-68.441875 80.2075 -69.555625 80.29 -70.703125 80.375 C-79.64742854 80.31190086 -86.10165918 75.98919732 -92.515625 70.125 C-95.10832296 67.2640919 -96.16980522 65.28208179 -96.6953125 61.44140625 C-96.18570193 56.83864694 -94.46222326 53.20212098 -92.453125 49.0625 C-92.04964844 48.22485107 -91.64617187 47.38720215 -91.23046875 46.52416992 C-81.23703319 26.47003529 -64.74253296 12.5534855 -43.55859375 5.375 C-29.42275295 0.97586576 -14.6729484 0.55109665 0 0 Z M-18.49609375 16.328125 C-20.97902544 19.47463667 -23.17755065 22.74866589 -25.328125 26.125 C-25.78445312 26.82786133 -26.24078125 27.53072266 -26.7109375 28.25488281 C-31.361276 35.42622701 -35.85538938 42.6915638 -40.29296875 49.99609375 C-40.76806885 50.77774902 -41.24316895 51.5594043 -41.73266602 52.36474609 C-42.66522082 53.90321088 -43.59414826 55.44388075 -44.51928711 56.98681641 C-46.89512523 60.91824727 -49.38388385 64.53815197 -52.265625 68.125 C-59.53482416 78.27741517 -60.63071792 94.09595309 -59.328125 106.125 C-56.67207241 119.50971447 -49.7915887 130.04899099 -38.7109375 138.00390625 C-20.49972015 149.42910087 2.7882022 152.15128431 23.71728516 148.04882812 C39.34981522 144.3930404 53.02261017 136.55331421 62.42578125 123.234375 C69.96697094 110.46872475 70.32836841 96.11835609 66.70581055 82.00292969 C64.98556363 76.17409793 62.08111255 71.76216415 58.41796875 66.9140625 C54.85977048 62.15660497 51.90399557 57.03181598 48.859375 51.9375 C44.43599384 44.59073675 39.93348902 37.32046287 35.171875 30.1875 C34.70418701 29.48536377 34.23649902 28.78322754 33.75463867 28.05981445 C32.41253102 26.06767221 31.04932264 24.09285205 29.671875 22.125 C29.16672363 21.39651855 28.66157227 20.66803711 28.14111328 19.91748047 C27.62790527 19.20092285 27.11469727 18.48436523 26.5859375 17.74609375 C26.12654785 17.09954834 25.6671582 16.45300293 25.19384766 15.78686523 C20.97748307 11.18295222 14.80127012 11.12984746 8.9296875 10.8515625 C-5.93583887 9.92094955 -5.93583887 9.92094955 -18.49609375 16.328125 Z " fill="#ffffff" transform="translate(96.328125,19.875)"/>
<path d="M0 0 C2.32165057 2.36808359 3.21245688 4.19325417 3.5 7.5 C2.81743596 15.42309627 -1.36762955 22.9983775 -7.125 28.375 C-14.08110696 33.75316209 -20.45308101 36.15138123 -29.3203125 35.82421875 C-36.97697072 34.67472045 -44.21251964 30.16276397 -49.3125 24.375 C-53.64030014 17.92264343 -56.65994142 11.33283053 -55.3125 3.375 C-51.28591989 -2.47003564 -45.18789718 -3.83230512 -38.5625 -5.1875 C-26.35937413 -6.83022848 -10.37661663 -7.44139838 0 0 Z " fill="#ffffff" transform="translate(126.3125,118.625)"/>
<path d="M0 0 C3.63525215 2.60789828 4.83397068 4.0702358 5.625 8.5 C4.83397068 12.9297642 3.63525215 14.39210172 0 17 C-3.83305454 17.71869773 -5.43695612 17.32531424 -8.8125 15.375 C-11.48997956 12.4680222 -12 10.93559391 -12 7 C-9.42571259 1.3365677 -6.25590126 -0.87582618 0 0 Z " fill="#ffffff" transform="translate(132,81)"/>
<path d="M0 0 C3.08364499 1.85018699 4.63905184 3.06153478 5.9375 6.4375 C6.01322099 9.54206051 5.50149761 11.28300432 4 14 C1.68814262 16.39442371 0.371104 16.94472919 -2.9375 17.4375 C-6.91302153 16.86956835 -8.42506202 16.10507227 -11 13 C-11.71534153 9.85595859 -11.71534153 7.14404141 -11 4 C-7.77123438 0.10648852 -4.96361941 -0.8272699 0 0 Z " fill="#ffffff" transform="translate(76,81)"/>
</svg>
